<?xml version="1.0" standalone="no"?>
<!DOCTYPE svg PUBLIC "-//W3C//DTD SVG 1.1//EN" "http://www.w3.org/Graphics/SVG/1.1/DTD/svg11.dtd" >
<!--
2013-9-30: Created.
-->
<svg>
<metadata>
Created by iconfont
</metadata>
<defs>

<font id="iconfont" horiz-adv-x="1024" >
  <font-face
    font-family="iconfont"
    font-weight="500"
    font-stretch="normal"
    units-per-em="1024"
    ascent="896"
    descent="-128"
  />
    <missing-glyph />
    
    <glyph glyph-name="sousuo" unicode="&#59094;" d="M918.624 22.624l-145.536 145.536A382.208 382.208 0 0 1 864 416c0 212.064-171.936 384-384 384S96 628.064 96 416s171.936-384 384-384c94.528 0 180.928 34.304 247.84 90.912l145.536-145.536a31.904 31.904 0 0 1 45.248 0 32 32 0 0 1 0 45.248zM160 416C160 592.448 303.552 736 480 736s320-143.552 320-320-143.552-320-320-320S160 239.552 160 416z"  horiz-adv-x="1024" />

    
    <glyph glyph-name="shouqi" unicode="&#59093;" d="M403.2 767.488c18.848 0 34.24-15.456 34.24-34.24 0-18.848-15.392-34.304-34.24-34.304H197.568v-205.632c0-18.88-15.456-34.24-34.24-34.24-18.88 0-34.336 15.36-34.336 34.24V733.248c0 18.784 15.456 34.24 34.336 34.24H403.2zM237.792 315.456c-18.848 0-34.24 15.36-34.24 34.24 0 18.88 15.424 34.304 34.24 34.304h239.904c0.8 0 1.632-0.064 2.4-0.128 0.32 0 0.672 0 0.992-0.064l1.376-0.192 2.016-0.32 0.704-0.192c6.368-1.344 12.192-4.48 16.832-9.088 4.672-4.704 7.872-10.656 9.216-17.152l0.064-0.32 0.384-2.688c0.064-0.256 0.128-0.448 0.128-0.704a24.352 24.352 0 0 0 0.128-3.008l0.064-0.448v-239.84c0-18.88-15.456-34.304-34.304-34.304-18.784 0-34.24 15.424-34.24 34.336v157.12l-267.36-267.392c-13.376-13.312-35.2-13.312-48.48 0a34.368 34.368 0 0 0 0 48.448l267.328 267.392h-157.12zM512.064 416.736L512 418.24V658.24c0 18.848 15.392 34.24 34.304 34.24 18.88 0 34.24-15.392 34.24-34.24v-157.216l267.36 267.328a34.336 34.336 0 0 0 48.48 0 34.368 34.368 0 0 0 0-48.416l-267.392-267.36h157.12c18.944 0 34.336-15.456 34.336-34.304 0-18.784-15.392-34.24-34.304-34.24h-239.84l-1.92 0.064-1.536 0.128a4.384 4.384 0 0 0-0.96 0.128c-0.8 0.128-1.664 0.192-2.432 0.384l-0.192 0.064a33.792 33.792 0 0 0-26.496 26.432c0 0.128 0 0.192-0.064 0.256l-0.384 2.464a4.8 4.8 0 0 0-0.128 0.992l-0.128 1.824zM860.672 308.96c18.912 0 34.336-15.424 34.336-34.336v-239.808c0-18.912-15.424-34.304-34.336-34.304h-239.808a34.368 34.368 0 0 0-34.304 34.304c0 18.848 15.392 34.24 34.304 34.24h205.568v205.568c0 18.912 15.392 34.336 34.24 34.336z"  horiz-adv-x="1024" />

    
    <glyph glyph-name="luopan" unicode="&#59090;" d="M787.56120968 99.14797290000001c155.99341278 155.99341278 155.97078537 408.9453074 0 564.91609277s-408.9453074 156.0160402-564.93872018 0.02262741-155.99341278-408.96793482 0-564.9613476 408.9453074-155.97078537 564.93872018 0.02262742z m-521.6977263 521.6977263c132.14411527 132.14411527 346.33524457 132.14411527 478.47935984 0S876.44170365 274.51045463 744.3202158 142.38896678000003s-346.33524457-132.14411527-478.45673242-0.02262742-132.14411527 346.33524457 0 478.47935984zM595.11502812 383.95927065l-83.0652478 249.01472406a7.36 7.36 0 0 1-14.02899854 0l-82.95211072-249.03735148a7.36 7.36 0 0 1 0-4.6612479l82.95211072-249.03735148a7.36 7.36 0 0 1 14.02899854 0l83.0652478 249.01472406a7.424 7.424 0 0 1 0 4.70650274z m-138.11775336 5.97363809l40.09578292 152.87082924c1.90070303 7.33128311 12.28668743 7.35391052 14.25527271 0.04525483l41.20452635-152.21463415a7.36 7.36 0 0 0-7.0597541-9.3224958l-81.30030927-0.61094026a7.36 7.36 0 0 0-7.21814603 9.25461355z"  horiz-adv-x="1024" />

    
    <glyph glyph-name="quanping" unicode="&#59091;" d="M403.2096 757.4944c18.848 0 34.24-15.456 34.24-34.24 0-18.88-15.392-34.304-34.24-34.304h-205.664v-205.664c0-18.848-15.456-34.24-34.24-34.24-18.848 0-34.304 15.392-34.304 34.24v239.968c0 18.784 15.456 34.24 34.304 34.24h239.904z m0-698.432c18.848 0 34.24-15.392 34.24-34.24 0-18.912-15.392-34.304-34.24-34.304h-239.904a29.824 29.824 0 0 0-2.368 0.096c-0.32 0-0.704 0-1.024 0.064l-1.376 0.192-2.016 0.32-0.704 0.192a33.984 33.984 0 0 0-16.832 9.12 34.368 34.368 0 0 0-9.216 17.152l-0.064 0.32a143.296 143.296 0 0 0-0.384 2.688c-0.064 0.256-0.128 0.448-0.128 0.672-0.128 1.024-0.128 2.016-0.128 3.04l-0.064 0.416v239.84c0 18.912 15.456 34.304 34.304 34.304 18.784 0 34.24-15.392 34.24-34.304v-157.12l171.36 171.392a34.432 34.432 0 0 0 48.512 0c13.312-13.376 13.312-35.2 0-48.448l-171.36-171.424h157.12z m491.712 665.696l0.064-1.504v-239.968c0-18.848-15.36-34.24-34.304-34.24-18.848 0-34.24 15.392-34.24 34.24V640.5344l-171.328-171.36a34.336 34.336 0 0 0-48.512 0 34.368 34.368 0 0 0 0 48.448l171.392 171.36h-157.12a34.4 34.4 0 0 0-34.336 34.304c0 18.784 15.424 34.24 34.336 34.24h239.808l1.952-0.064 1.504-0.128c0.32 0 0.704-0.064 0.96-0.128 0.8-0.128 1.696-0.192 2.432-0.384l0.192-0.064a33.792 33.792 0 0 0 26.56-26.688l0.384-2.464a4.8 4.8 0 0 0 0.128-0.992l0.128-1.824z m-34.24-425.824c18.912 0 34.304-15.36 34.304-34.304v-239.84c0-18.88-15.36-34.304-34.304-34.304h-239.808a34.368 34.368 0 0 0-34.304 34.304c0 18.88 15.36 34.24 34.304 34.24h205.568v205.6c0 18.912 15.392 34.304 34.24 34.304z"  horiz-adv-x="1024" />

    
    <glyph glyph-name="zhongzhi" unicode="&#59092;" d="M518.16 545.0784a29.952 29.952 0 0 1-30.016-29.984v-182.592c0-3.296 0.512-6.4 1.504-9.28a30.08 30.08 0 0 1 29.696-25.728h182.624c16.576 0 29.984 13.408 29.984 30.016s-13.408 29.984-29.984 29.984h-153.824V515.0944a29.952 29.952 0 0 1-29.984 30.016zM879.76 529.8464a374.176 374.176 0 0 1-80.32 119.104 374.144 374.144 0 0 1-264.96 109.792c-44.8 0-88.736-7.776-130.336-23.296a375.328 375.328 0 0 1-216.992-210.88l-16.096 29.984a29.888 29.888 0 0 1-40.608 12.192 29.888 29.888 0 0 1-12.192-40.576l51.104-95.104c0.32-0.608 0.704-1.216 1.088-1.824 0.224-0.384 0.512-0.672 0.704-1.088 0.096-0.192 0.32-0.384 0.416-0.704a29.856 29.856 0 0 1 38.4-8.608s0.096 0 0.096 0.128l95.008 50.976a29.888 29.888 0 0 1 12.16 40.64 29.888 29.888 0 0 1-40.576 12.16l-32.512-17.472a316.512 316.512 0 0 0 88.32 120 313.152 313.152 0 0 0 202.208 73.504 312.224 312.224 0 0 0 222.496-92.224c59.392-59.52 92.16-138.496 92.16-222.496s-32.864-163.2-92.384-222.592-138.4-92.192-222.496-92.192a312.224 312.224 0 0 0-222.496 92.16 29.984 29.984 0 0 1-42.4-42.368 374.176 374.176 0 0 1 265.024-109.792 374.144 374.144 0 0 1 264.992 109.792A374.176 374.176 0 0 1 879.76 529.8144z"  horiz-adv-x="1024" />

    
    <glyph glyph-name="texiaobianji" unicode="&#59065;" d="M474.88 45.34400000000005h-0.128a16.064 16.064 0 0 0-15.328 11.808l-74.176 274.464-276.64 76.288a16 16 0 1 0 1.152 31.136l278.976 55.04 70.592 288.768a16 16 0 0 0 15.328 12.192 16.736 16.736 0 0 0 15.648-11.776l79.136-289.248 264.384-55.008a15.968 15.968 0 0 0 1.152-31.04l-265.44-76.288-79.296-274.784a16 16 0 0 0-15.36-11.552zM182.432 420.768l220.128-60.672a16.032 16.032 0 0 0 11.2-11.264l61.632-228 65.856 228.256a16.064 16.064 0 0 0 10.944 10.944l211.776 60.832-210.624 43.84a15.936 15.936 0 0 0-12.16 11.424l-65.408 239.104-58.336-238.688a16 16 0 0 0-12.448-11.872l-222.56-43.904zM763.744-32.44799999999998h-0.096a16 16 0 0 0-15.328 11.808l-30.208 111.744-112.064 30.88a16.064 16.064 0 0 0 1.088 31.136l112.288 22.464 28.32 117.28a16 16 0 0 0 15.328 12.256c6.592 0.64 13.76-4.736 15.68-11.776l32.192-117.664 106.4-22.08a15.968 15.968 0 0 0 1.216-31.04l-107.392-31.232-32-112.16a16.064 16.064 0 0 0-15.424-11.616z m-84.288 167.392l55.936-15.392c5.44-1.536 9.728-5.792 11.2-11.264l17.536-64.96 18.624 65.28a16.064 16.064 0 0 0 10.912 11.008l54.112 15.712-52.992 11.008a16 16 0 0 0-12.192 11.424l-18.368 67.2-16.128-66.816a16 16 0 0 0-12.416-11.936l-56.224-11.264z"  horiz-adv-x="1024" />

    
    <glyph glyph-name="kongjianfenxi" unicode="&#58984;" d="M704 340.16a831.136 831.136 0 0 0-10.88-101.12c15.36 2.88 29.76 6.08 43.84 9.6-0.608-11.744-2.784-23.36-6.4-34.56a957.184 957.184 0 0 0-217.6-23.68h-15.04a128.64 128.64 0 0 0-13.12 32H512a956.288 956.288 0 0 1 146.56 10.88 769.92 769.92 0 0 1 13.44 132.16c11.936-6.656 22.752-15.2 32-25.28zM764.16 416a227.904 227.904 0 0 1-32 24.96c13.44 3.52 25.92 7.04 38.08 10.88l7.04 22.4c9.6-3.2 18.88-6.4 27.84-9.92a227.68 227.68 0 0 1 69.76 41.28 388.672 388.672 0 0 1-86.08 142.72 709.312 709.312 0 0 0-120-29.12 743.392 743.392 0 0 0 32-160 219.616 219.616 0 0 1-92.8 20.16h-17.6l2.24 29.76c24.64-1.92 48.64-4.8 71.36-8a681.632 681.632 0 0 1-25.92 114.24 1058.368 1058.368 0 0 0-126.08-8.96 1057.472 1057.472 0 0 0-126.08 7.36 726.976 726.976 0 0 1-32-186.56c33.056-5.536 66.368-9.28 99.84-11.2a217.632 217.632 0 0 1-26.56-30.08c-25.92 1.92-50.56 4.8-74.56 8.64v-12.16a806.496 806.496 0 0 1 13.44-149.12c6.4 0 13.12-1.92 19.84-2.88 1.28-10.784 3.328-21.472 6.08-32C220.48 217.28 96 278.08 96 350.4v32c0 229.76 186.24 416 416 416s416-186.24 416-416v-32a121.216 121.216 0 0 0-4.8-24.32A171.2 171.2 0 0 0 832 248v6.4a260.96 260.96 0 0 1-1.6 27.84c11.168 5.76 21.888 12.384 32 19.84a86.4 86.4 0 0 1 30.08 35.84c1.984 14.752 3.168 29.6 3.52 44.48a377.344 377.344 0 0 1-10.56 89.6 253.856 253.856 0 0 0-40.64-25.6c7.68-3.84 15.04-8 21.76-12.16l-16.96-27.2a264.064 264.064 0 0 1-43.84 22.08c-13.12-5.12-26.88-9.6-41.6-14.08V416zM128 413.12l21.12-23.68a63.968 63.968 0 0 1-21.44-32v-19.84c14.08-39.04 91.52-77.44 201.28-98.56a845.984 845.984 0 0 0-8.96 143.36v17.92a444.8 444.8 0 0 0-181.76 71.68A363.872 363.872 0 0 1 128 413.12z m137.6 32c16.96-4.8 35.2-9.6 54.4-13.44 2.848 62.848 13.6 125.12 32 185.28a709.312 709.312 0 0 0-120 29.12 388.672 388.672 0 0 1-86.08-142.72 227.488 227.488 0 0 1 71.68-40 572.8 572.8 0 0 0 87.36 25.92l7.04-32c-15.584-3.616-30.624-7.456-45.12-11.52l-1.28-0.64z m229.12 64v-32c-32 0-64-2.56-92.8-5.76l-3.52 32c32.32 4.48 64.64 6.4 97.6 7.04l-1.28-1.28zM428.8 757.44A381.6 381.6 0 0 1 260.16 672c34.304-10.112 69.248-17.824 104.64-23.04a322.56 322.56 0 0 0 64 108.48zM512 638.4a1000.512 1000.512 0 0 1 114.56 6.4c-30.08 75.2-72 121.6-114.56 121.6s-84.48-46.4-114.56-121.6c38.048-4.32 76.288-6.464 114.56-6.4zM763.84 672a381.6 381.6 0 0 1-168.64 85.44 322.752 322.752 0 0 0 64-108.16A764 764 0 0 1 763.84 672zM713.6 94.08a189.12 189.12 0 0 0-105.6-32 192 192 0 1 0 130.88 51.52l117.12-117.12a15.872 15.872 0 0 0-22.4-22.4l-120 120z m-105.6 0a160 160 0 1 1-160 160 160 160 0 0 1 160-159.68v-0.32z"  horiz-adv-x="1024" />

    
    <glyph glyph-name="zanting" unicode="&#58981;" d="M400.672 546.272a32 32 0 0 1-32-32v-256a32 32 0 0 1 64 0v256a32 32 0 0 1-32 32zM624.672 546.272a32 32 0 0 1-32-32v-256a32 32 0 0 1 64 0v256a32 32 0 0 1-32 32zM512.672 802.784c-229.376 0-416-186.624-416-416s186.624-416 416-416 416 186.624 416 416-186.624 416-416 416z m0-768c-194.08 0-352 157.92-352 352s157.92 352 352 352 352-157.92 352-352-157.92-352-352-352z"  horiz-adv-x="1024" />

    
    <glyph glyph-name="bofang" unicode="&#58982;" d="M659.104 410.528l-225.344 131.584a32 32 0 0 1-48.128-27.488l-1.28-260.96a32 32 0 0 1 47.872-27.936l226.624 129.344a32.032 32.032 0 0 1 0.256 55.456zM512-29.216c-229.376 0-416 186.624-416 416s186.624 416 416 416 416-186.624 416-416-186.624-416-416-416z m0 768c-194.08 0-352-157.92-352-352s157.92-352 352-352 352 157.92 352 352-157.92 352-352 352z"  horiz-adv-x="1024" />

    
    <glyph glyph-name="rili" unicode="&#58983;" d="M846.592 757.952h-93.376v-59.616h93.376c33.568 0 61.536-33.088 61.536-66.752v-56.128H119.296V631.584c0 33.664 27.968 66.752 61.536 66.752h91.52V757.952H186.432c-67.136 0-124.992-70.24-124.992-131.968V81.6c0-61.728 57.856-136.704 124.992-136.704h665.76c61.536 0 109.952 69.344 109.952 136.704V625.984c-5.568 61.696-48.384 131.968-115.552 131.968z m58.4-670.784c-0.032-39.264-19.232-82.4-58.4-82.4H186.464c-33.568 0-65.28 43.136-65.28 76.8v437.76h783.84v-432.16zM633.12 757.952h-240.704v-59.616h240.672V757.952zM607.616 320h-384a32 32 0 0 0 0 64h384a32 32 0 0 0 0-64zM416.32 127.936h-192a32 32 0 0 0 0 64h192a32 32 0 1 0 0-64zM333.568 632.128a32 32 0 0 0-32 32v128a32 32 0 0 0 64 0v-128a32 32 0 0 0-32-32zM692.576 632.128a32 32 0 0 0-32 32v128a32 32 0 0 0 64 0v-128a32 32 0 0 0-32-32z"  horiz-adv-x="1024" />

    
    <glyph glyph-name="tianjiachangfangti" unicode="&#58980;" d="M451.232 223.936h144v-32h-144zM916.96 796.992c-2.464 0.768-9.152 0.768-10.208 0.768H271.424a16.032 16.032 0 0 1-13.056-6.752L100.352 568c-0.224-0.32-0.192-0.768-0.384-1.12a15.104 15.104 0 0 1-2.08-5.824c-0.096-0.576-0.32-1.088-0.32-1.664 0-0.224-0.128-0.416-0.128-0.672v-574.016a16 16 0 0 1 16-16h635.328c0.832 0 1.536 0.352 2.304 0.48 1.024-0.192 2.016-0.48 3.04-0.48a16 16 0 0 1 13.024 6.688l158.016 220.992a15.968 15.968 0 0 1 2.976 9.312v576a16.064 16.064 0 0 1-11.168 15.296zM255.424 731.488v-90.144h32V765.76h593.728l-135.328-191.008H144.352l111.072 156.736z m482.688-507.552h-62.88v-32h62.88v-191.2H148.576l60.064 85.92-26.368 18.112-52.864-75.424V542.752h126.016v-125.408h32v125.408h450.688v-318.816z m28.032-193.248v161.248h53.088v32h-53.088V555.584l129.984 183.424V210.88l-129.984-180.192zM287.424 337.344h-32v-124.448L216.96 156.384l26.368-18.112 36.512 53.664h91.392v32H287.424zM872 223.936h48v-32h-48z"  horiz-adv-x="1024" />

    
    <glyph glyph-name="touyingmianji" unicode="&#58957;" d="M912.736 512h-271.552V784.192a16 16 0 0 1-16 16h-512a16 16 0 0 1-16-16v-512a16 16 0 0 1 16-16h271.552V-16a16 16 0 0 1 16-16h512a16 16 0 0 1 16 16v512a16 16 0 0 1-16 16z m-271.584-53.44l21.44 21.44h81.952l-103.36-103.36v81.92z m-512-170.368v480h480v-468.8l-11.2-11.2H129.152z m287.584-54.08l22.048 22.048h81.952l-104-104v81.952z m0-127.168l149.248 149.248h59.2a16 16 0 0 1 16 16v59.2L789.792 480h84.32L416.736 22.624v84.32z m480-106.944h-72.032l72.032 72.032V0z m0 117.28L779.456 0h-79.36l196.672 196.672v-79.392z m0 124.64L654.816 0h-75.232l317.12 317.12v-75.2z m0 120.448L534.368 0H439.36l457.376 457.376v-95.008z"  horiz-adv-x="1024" />

    
    <glyph glyph-name="tianjiaqiuti" unicode="&#58973;" d="M928 378.592h-0.064C927.2 607.36 740.928 793.248 512 793.248c-229.376 0-416-186.624-416-416s186.624-416 416-416 416 186.624 416 416l-0.064 0.992 0.064 0.352z m-32.032-0.288c-0.448-41.056-95.072-85.536-242.304-103.456 2.72 31.392 4.448 63.584 4.64 96.32l0.096 16-32 0.192-0.096-16a1167.328 1167.328 0 0 0-4.96-99.936 1184.128 1184.128 0 0 0-214.368 0c-2.912 33.6-4.64 69.312-4.64 107.168s1.792 73.536 4.832 107.104c1.376 0.128 2.624 0.352 4 0.448l15.968 1.376-2.784 31.904-13.728-1.216c17.984 147.392 62.624 242.016 103.712 242.016 19.744 0 41.76-24 60.352-65.824l6.496-14.624 29.248 12.992-6.496 14.624a225.312 225.312 0 0 1-28.064 48.064c181.056-30.464 319.552-187.68 320.096-377.152zM452.704 756.192c-37.568-48.224-62.688-139.616-74.496-241.6a939.84 939.84 0 0 1-82.528-12.736l-15.68-3.264 6.528-31.328 15.648 3.296a904.448 904.448 0 0 0 72.704 11.488 1207.68 1207.68 0 0 1-4.544-103.424c0-34.592 1.568-69.504 4.416-103.712-147.424 17.984-242.08 62.624-242.08 103.712 0 19.744 24 41.76 65.824 60.352l14.624 6.464-12.992 29.248-14.624-6.496c-23.2-10.304-39.872-20.992-52.384-31.552a384.16 384.16 0 0 0 319.584 319.552zM132.672 320.64c46.848-39.488 140.256-65.92 245.28-78.144 11.52-102.656 36-194.816 72.704-243.872A384.224 384.224 0 0 0 132.672 320.64zM512-6.752c-40.384 0-84.256 96.224-101.76 245.952a1209.6 1209.6 0 0 1 104.064-4.608c44.704 0 89.952 2.656 133.408 7.584l3.008-0.32 0.064 0.64c100.928 11.744 191.36 36.512 239.84 73.504-29.44-182.656-187.744-322.752-378.624-322.752zM842.72 432.992l14.272-7.232 14.432 28.576-14.272 7.232c-28.992 14.656-65.856 27.168-109.536 37.088l-15.584 3.552-7.136-31.2 15.584-3.552c41.184-9.376 75.552-20.96 102.24-34.464zM606.272 590.752c4.768-22.848 8.384-47.488 11.488-72.8a1204.288 1204.288 0 0 1-96 4.608l-16 0.096-0.192-32 16-0.096c34.016-0.192 67.456-1.984 99.872-4.96l0.448-3.84 1.376-15.968 31.904 2.784-1.408 15.936c-0.8 9.216-2.08 17.92-3.072 26.912l0.352 3.584-0.8 0.064a943.2 943.2 0 0 1-12.672 82.144l-3.264 15.68-31.328-6.496 3.296-15.648zM603.2 152.416c-9.376-41.152-20.96-75.52-34.464-102.208l-7.232-14.272 28.576-14.432 7.232 14.272c14.656 28.992 27.168 65.856 37.088 109.536l3.552 15.584-31.2 7.136-3.552-15.616z"  horiz-adv-x="1024" />

    
    <glyph glyph-name="tianjiazhuiti" unicode="&#58978;" d="M911.296 220.544c-0.288 0.576-0.352 1.184-0.736 1.728l-0.704 1.056-6.816 10.048L525.248 786.24a15.936 15.936 0 0 1-13.216 7.04H512h-0.032a15.936 15.936 0 0 1-13.216-7.04L149.472 275.072l-0.352-0.256 0.096-0.128-28.224-41.28-6.816-10.048-0.704-1.056c-0.384-0.544-0.448-1.184-0.736-1.728-9.888-17.536-15.552-36-15.552-55.264 0-113.216 182.112-201.888 414.848-202.304 232.736 0.416 414.848 89.088 414.848 202.304-0.032 19.232-5.696 37.696-15.584 55.232zM512-5.024c-207.68 0.416-382.848 78.208-382.848 170.304 0 14.88 5.024 29.344 13.568 43.2 2.112 3.424 4.32 6.848 6.912 10.176l22.848 33.664 8.64 6.496c18.048 13.568 40.128 25.984 65.6 36.928l14.72 6.336-12.64 29.408-14.688-6.336c-6.496-2.784-12.128-5.984-18.24-8.96L512 748.768l296.128-432.608c-6.304 3.072-12.16 6.368-18.912 9.28l-14.688 6.272-12.608-29.408 14.72-6.304c25.536-10.944 47.648-23.328 65.728-36.768l9.12-6.816 22.88-33.728c2.592-3.36 4.8-6.752 6.912-10.176 8.544-13.856 13.568-28.32 13.568-43.2 0-92.128-175.168-169.92-382.848-170.336zM632.448 367.456l-15.84 2.24-4.544-31.648 15.84-2.272c26.528-3.776 52.032-8.896 75.904-15.2l15.456-4.096 8.16 30.976-15.456 4.064a705.888 705.888 0 0 1-79.52 15.936zM390.816 367.36c-27.616-4.032-54.368-9.408-79.456-16l-15.456-4.064 8.096-30.912 15.488 4.064a702.272 702.272 0 0 0 75.968 15.264l15.84 2.304-4.608 31.648-15.872-2.304zM471.296 374.944l-16-0.704 1.44-31.968 16 0.736c25.6 1.088 52.192 1.12 77.792 0l16-0.736 1.472 31.968-16 0.704a881.568 881.568 0 0 1-80.704 0z"  horiz-adv-x="1024" />

    
    <glyph glyph-name="tianjiazhuti" unicode="&#58979;" d="M928.16 587.552C927.808 702.368 745.152 792.224 512 792.224c-233.344 0-416.16-90.016-416.16-204.992 0-1.664 0.416-3.264 0.48-4.896h-0.48v-415.136c0-114.944 182.784-204.992 416.16-204.992 210.656 0 379.616 73.472 410.592 172.288l0.736 1.024c0 0.352-0.128 0.672-0.128 1.024 2.944 10.016 4.96 20.192 4.96 30.688V587.552zM512 760.224c208.256 0 384.16-79.232 384.16-172.992S720.256 414.24 512 414.24c-208.224 0-384.16 79.232-384.16 172.992S303.776 760.224 512 760.224z m0-766.016c-183.232 0-341.312 61.344-376.672 139.968v1.344c0 12.832 3.456 25.696 10.304 38.24l7.648 14.048-25.44 13.824v305.344c62.208-73.984 208.928-124.768 384.16-124.768 175.264 0 321.952 50.784 384.16 124.768v-307.168l-21.92-11.2 7.296-14.24c5.728-11.2 8.512-22.72 9.216-34.24-29.888-81.44-190.944-145.92-378.752-145.92zM750.56 303.264l-15.168 5.12-10.272-30.304 15.168-5.12c31.232-10.56 58.592-23.36 81.344-38.016l13.472-8.672 17.312 26.944-13.44 8.672c-24.992 16.032-54.72 29.952-88.416 41.376zM277.824 300.928c-33.632-11.488-63.36-25.312-88.352-40.96l-13.568-8.512 17.024-27.136 13.536 8.512c22.912 14.368 50.4 27.104 81.728 37.856l15.136 5.152-10.368 30.272-15.136-5.184zM561.792 336.832l-16 0.768-1.536-31.968 16-0.736c31.392-1.504 62.144-4.8 91.392-9.888l15.776-2.688 5.44 31.52-15.776 2.72a774.752 774.752 0 0 1-95.296 10.272zM466.144 336.224a820.576 820.576 0 0 1-95.104-11.36l-15.744-2.88 5.728-31.456 15.744 2.848a784.96 784.96 0 0 0 91.328 10.944l15.968 0.96-1.984 31.968-15.936-1.024z"  horiz-adv-x="1024" />

    
    <glyph glyph-name="ICON_huoyan" unicode="&#58958;" d="M377.6 198.4c-16-19.2-73.6-76.8-64-147.2 6.4-54.4 16-108.8 102.4-179.2 0 0-153.6 44.8-233.6 124.8S57.6 166.4 76.8 294.4s89.6 144 121.6 195.2 51.2 73.6 54.4 128c3.2 3.2 38.4-134.4 32-204.8 0 0 92.8 86.4 131.2 140.8S512 790.4 480 896c0 0 176-108.8 240-291.2S787.2 304 787.2 304s99.2 83.2 108.8 156.8c0 0 99.2-233.6 28.8-374.4S643.2-128 643.2-128s51.2 76.8 48 131.2c-3.2 57.6-64 92.8-89.6 115.2-28.8 25.6-54.4 64-64 89.6s0 83.2 6.4 96c0 3.2-150.4-86.4-166.4-105.6z"  horiz-adv-x="1024" />

    
    <glyph glyph-name="ICON_dianguangyuan" unicode="&#58959;" d="M672 592c-108.8 89.6-272 73.6-361.6-35.2-32-38.4-51.2-83.2-54.4-131.2-12.8-108.8 44.8-211.2 144-259.2 12.8-6.4 25.6 0 32 9.6s0 25.6-9.6 32c-102.4 51.2-144 176-92.8 281.6 51.2 102.4 176 144 281.6 92.8 102.4-51.2 144-176 92.8-281.6-16-32-38.4-57.6-64-76.8-32-22.4-54.4-57.6-54.4-96v-16L416 83.2c-12.8 0-22.4-12.8-22.4-25.6s12.8-22.4 25.6-22.4h3.2l182.4 35.2 9.6 3.2 9.6 12.8V128c0 22.4 12.8 44.8 32 60.8C771.2 272 796.8 432 713.6 547.2c-9.6 16-25.6 32-41.6 44.8z m-70.4-556.8l-182.4-32c-12.8-3.2-22.4-12.8-19.2-25.6 3.2-12.8 12.8-19.2 22.4-19.2h3.2l182.4 32c12.8 3.2 22.4 12.8 19.2 25.6-3.2 12.8-12.8 19.2-25.6 19.2z m-48-102.4c-3.2 0-9.6 0-12.8-3.2v-3.2c-19.2-9.6-44.8-9.6-64 0-12.8 3.2-25.6-3.2-28.8-16-3.2-9.6 0-16 6.4-22.4 16-9.6 35.2-12.8 54.4-12.8 19.2 0 35.2 6.4 51.2 12.8 9.6 3.2 12.8 9.6 12.8 19.2 3.2 12.8-6.4 22.4-19.2 25.6zM160 406.4c0 12.8-9.6 22.4-22.4 22.4h-48c-12.8 0-22.4-9.6-22.4-22.4 0-12.8 9.6-22.4 22.4-22.4h48c12.8 0 22.4 9.6 22.4 22.4z m102.4 252.8c3.2 6.4 3.2 16 0 22.4l-32 32c-9.6 9.6-22.4 9.6-32 0-9.6-9.6-9.6-22.4 0-32l32-32c9.6-3.2 25.6 0 32 9.6zM508.8 752c12.8 0 22.4 9.6 22.4 22.4v48c0 12.8-6.4 25.6-19.2 25.6-12.8 0-25.6-6.4-25.6-19.2v-51.2c0-12.8 9.6-25.6 22.4-25.6z m313.6-35.2c-9.6 9.6-22.4 9.6-32 0l-32-32c-6.4-9.6-3.2-25.6 6.4-32 6.4-6.4 19.2-6.4 25.6 0l32 32c6.4 9.6 6.4 22.4 0 32z m105.6-288h-48c-12.8 0-22.4-9.6-22.4-22.4 0-12.8 9.6-22.4 22.4-22.4h48c12.8 0 22.4 9.6 22.4 22.4 0 12.8-9.6 22.4-22.4 22.4z m-92.8-278.4c-12.8 6.4-25.6 3.2-32-9.6-6.4-9.6-3.2-22.4 6.4-28.8l38.4-25.6c9.6-6.4 25.6-6.4 32 6.4 6.4 9.6 6.4 25.6-6.4 32l-38.4 25.6zM192 153.6l-3.2-3.2-38.4-25.6c-9.6-6.4-12.8-22.4-6.4-32 6.4-9.6 22.4-12.8 32-6.4l38.4 25.6c12.8 6.4 16 19.2 9.6 32s-19.2 16-32 9.6z"  horiz-adv-x="1024" />

    
    <glyph glyph-name="ICON_juguangdeng" unicode="&#58960;" d="M729.6 672c0 118.4-96 217.6-217.6 217.6-118.4 0-217.6-96-217.6-217.6v-281.6h432V672z m-48-233.6h-336V672c0 92.8 76.8 169.6 169.6 169.6S684.8 764.8 684.8 672v-233.6zM512 214.4c-12.8 0-25.6-9.6-25.6-25.6v-288c0-12.8 9.6-25.6 25.6-25.6s25.6 9.6 25.6 25.6v288c0 16-12.8 25.6-25.6 25.6zM300.8 304c-9.6 6.4-25.6 3.2-32-6.4l-160-252.8c-6.4-9.6-3.2-25.6 6.4-32 3.2-3.2 9.6-3.2 12.8-3.2 6.4 0 16 3.2 19.2 9.6l160 252.8c9.6 9.6 6.4 25.6-6.4 32z m614.4-259.2l-160 252.8c-6.4 12.8-22.4 16-32 6.4-12.8-6.4-16-22.4-6.4-32l160-252.8c3.2-6.4 12.8-9.6 19.2-9.6 3.2 0 9.6 0 12.8 3.2 12.8 6.4 16 22.4 6.4 32z"  horiz-adv-x="1024" />

    
    <glyph glyph-name="ICON_penquan" unicode="&#58961;" d="M592 83.2c9.6 9.6 19.2 22.4 28.8 35.2 41.6 38.4 99.2 44.8 83.2 64-16 22.4-57.6-9.6-57.6-9.6-32-22.4-51.2-60.8-64-89.6h-25.6c32 105.6 96 188.8 121.6 217.6C704 336 672 336 672 336c-51.2 9.6-102.4-185.6-115.2-252.8h-19.2V438.4c22.4 86.4 60.8 124.8 124.8 124.8 67.2 0 108.8-41.6 124.8-124.8 3.2-9.6 9.6-12.8 19.2-12.8 9.6 3.2 12.8 9.6 12.8 19.2-25.6 124.8-99.2 150.4-156.8 150.4-54.4 0-92.8-22.4-121.6-64v160c6.4 41.6 28.8 64 64 64 22.4 0 51.2-6.4 64-64 3.2-9.6 9.6-12.8 19.2-12.8 9.6 3.2 12.8 9.6 12.8 19.2-16 57.6-48 89.6-96 89.6-35.2 0-64-16-80-48-16 32-44.8 48-83.2 48-48 0-80-28.8-96-89.6-3.2-9.6 3.2-16 12.8-19.2 9.6-3.2 16 3.2 19.2 12.8 12.8 57.6 41.6 64 64 64 35.2 0 57.6-22.4 64-60.8v-179.2c-28.8 54.4-70.4 80-131.2 80-57.6 0-131.2-25.6-156.8-150.4-3.2-9.6 3.2-16 12.8-19.2 9.6-3.2 16 3.2 19.2 12.8 16 83.2 57.6 124.8 124.8 124.8 64 0 102.4-38.4 124.8-124.8v-355.2H464c-16 70.4-67.2 262.4-115.2 249.6 0 0-32-3.2-6.4-38.4C364.8 265.6 432 185.6 464 83.2h-22.4c-12.8 25.6-32 67.2-67.2 89.6 0 0-38.4 32-57.6 12.8-19.2-19.2 41.6-25.6 83.2-64 9.6-12.8 22.4-25.6 32-38.4H102.4l6.4-19.2c32-102.4 124.8-172.8 230.4-172.8h352c102.4 0 198.4 70.4 230.4 172.8l6.4 19.2H592z"  horiz-adv-x="1024" />

    
    <glyph glyph-name="ICON_pinghangguang" unicode="&#58962;" d="M896 150.4c-12.8 0-25.6-9.6-25.6-25.6v-70.4L240 688c-9.6 9.6-25.6 9.6-35.2 0s-9.6-25.6 0-35.2l630.4-630.4H768c-12.8 0-25.6-9.6-25.6-25.6s9.6-25.6 25.6-25.6h128c12.8 0 25.6 9.6 25.6 25.6v128c0 16-12.8 25.6-25.6 25.6z m-448 0c-12.8 0-25.6-9.6-25.6-25.6v-70.4L112 364.8c-9.6 9.6-25.6 9.6-35.2 0s-9.6-25.6 0-35.2l310.4-310.4H320c-12.8 0-25.6-9.6-25.6-25.6S304-32 320-32h128c12.8 0 25.6 9.6 25.6 25.6v128c0 19.2-12.8 28.8-25.6 28.8z m480 416c-12.8 0-25.6-9.6-25.6-25.6v-70.4L592 780.8c-9.6 9.6-25.6 9.6-35.2 0s-9.6-25.6 0-35.2l310.4-310.4H800c-12.8 0-25.6-9.6-25.6-25.6S784 384 800 384h128c12.8 0 25.6 9.6 25.6 25.6v128c0 19.2-12.8 28.8-25.6 28.8z"  horiz-adv-x="1024" />

    
    <glyph glyph-name="qingchu-01" unicode="&#58963;" d="M665.6 537.6V896H358.4v-358.4H0v-563.2h1024V537.6z m307.2-512H870.4V179.2h-51.2v-153.6H716.8V230.4h-51.2v-204.8h-128V307.2h-51.2v-281.6h-128V230.4h-51.2v-204.8H204.8V179.2h-51.2v-153.6H51.2V384h921.6z m0 409.6H51.2v51.2h358.4V844.8h204.8v-358.4h358.4z"  horiz-adv-x="1024" />

    
    <glyph glyph-name="ICON_quanping" unicode="&#58964;" d="M768 896v-51.2h168.96L721.92 634.88l40.96-40.96L972.8 808.96V640h51.2V896z m204.8-936.96L762.88 174.08l-40.96-40.96L936.96-76.8H768v-51.2h256V128h-51.2zM261.12 174.08L51.2-40.96V128H0v-256h256v51.2H87.04l215.04 209.92zM256 844.8V896H0v-256h51.2V808.96l209.92-215.04 40.96 40.96L87.04 844.8z"  horiz-adv-x="1024" />

    
    <glyph glyph-name="iEarth-zhibeizhen-01" unicode="&#58965;" d="M512 757.76l261.12-651.264-223.744 238.08L512 384l-37.376-39.936-224.256-238.08L512 757.76M512 896L102.4-128 512 309.248 921.6-128 512 896z"  horiz-adv-x="1024" />

    
    <glyph glyph-name="iEarth-zhuyemian-01" unicode="&#58966;" d="M512 894.464L1.024 434.688 153.6 435.2V-128h512V332.8l-307.712-0.512V76.8h51.2V281.088L614.4 281.6v-358.4H204.8V486.4h-69.632L512 825.344l376.32-339.456-69.12 1.024V-76.8H716.8v-51.2h153.6V434.688l153.088-2.048L512 894.464zM819.2 640h51.2V896H716.8v-51.2h102.4V640z"  horiz-adv-x="1024" />

    
    <glyph glyph-name="guangyunxian" unicode="&#58967;" d="M896 768H544a288 288 0 0 1-284.48-245.44 290.56 290.56 0 0 1-32-96A288 288 0 0 1 348.48 32H128v-32h352a288 288 0 0 1 284.48 245.44 290.56 290.56 0 0 1 32 96A288 288 0 0 1 675.52 736H896zM765.76 352a67.84 67.84 0 0 0-3.84-6.4A288 288 0 0 1 288 503.36a64 64 0 0 0 0 7.68A256 256 0 0 0 768 384a248.64 248.64 0 0 0-2.24-32z m-507.52 64a67.84 67.84 0 0 0 3.84 6.4A288 288 0 0 1 736 264.64a64 64 0 0 0 0-7.68A256 256 0 0 0 256 384a248.64 248.64 0 0 0 2.24 32z m32 42.88A256 256 0 0 0 736 310.08a256 256 0 0 0-448 147.84zM480 32a256 256 0 0 0-256 256 248.64 248.64 0 0 0 4.48 46.72 288 288 0 0 1 480-160A256 256 0 0 0 480 32z m320 448a248.64 248.64 0 0 0-4.48-46.72 288 288 0 0 1-480 160A256 256 0 0 0 800 480z"  horiz-adv-x="1024" />

    
    <glyph glyph-name="chunse" unicode="&#58968;" d="M0 896h1024v-1024H0z"  horiz-adv-x="1024" />

    
    <glyph glyph-name="jiantouxian" unicode="&#58969;" d="M960 406.4l-4.8 4.8-4.48 4.8L827.2 539.2l-22.4-22.4L905.28 416H64v-32h841.28L804.8 283.2l22.4-22.4L950.72 384l4.48 4.8 4.8 4.8 6.4 6.4-6.4 6.4z"  horiz-adv-x="1024" />

    
    <glyph glyph-name="lunkuoxian" unicode="&#58970;" d="M880 416a16 16 0 0 0 0-32H144a16 16 0 0 0 0 32h736m0 32H144a48 48 0 0 1 0-96h736a48 48 0 0 1 48 48 48 48 0 0 1-48 48z"  horiz-adv-x="1024" />

    
    <glyph glyph-name="ICON_tuichuquanping" unicode="&#58971;" d="M921.6 588.8H752.64L967.68 798.72l-40.96 40.96L716.8 624.64V793.6h-51.2v-256h256z m0-409.6v51.2h-256v-256h51.2V143.36l209.92-215.04 40.96 40.96L752.64 179.2z m-819.2 0h168.96L56.32-30.72l40.96-40.96L307.2 143.36V-25.6h51.2v256h-256z m204.8 445.44L97.28 839.68 56.32 798.72 271.36 588.8H102.4v-51.2h256v256h-51.2z"  horiz-adv-x="1024" />

    
    <glyph glyph-name="shixian" unicode="&#58972;" d="M64 416h896v-32H64z"  horiz-adv-x="1024" />

    
    <glyph glyph-name="wangge" unicode="&#58974;" d="M0 576h288V864H0zM32 832h224v-224H32z m320-256h288V864H352z m32 256h224v-224H384z m320 32v-288h288V864z m256-256H736V832h224zM0 224h288V512H0z m32 256h224v-224H32z m320-256h288V512H352z m32 256h224v-224H384z m320-256h288V512H704z m32 256h224v-224H736zM0-128h288V160H0z m32 256h224v-224H32z m320-256h288V160H352z m32 256h224v-224H384z m320-256h288V160H704z m32 256h224v-224H736z"  horiz-adv-x="1024" />

    
    <glyph glyph-name="tiaowen" unicode="&#58975;" d="M2.56-34.848l928 927.968 90.496-90.528L93.12-125.344zM469.44 896L0 426.56v-181.12L650.56 896H469.44z m-464 0L0 890.56v-181.12L186.56 896H5.44z m1013.12-1024l5.44 5.44V58.56L837.44-128h181.12z m-645.12 0h181.12L1024 341.44V522.56L373.44-128z"  horiz-adv-x="1024" />

    
    <glyph glyph-name="weijixian" unicode="&#58976;" d="M512 768h-24.64a397.76 397.76 0 0 1-85.76-15.36l9.28-32A357.76 357.76 0 0 0 512 736v32z m-208.96-61.76L288 696h-8.96A393.6 393.6 0 0 1 224 640h-4.8l24.64-20.8A343.36 343.36 0 0 0 320 679.36l-17.6 26.88zM160 540.8l-3.84-9.28h-1.6a389.12 389.12 0 0 1-23.04-90.24l32-4.16A353.92 353.92 0 0 0 192 528l-32 12.8z m2.88-210.88l-32-4.8a372.16 372.16 0 0 1 32-106.56l28.8 13.76a345.6 345.6 0 0 0-30.08 96zM248 149.44L225.6 128a387.2 387.2 0 0 1 79.36-64l16.96 27.2a359.36 359.36 0 0 0-78.72 65.6z m169.92-104.96l-8.64-32a416 416 0 0 1 82.88-13.12h28.16v32H512a347.2 347.2 0 0 0-92.8 12.48z m291.52 48.96a355.2 355.2 0 0 0-91.84-45.12l9.6-32a361.6 361.6 0 0 1 44.8 17.6h45.44l7.04 4.8-17.92 26.56zM835.52 248A352 352 0 0 0 784 160l24.64-20.48A378.56 378.56 0 0 1 864 232.64v3.2L834.56 248z m53.12 204.16l-32-5.44A371.52 371.52 0 0 0 864 384a329.92 329.92 0 0 0-2.24-39.68l32-3.52v15.04c0 11.84-1.92 23.36-3.52 34.88v5.12zM792 646.72l-24-21.76a354.56 354.56 0 0 0 58.56-84.16l28.48 14.4-3.84 7.68h-2.88a378.24 378.24 0 0 1-41.6 60.8H800V640l-5.44 5.76zM604.16 756.8l-7.68-32a343.36 343.36 0 0 0 96-38.72l16.32 27.52a379.84 379.84 0 0 1-103.36 42.24z"  horiz-adv-x="1024" />

    
    <glyph glyph-name="xuxian" unicode="&#58977;" d="M960 384H832v32h128z m-256 0H576v32h128z m-256 0H320v32h128z m-256 0H64v32h128z"  horiz-adv-x="1024" />

    
    <glyph glyph-name="zaixianbianji" unicode="&#58949;" d="M905.6 620.8l-195.2 163.2c-25.6 22.4-67.2 19.2-89.6-6.4L576 726.4l-41.6-48-288-342.4L208 288 192 9.600000000000023c0-22.4 19.2-38.4 38.4-32l268.8 64 41.6 48 288 342.4 41.6 48 41.6 51.2c22.4 25.6 19.2 67.2-6.4 89.6zM252.8 41.60000000000002l12.8 198.4 179.2-150.4-192-48z m240 89.6l-195.2 163.2 288 342.4 195.2-163.2-288-342.4z m134.4 553.6l32 38.4c6.4 6.4 16 6.4 22.4 3.2l172.8-144c6.4-6.4 6.4-16 3.2-22.4l-32-38.4-198.4 163.2z"  horiz-adv-x="1024" />

    
    <glyph glyph-name="caijian" unicode="&#58950;" d="M896 128h-64V672c0 19.2-12.8 32-32 32H256V768c0 19.2-12.8 32-32 32s-32-12.8-32-32v-64H128c-19.2 0-32-16-32-32s12.8-32 32-32h64v-544c0-19.2 12.8-32 32-32h544v-64c0-19.2 12.8-32 32-32s32 12.8 32 32v64h64c19.2 0 32 12.8 32 32s-12.8 32-32 32zM256 128V640h512v-512H256z"  horiz-adv-x="1024" />

    
    <glyph glyph-name="dixing" unicode="&#58951;" d="M710.4 755.2C697.6 780.8 672 800 643.2 800c-32-3.2-57.6-22.4-67.2-51.2l-118.4-422.4c-3.2 0-3.2-3.2-6.4-3.2s-6.4 3.2-6.4 3.2L352 521.6l-3.2 3.2c-12.8 22.4-41.6 32-67.2 28.8-25.6-6.4-48-22.4-57.6-51.2 0 0-128-499.2-128-502.4v-6.4c0-16 12.8-25.6 25.6-25.6h784c16 0 25.6 12.8 25.6 25.6V0c0 6.4-220.8 755.2-220.8 755.2zM288 483.2c0 3.2 0 3.2 3.2 9.6 3.2 0 6.4-3.2 6.4-3.2l92.8-195.2 3.2-3.2c12.8-22.4 41.6-32 67.2-28.8 25.6 3.2 48 22.4 57.6 48l118.4 422.4s0 3.2 6.4 3.2c3.2 0 6.4-3.2 6.4-3.2L857.6 32H166.4L288 483.2z"  horiz-adv-x="1024" />

    
    <glyph glyph-name="jiazaituceng" unicode="&#58952;" d="M739.2 416H544V611.2c0 16-12.8 28.8-32 28.8s-32-12.8-32-28.8V416H284.8c-16 0-28.8-12.8-28.8-32s12.8-32 28.8-32H480v-195.2c0-16 12.8-28.8 32-28.8s32 12.8 32 32v192h198.4c16 0 25.6 12.8 25.6 32s-12.8 32-28.8 32zM512-32C284.8-32 96 156.79999999999995 96 384S284.8 800 512 800s416-188.8 416-416-188.8-416-416-416z m0 768C316.8 736 160 576 160 384s160-352 352-352c195.2 0 352 160 352 352S707.2 736 512 736z"  horiz-adv-x="1024" />

    
    <glyph glyph-name="liangsuan" unicode="&#58953;" d="M918.4 588.8l-204.8 201.6c-12.8 12.8-32 12.8-44.8 0L105.6 224c-12.8-12.8-12.8-32 0-44.8l204.8-204.8c12.8-12.8 32-12.8 44.8 0L921.6 544c9.6 9.6 12.8 32-3.2 44.8zM262.4 294.4l70.4-70.4c12.8-12.8 32-16 48 0s12.8 32 0 48l-70.4 70.4 44.8 44.8 70.4-70.4c12.8-12.8 32-16 44.8-3.2 12.8 12.8 12.8 35.2 0 48l-70.4 70.4 67.2 67.2 70.4-70.4c12.8-12.8 32-16 44.8-3.2 12.8 12.8 12.8 35.2 0 48L512 544l41.6 41.6 70.4-70.4c12.8-12.8 35.2-12.8 48 0 12.8 12.8 12.8 35.2 0 48l-70.4 67.2 89.6 89.6 160-160-521.6-515.2-156.8 156.8"  horiz-adv-x="1024" />

    
    <glyph glyph-name="sanweifenxi" unicode="&#58954;" d="M860.8 608L537.6 784c-19.2 9.6-41.6 9.6-60.8 0L160 608c-19.2-12.8-32-32-32-57.6v-342.4c0-22.4 12.8-44.8 35.2-57.6l320-169.6c19.2-9.6 41.6-9.6 60.8 0l320 169.6c22.4 9.6 35.2 32 35.2 57.6V553.6c-3.2 22.4-16 44.8-38.4 54.4zM832 211.20000000000005l-320-163.2-320 163.2V550.4l316.8 169.6L832 550.4v-339.2zM784 524.8c-9.6 16-28.8 22.4-44.8 12.8L512 419.2l-227.2 121.6c-16 9.6-35.2 3.2-44.8-12.8-9.6-16-3.2-35.2 12.8-44.8l227.2-118.4V128c0-19.2 12.8-32 32-32s32 12.8 32 32v236.8l227.2 118.4c12.8 6.4 19.2 25.6 12.8 41.6z"  horiz-adv-x="1024" />

    
    <glyph glyph-name="tuceng" unicode="&#58955;" d="M128 496l352-188.8c9.6-6.4 19.2-6.4 28.8-6.4s22.4 3.2 28.8 6.4l352 188.8c19.2 9.6 32 32 35.2 54.4 0 22.4-9.6 44.8-32 57.6L544 790.4c-19.2 12.8-48 12.8-67.2 0l-352-185.6c-19.2-12.8-32-32-32-57.6s16-41.6 35.2-51.2zM512 736l352-185.6-352-188.8-352 188.8L512 736zM112 329.6l384-195.2c3.2-3.2 9.6-3.2 16-3.2s9.6 0 16 3.2l384 195.2c16 9.6 22.4 28.8 12.8 41.6-9.6 16-25.6 22.4-41.6 12.8L512 198.39999999999998 140.8 387.2c-16 9.6-35.2 3.2-41.6-12.8-9.6-16-3.2-35.2 12.8-44.8zM880 224L512 35.200000000000045 140.8 224c-16 9.6-35.2 3.2-41.6-12.8-9.6-16-3.2-35.2 12.8-41.6l384-195.2c6.4-6.4 9.6-6.4 16-6.4s9.6 0 16 3.2l384 195.2c16 9.6 22.4 28.8 12.8 41.6-9.6 19.2-28.8 25.6-44.8 16z"  horiz-adv-x="1024" />

    
    <glyph glyph-name="changjingshezhi" unicode="&#58948;" d="M508.8 182.39999999999998c-112 0-201.6 89.6-201.6 201.6s89.6 201.6 201.6 201.6 204.8-86.4 204.8-201.6-92.8-201.6-204.8-201.6z m0 60.8c76.8 0 140.8 64 140.8 140.8s-64 140.8-140.8 140.8-140.8-64-140.8-140.8 64-140.8 140.8-140.8zM918.4 460.8c-3.2 16-19.2 32-35.2 38.4s-67.2 28.8-83.2 54.4c-16 28.8-6.4 83.2-3.2 99.2s-3.2 35.2-19.2 48l-124.8 73.6h-3.2c-16 6.4-38.4 3.2-51.2-9.6-12.8-9.6-54.4-44.8-86.4-44.8s-73.6 32-89.6 44.8c-12.8 12.8-35.2 16-51.2 9.6L246.4 700.8l-3.2-3.2c-12.8-9.6-19.2-28.8-19.2-44.8 6.4-16 12.8-73.6-3.2-99.2-16-28.8-67.2-48-83.2-54.4-19.2-6.4-32-19.2-35.2-38.4 0-3.2-6.4-44.8-6.4-76.8s9.6-73.6 12.8-76.8c6.4-19.2 19.2-32 35.2-38.4s67.2-28.8 83.2-54.4c16-28.8 6.4-83.2 3.2-99.2s3.2-35.2 19.2-48l124.8-73.6h3.2c16-6.4 38.4-3.2 51.2 9.6 12.8 9.6 54.4 44.8 86.4 44.8 28.8 0 73.6-32 86.4-44.8 9.6-9.6 19.2-12.8 32-12.8 6.4 0 12.8 3.2 16 3.2l124.8 73.6h3.2c16 9.6 22.4 28.8 19.2 48-6.4 16-12.8 73.6 3.2 99.2 16 28.8 67.2 48 83.2 54.4 19.2 6.4 32 19.2 35.2 38.4 0 3.2 6.4 44.8 6.4 76.8s-6.4 73.6-6.4 76.8z m-57.6-137.6c-41.6-12.8-89.6-38.4-112-73.6s-19.2-86.4-9.6-131.2l-112-64c-32 28.8-76.8 54.4-118.4 54.4s-83.2-25.6-118.4-54.4l-112 64c9.6 44.8 9.6 92.8-9.6 131.2-19.2 35.2-64 60.8-108.8 73.6-3.2 12.8-3.2 105.6 0 121.6 41.6 12.8 86.4 38.4 108.8 73.6 25.6 38.4 25.6 89.6 16 131.2l112 64c32-28.8 76.8-54.4 118.4-54.4s83.2 25.6 118.4 54.4l112-64c-9.6-44.8-9.6-92.8 9.6-131.2s64-60.8 108.8-73.6c3.2-12.8 0-105.6-3.2-121.6z"  horiz-adv-x="1024" />

    
    <glyph glyph-name="ditushezhi" unicode="&#58947;" d="M416 800H160c-35.2 0-64-28.8-64-64v-256c0-35.2 28.8-64 64-64h256c35.2 0 64 28.8 64 64V736c0 35.2-28.8 64-64 64z m0-320H160V736h256v-256zM864 800h-256c-35.2 0-64-28.8-64-64v-256c0-35.2 28.8-64 64-64h256c35.2 0 64 28.8 64 64V736c0 35.2-28.8 64-64 64z m0-320h-256V736h256v-256zM416 352H160c-35.2 0-64-28.8-64-64v-256c0-35.2 28.8-64 64-64h256c35.2 0 64 28.8 64 64v256c0 35.2-28.8 64-64 64z m0-320H160v256h256v-256zM864 352h-256c-35.2 0-64-28.8-64-64v-256c0-35.2 28.8-64 64-64h256c35.2 0 64 28.8 64 64v256c0 35.2-28.8 64-64 64z m0-320h-256v256h256v-256z"  horiz-adv-x="1024" />

    
    <glyph glyph-name="Vue-geologicBodyClip" unicode="&#58940;" d="M665.6 0h99.2v-32h-99.2zM464 0h102.4v-32h-102.4zM262.4 0h99.2v-32H262.4zM128 32H96v-48c0-9.6 6.4-16 16-16H160v32H128v32zM96 636.8h32v-102.4H96zM96 435.2h32v-99.2H96zM96 233.60000000000002h32v-99.2H96zM96 784V736h32V768h32V800H112c-9.6 0-16-6.4-16-16zM665.6 800h99.2v-32h-99.2zM464 800h102.4v-32h-102.4zM262.4 800h99.2v-32H262.4zM896 736h32V784c0 9.6-6.4 16-16 16H864v-32h32v-32zM896 233.60000000000002h32v-99.2h-32zM896 636.8h32v-102.4h-32zM896 435.2h32v-99.2h-32zM512 44.799999999999955l307.2 163.2c6.4 3.2 9.6 9.6 9.6 16v304c0 6.4-3.2 12.8-9.6 16L512 729.6l-307.2-182.4c-3.2-3.2-9.6-6.4-9.6-9.6V227.20000000000005c0-6.4 3.2-12.8 9.6-16l300.8-163.2 6.4-3.2z m0 646.4l265.6-156.8-60.8-32-198.4 108.8-6.4 6.4-208-115.2-57.6 32L512 691.2z m172.8-204.8L512 393.6l-172.8 92.8 172.8 96 172.8-96z m-457.6 22.4l278.4-147.2 9.6-3.2 288 150.4v-112l-288-150.4-284.8 150.4v112z m0-147.2l278.4-147.2 9.6-3.2 284.8 150.4v-128l-288-153.6-284.8 156.8v124.8zM928 0v96h-96v32h-32v-32h-32v-32h32v-96h96v-32h32v32h32v32h-32z m-32 0h-64v64h64v-64z"  horiz-adv-x="1024" />

    
    <glyph glyph-name="iEarth-R8-xiugai_zhankai" unicode="&#58936;" d="M670.208 429.056L353.792 745.984l-45.568-45.056L625.152 384 308.224 67.072l45.568-45.056 316.416 316.928L715.776 384l-45.568 45.056z"  horiz-adv-x="1024" />

    
    <glyph glyph-name="toolbar-analysis" unicode="&#58935;" d="M720 438.4V678.4L512 800 304 678.4v-240l-192-112v-240L320-32l192 112 192-112 208 121.6v240l-192 108.8z m-32 0l-160-92.8v204.8l160 92.8v-204.8zM512 761.6L668.8 672 512 582.4 355.2 672 512 761.6z m-176-115.2l160-92.8v-204.8l-160 92.8V646.4z m-32-633.6l-160 92.8v185.6l160-92.8v-185.6zM163.2 320l156.8 89.6 156.8-89.6-156.8-89.6L163.2 320z m332.8-214.4l-160-92.8v185.6l160 92.8v-185.6z m192-92.8l-160 92.8v185.6l160-92.8v-185.6zM547.2 320l156.8 89.6 156.8-89.6-156.8-89.6-156.8 89.6z m332.8-214.4l-160-92.8v185.6l160 92.8v-185.6z"  horiz-adv-x="1024" />

    
    <glyph glyph-name="iEarth-R8-xiugai_bianji" unicode="&#58926;" d="M1016.98881 614.26L743.12081 888.127a26.107 26.107 0 0 1-37.368 0L563.95581 742.235l-457.64-454.057a25.595 25.595 0 0 1-6.143-10.238L0.86381-95.236a26.107 26.107 0 0 1 25.595-32.761h6.655L405.26581-29.2a25.595 25.595 0 0 1 10.238 6.142l455.593 458.152 143.332 143.333a26.107 26.107 0 0 1 2.56 35.833z m-435.629 76.785l99.31-102.38L261.42081 170.44l-99.309 99.309zM138.56581 219.072l102.38-102.38 102.38-102.38-279.498-79.346z m260.046-185.82L299.30081 132.56l418.224 419.248 102.38-99.31z m456.104 456.104l-236.499 237.01L724.69281 832.842 961.19081 596.343z"  horiz-adv-x="1024" />

    
    <glyph glyph-name="iEarth-R8-xiugai_caijian" unicode="&#58927;" d="M256 793.6a102.4 102.4 0 1 0-102.4-102.4A102.4 102.4 0 0 0 256 793.6m0 51.2a153.6 153.6 0 1 1 153.6-153.6A153.6 153.6 0 0 1 256 844.8z m0-563.2a102.4 102.4 0 1 0-102.4-102.4A102.4 102.4 0 0 0 256 281.6m0 51.2a153.6 153.6 0 1 1 153.6-153.6A153.6 153.6 0 0 1 256 332.8z m665.6 441.344H776.704L550.912 548.352l72.192-72.704L921.6 774.144zM367.104 652.288l-72.192-72.192L438.784 435.2 294.912 292.352l72.192-72.192L512 363.52l265.728-265.728H921.6z m135.168-252.416a30.72 30.72 0 1 0 30.72 30.72 30.72 30.72 0 0 0-30.72-30.72z"  horiz-adv-x="1024" />

    
    <glyph glyph-name="iEarth-R8-xiugai_shouqi" unicode="&#58928;" d="M715.776 700.928l-45.568 45.056-316.416-316.928L308.224 384l45.568-45.056 316.416-316.928 45.568 45.056L398.848 384l316.928 316.928z"  horiz-adv-x="1024" />

    
    <glyph glyph-name="iEarth-R8-xiugai_liangsuan" unicode="&#58929;" d="M768 896L0 128l256-256 768 768zM73.216 128l110.08 110.08L292.864 128l36.864 36.864-109.056 110.08L330.752 384l72.192-72.192 36.864 36.864-72.704 73.216 110.592 110.08 109.056-109.056 36.864 36.864L512 568.832l112.64 110.08 72.192-72.192 36.864 36.864-72.192 72.192L768 822.272 950.784 640 256-54.784z"  horiz-adv-x="1024" />

    
    <glyph glyph-name="iEarth-tianjia" unicode="&#58930;" d="M1024 353.92v64L544 416V896h-64v-480L0 414.08v-64L480 352v-480h64V352l480 1.92z"  horiz-adv-x="1024" />

    
    <glyph glyph-name="iEarth-R8-xiugai_dixing" unicode="&#58931;" d="M1024-76.8h-51.2L601.6 768.512a25.6 25.6 0 0 1-47.616 0l-112.64-337.92-96.256 94.208a25.6 25.6 0 0 1-41.984-8.704L71.68-76.8H0v-51.2h1024z m-108.032 0h-153.6a26.112 26.112 0 0 1 0 2.56L635.904 562.688zM460.8 355.84a25.6 25.6 0 0 1 18.432 16.896l88.576 272.384L709.12-76.8H446.464L358.4 439.808l76.8-76.8a25.6 25.6 0 0 1 25.6-7.168z m-148.48 43.52l82.432-476.16H126.464z"  horiz-adv-x="1024" />

    
    <glyph glyph-name="iEarth-R8-xiugai_tuceng" unicode="&#58932;" d="M512 409.6L0 614.4 512 819.2l512-204.8-512-204.8z m0-307.2l-320 128L0 153.6l512-204.8 512 204.8-192 76.8-320-128zM512 332.8l-320 128L0 384l512-204.8L1024 384l-192 76.8-320-128z"  horiz-adv-x="1024" />

    
    <glyph glyph-name="iEarth-R8-xiugai_ditu" unicode="&#58933;" d="M102.4 793.6h358.4v-358.4H102.4z m460.8 0h358.4v-358.4H563.2zM102.4 332.8h358.4v-358.4H102.4z m460.8 0h358.4v-358.4H563.2z"  horiz-adv-x="1024" />

    
    <glyph glyph-name="iEarth-R8-xiugai_shezhi" unicode="&#58934;" d="M553.019952 844.70786l21.499975-119.78486 5.629993-30.201964 29.178966-9.213989a315.84063 315.84063 0 0 0 56.308934-23.034973l27.641968-15.356982 23.547972 18.427978 97.259886 68.08292 51.18994-51.18994-67.569921-101.355881-17.404979-25.082971 13.820983-27.129968a314.305632 314.305632 0 0 0 21.499975-54.261936l9.213989-30.201965 31.225964-5.629993 116.712863-21.499975v-74.225913l-119.78386-21.499975-30.201964-5.629993-9.214989-29.178966a315.32963 315.32963 0 0 0-23.034973-56.308934l-14.844983-27.641968 17.915979-26.106969 68.08292-97.259886-51.18994-51.18994-99.819883 69.617918-25.08297 17.40398-27.129969-13.820984a315.32963 315.32963 0 0 0-54.261936-21.499975l-30.201965-9.213989-5.630993-31.225963-23.034973-116.199864h-74.225913l-21.499975 119.78386-5.629993 30.201964-29.178966 9.213989a315.84063 315.84063 0 0 0-56.307934 23.034973l-27.642968 15.356982-23.546972-18.427978-97.260886-68.08292-51.18994 51.18994 69.617918 99.819883 17.40498 25.08297-13.820984 27.130969a314.305632 314.305632 0 0 0-21.499975 54.260936l-9.213989 30.201965-31.225963 5.630993-118.759861 23.035973v74.224913l119.783859 21.499975 30.201965 5.629993 9.213989 29.178966a317.376628 317.376628 0 0 0 23.034973 56.308934l14.844983 27.641968-17.915979 23.546972-67.569921 97.772885 51.18994 51.18994 100.842882-68.08292 25.08297-17.403979 27.129969 13.820983a315.32963 315.32963 0 0 0 54.261936 21.499975l30.201965 9.213989 5.629993 31.225964 21.499975 116.712863h74.225913M571.95993 895.8978H460.87806a26.618969 26.618969 0 0 1-27.129968-16.89298l-24.059972-142.307833a364.983572 364.983572 0 0 1-62.962926-25.082971L223.869338 793.51892a16.379981 16.379981 0 0 1-9.21399 2.559997 32.249962 32.249962 0 0 1-21.499974-9.726989L113.300467 709.055019a26.106969 26.106969 0 0 1-7.166991-31.225963l82.415903-118.248862a365.495572 365.495572 0 0 1-26.618969-62.450927L17.06258 471.022298A26.106969 26.106969 0 0 1 0.1706 443.89233V332.80946a26.106969 26.106969 0 0 1 16.89298-27.129968l142.307833-25.59497a365.495572 365.495572 0 0 1 25.082971-62.963926l-81.903904-121.319858a26.106969 26.106969 0 0 1 7.166991-31.225964l79.343907-79.343907a32.249962 32.249962 0 0 1 21.499975-9.725988 16.379981 16.379981 0 0 1 9.213989 2.559997l118.248862 82.414903a364.471573 364.471573 0 0 1 62.450927-26.618969l26.106969-144.86683a26.618969 26.618969 0 0 1 27.129968-16.89298h109.546872a26.618969 26.618969 0 0 1 27.129968 16.89298l25.59597 142.307833a364.983572 364.983572 0 0 1 62.962926 25.082971l121.319858-81.903904a16.379981 16.379981 0 0 1 9.213989-2.559997 32.249962 32.249962 0 0 1 21.499975 9.726989l79.343907 79.343907a26.618969 26.618969 0 0 1 7.166992 31.225963l-82.415904 118.247861a365.495572 365.495572 0 0 1 26.618969 62.451927l144.86683 26.10697a26.106969 26.106969 0 0 1 16.892981 27.129968V435.18934a26.106969 26.106969 0 0 1-16.892981 27.129968l-141.795833 24.059972a366.007571 366.007571 0 0 1-25.082971 62.962926L921.58652 672.199062a26.106969 26.106969 0 0 1-7.166992 31.225964l-77.295909 79.343907a32.249962 32.249962 0 0 1-21.499975 10.749987 16.379981 16.379981 0 0 1-9.213989-2.559997l-118.759861-83.439902a364.471573 364.471573 0 0 1-62.451927 26.619969L599.089898 879.00482A26.618969 26.618969 0 0 1 571.95993 895.8978zM512.068 486.37928A102.37988 102.37988 0 1 0 409.68812 383.9994a102.37988 102.37988 0 0 0 102.37988 102.37988m0 51.18994A153.56982 153.56982 0 1 1 665.63782 383.9994a153.56982 153.56982 0 0 1-153.56982 153.56982z"  horiz-adv-x="1024" />

    
    <glyph glyph-name="Vue-shadowquery" unicode="&#58925;" d="M923.52 144l-1.6 1.92-55.04 19.52V695.36a16 16 0 0 1-10.24 15.04l-238.4 87.04a16 16 0 0 1-13.76 0l-145.6-86.4a15.68 15.68 0 0 1-8-13.76V640l32 49.28 224-87.68v-384l-114.56 36.8a15.36 15.36 0 0 1-12.48 0l-96-53.12v28.8l-70.72-117.44 299.52-130.56a15.36 15.36 0 0 1 16 2.24l194.88 158.08c0.32 0 0.32 0.64 0 1.6z m-184.64 64V608l96 72.64v-504.96z m68.48-55.68l-68.48-52.48v73.28z m-291.2 556.16l96 61.44L800 695.04l-85.44-64z m-14.08-534.72l87.04 47.68 117.76-38.08v-93.12l-204.8 83.52z m213.44-160l-281.6 122.56 32 17.6 251.2-102.4a16.32 16.32 0 0 1 15.68 1.92l111.36 85.76 20.16-6.72zM706.88 600.3199999999999L483.2 688v-459.52l223.68 371.84zM389.76 148.79999999999995l61.12 33.6V640L101.44 98.55999999999995l224-130.56 86.08 143.04-21.12 8.96a16 16 0 0 0-0.64 28.8zM482.88 688l-32-48v-457.6l-61.12-33.6a16 16 0 0 1 0-28.8l21.12-8.96 70.72 117.44zM482.88 688l-32-48v-457.6l-61.12-33.6a16 16 0 0 1 0-28.8l21.12-8.96 70.72 117.44z"  horiz-adv-x="1024" />

    
    <glyph glyph-name="Vue-measure-area" unicode="&#58924;" d="M928 608V780.8a19.2 19.2 0 0 1-19.2 19.2H736v-64H288V800H116.8a20.48 20.48 0 0 1-20.8-19.2V608h64v-448H96v-172.8a19.2 19.2 0 0 1 19.2-19.2H288v64h448v-64h172.8a19.2 19.2 0 0 1 19.2 19.2V160h-64V608zM288 704h172.8L192 440.64V608h96zM128 640V768h128v-128z m128-640H128v128h128z m10.88 160H192v235.2L508.16 704H736v-70.08zM288 64v73.28L755.84 608H832v-240.64L522.56 64z m448 0h-166.4l262.4 256v-160h-96z m160 64v-128h-128v128zM768 640V768h128v-128z"  horiz-adv-x="1024" />

    
    <glyph glyph-name="Vue-Profile" unicode="&#58917;" d="M896 352v208a16 16 0 0 1-16 16h-128a16 16 0 0 1-16-16V480h-48a16 16 0 0 1-16-16V320h-64V784a16 16 0 0 1-16 16h-192a16 16 0 0 1-16-16V352h-64v217.28a15.68 15.68 0 0 1-4.8 11.52L224 672 132.8 580.8a15.68 15.68 0 0 1-4.8-11.52V320H96v-336a16 16 0 0 1 16-16h800a16 16 0 0 1 16 16V352z m0-32v-160l-160-160h-227.2L864 355.20000000000005V320z m-192-32v160h64v96h96v-143.68L463.68 0H237.12L576 338.88V288zM576 634.24l-160-160V649.28L534.72 768H576zM489.28 768L416 694.72V768zM224 626.88L275.2 576 160 460.48v101.76zM160 288v128l128 128v-200.32l-160-160V288z m-32-150.4L310.4 320H416v108.8l160 160V384L192 0H128zM781.76 0L896 114.24000000000001V0z"  horiz-adv-x="1024" />

    
    <glyph glyph-name="Vue-measure-GroundArea" unicode="&#58918;" d="M913.28 278.4l-96 67.2-181.44 438.08a18.88 18.88 0 0 1-35.2 0l-167.04-440.64L317.76 544a18.88 18.88 0 0 1-33.92-2.56L208 345.28l-96-67.2a19.2 19.2 0 0 1 0-32l390.4-270.4a19.2 19.2 0 0 1 21.76 0l390.4 270.4a19.2 19.2 0 0 1-1.28 32.32z m-286.08-64l-109.12 258.56 45.12 118.4 137.6-341.44 85.12-52.8-66.24-45.76z m64-82.88l-75.52-52.16-97.6 85.44L459.2 320l42.24 110.72 99.52-236.16z m-267.2 162.56l-20.48-107.2-77.12-50.24-83.84 58.88L320 238.39999999999998l53.44 142.08z m-192 26.88l72 181.76L352 416l-57.28-154.88-82.24-44.8-66.88 46.4zM512 8.960000000000036l-157.76 109.12 77.44 50.56L448 256l41.6-109.76 97.92-85.44z m303.04 209.92l-88 54.4-146.88 364.16 38.72 101.76 173.76-416 85.76-59.52z"  horiz-adv-x="1024" />

    
    <glyph glyph-name="Vue-measure-distance" unicode="&#58919;" d="M752 687.6800000000001l-544-544a18.24 18.24 0 0 1 0-25.28l145.28-145.28a18.24 18.24 0 0 1 25.6 0l544 544a18.24 18.24 0 0 1 0 25.28L777.6 687.6800000000001a18.24 18.24 0 0 1-25.6 0z m139.84-157.76L366.72 4.7999999999999545l-128 128 87.36 87.36L416 131.84000000000003l22.08 21.76-87.68 87.36 87.68 87.68 87.36-87.68 22.08 22.08-87.68 87.36 87.68 87.68 87.36-87.68 21.76 22.08-87.36 87.36 87.36 87.36 87.68-87.36 20.48 20.16-87.36 87.68 87.36 88.96zM596.8 774.72L125.12 303.03999999999996a13.44 13.44 0 0 0-18.88 18.88L577.92 793.6a13.44 13.44 0 0 0 18.88-18.88z"  horiz-adv-x="1024" />

    
    <glyph glyph-name="Vue-measure-height" unicode="&#58920;" d="M352 241.91999999999996V782.72a17.6 17.6 0 0 1-17.92 17.28H114.24a16.96 16.96 0 0 1-18.24-17.28v-796.16a18.56 18.56 0 0 1 18.56-18.56h476.48a18.88 18.88 0 0 1 16.64 20.8v218.24a15.04 15.04 0 0 1-16.64 16.32h-219.52a18.56 18.56 0 0 0-19.52 18.56zM576 0H128V768h192v-160H224v-32h96v-96H224v-32h96v-96H224v-32h96v-96H224v-32h96v-96h32v96h96v-96h32v96h96zM911.36-33.60000000000002a16.64 16.64 0 0 0-16.64 16.32V785.28a16.64 16.64 0 0 0 16.64 14.72 16.32 16.32 0 0 0 16.64-16.32v-800.96a16.32 16.32 0 0 0-16.64-16.32zM800 800h64v-32h-64zM672 800h96v-32h-96zM544 800h96v-32h-96zM416 800h96v-32h-96zM800 0h64v-32h-64zM735.68-31.67999999999995l-96-0.32v31.68h96v-31.36z"  horiz-adv-x="1024" />

    
    <glyph glyph-name="Vue-Skyline" unicode="&#58921;" d="M832 96h-160V528a16 16 0 0 1-16 16H608V640h-32v-96h-48a16 16 0 0 1-16-16V96h-192v176a16 16 0 0 1-16 16H261.76v96H224v-96H176a16 16 0 0 1-16-16V96H64v-128h864V416h-80a16 16 0 0 1-16-16z m32 288h32v-384H96v64h96v192h96v-192h256V512h96v-448h224zM576 800h32v-96h-32zM783.68 480a16.32 16.32 0 0 1-16-16V160H736V591.6800000000001a16 16 0 0 1-16 16H672V688.96a16 16 0 0 1-16 16h-129.92a16 16 0 0 1-16-16V608h-46.4a15.68 15.68 0 0 1-16-16l1.92-432H384v176.64a16 16 0 0 1-16 16H318.08v79.04a16 16 0 0 1-16 16H176.32a16 16 0 0 1-16-16V352H112a16 16 0 0 1-16-16V160H64v-32h64v192h64v96h96v-96h64v-192h130.24L480 576h64V672h96v-96h64v-448h96V448h128v32zM224 544h32v-96H224z"  horiz-adv-x="1024" />

    
    <glyph glyph-name="Vue-measure-clear" unicode="&#58922;" d="M640 544V781.44a18.88 18.88 0 0 1-19.52 18.56h-218.56a18.88 18.88 0 0 1-18.56-18.88V544H114.88a18.56 18.56 0 0 1-18.56-18.56v-538.88a18.88 18.88 0 0 1 18.56-18.88h794.24a18.88 18.88 0 0 1 18.56 18.88V525.44a18.56 18.56 0 0 1-18.56 18.56z m-224-32V768h192v-256h288v-210.56H128V512z m320-512v122.56a16 16 0 0 1-32 0V0h-176v160a16 16 0 0 1-32 0v-160H320v122.56a16 16 0 0 1-32 0V0H128v269.12h768V0z"  horiz-adv-x="1024" />

    
    <glyph glyph-name="Vue-measure-GroundDistance" unicode="&#58923;" d="M352 241.60000000000002V781.76a17.92 17.92 0 0 1-18.24 18.24H114.56a17.92 17.92 0 0 1-18.56-18.24v-795.52a18.24 18.24 0 0 1 18.24-18.24h474.88a17.92 17.92 0 0 1 17.92 18.24v219.2a17.92 17.92 0 0 1-17.92 18.24h-224c-10.88 0.32-13.12 8-13.12 17.92zM576 0H128V768h192v-160H224v-32h96v-96H224v-32h96v-96H224v-32h96v-96H224v-32h96v-96h32v96h96v-96h32v96h96zM485.44 384a14.72 14.72 0 0 0-9.6 3.52 15.04 15.04 0 0 0-1.92 21.12l239.04 281.6a15.04 15.04 0 0 0 10.56 5.44 14.72 14.72 0 0 0 12.48-4.48l188.48-185.92a15.04 15.04 0 0 0-21.12-21.44l-178.24 175.04-228.48-269.76a15.36 15.36 0 0 0-11.2-5.12z"  horiz-adv-x="1024" />

    
    <glyph glyph-name="Vue-sightline" unicode="&#58915;" d="M896 560a16 16 0 0 1-16 16h-128a16 16 0 0 1-16-16V480h-48a16 16 0 0 1-16-16V320h-64v134.4l224 224a64 64 0 0 1 32-9.6 64 64 0 1 1-60.8 83.52 61.76 61.76 0 0 1 5.44-50.88L608 499.52V784a16 16 0 0 1-16 16h-192a16 16 0 0 1-16-16V352h-32v217.28a15.68 15.68 0 0 1-4.8 11.52L256 672 164.8 580.8a15.68 15.68 0 0 1-4.8-11.52V320H128v-232.96A64 64 0 0 1 96 32a64 64 0 0 1 64-64 64 64 0 0 1 55.04 32H912a16 16 0 0 1 16 16V352h-32zM160 288h32v274.24l64 64 64-64V320h96V768h160v-300.48L194.24 85.75999999999999A64 64 0 0 1 160 96z m736-256H224a64 64 0 0 1-8 30.4L576 422.4V288h128v160h64v96h96v-224h32z"  horiz-adv-x="1024" />

    
    <glyph glyph-name="Vue-measure" unicode="&#58913;" d="M96 560v-320a16 16 0 0 1 16-16h800a16 16 0 0 1 16 16v320a16 16 0 0 1-16 16h-800a16 16 0 0 1-16-16zM896 256H128v288h128v-160h32v160h208v-192h32v192H736v-160h32v160h128z"  horiz-adv-x="1024" />

    
    <glyph glyph-name="Vue-viewshed" unicode="&#58912;" d="M928 576l-12.16 12.48a665.92 665.92 0 0 1-345.28 192c-124.16 23.68-269.44 5.44-431.36-54.08L128 724.16v-637.12A64 64 0 0 1 96 32a64 64 0 0 1 128-13.12l704 217.28V576z m-32-24.64V448c-19.84 20.48-40.32 39.68-60.8 56.96z m-86.72-26.24A576 576 0 0 1 576 635.52v112a632.96 632.96 0 0 0 303.68-168.32z m-265.28 0a704 704 0 0 1-192 5.12V608a644.16 644.16 0 0 0 192 0z m-224 0A704 704 0 0 1 160 480v78.4a1048.64 1048.64 0 0 0 160 44.16z m-51.52-457.6l454.4 352A539.52 539.52 0 0 0 864 252.79999999999995z m-54.4-1.6A64 64 0 0 1 160 96V446.4a673.92 673.92 0 0 0 381.44 45.76 381.44 381.44 0 0 0 152.96-55.68zM576 517.76V602.56a539.52 539.52 0 0 0 207.04-97.6l-62.08-48a413.76 413.76 0 0 1-144.96 60.8z m-32 235.84V640a677.76 677.76 0 0 1-192 0V751.36a646.4 646.4 0 0 0 192 2.24z m-224-7.36v-111.36A1056 1056 0 0 1 160 592V701.76a1100.48 1100.48 0 0 0 160 44.48z m576-485.12a587.84 587.84 0 0 1-147.2 176.64l60.16 46.72A803.52 803.52 0 0 0 896 401.92v-140.8z"  horiz-adv-x="1024" />

    


  </font>
</defs>
</svg>
