<svg xmlns="http://www.w3.org/2000/svg" xmlns:xlink="http://www.w3.org/1999/xlink" fill="none" version="1.1" width="20" height="20" viewBox="0 0 20 20"><defs><clipPath id="master_svg0_467_91882"><rect x="0" y="0" width="20" height="20" rx="0"/></clipPath></defs><g clip-path="url(#master_svg0_467_91882)"><g><path d="M10.000000095367431,2.5L9.518750095367432,2.5C8.951120095367433,2.5383654,8.389410095367431,2.638969,7.843750095367431,2.8L8.025000095367432,3.425C8.665570095367432,3.230925,9.330700095367432,3.129893,10.000000095367431,3.125L10.000000095367431,2.5ZM5.9187500953674315,3.70625L5.625000095367431,3.90625L5.4500000953674315,3.90625C5.056110095367432,4.23409,4.695980095367432,4.6005,4.375000095367431,5L4.281250095367431,5L4.7625000953674315,5.40625C5.200200095367432,4.94613,5.7010300953674315,4.55051,6.250000095367431,4.23125L5.906250095367431,3.70625L5.9187500953674315,3.70625ZM3.1250000953674317,6.9375L3.0500000953674316,7.11875L3.0187500953674316,7.11875C2.7987290953674315,7.68612,2.6476468953674317,8.27785,2.5687498953674317,8.88125L3.193750095367432,8.9625C3.2983490953674317,8.348469999999999,3.485459095367432,7.7514,3.7500000953674317,7.1875L3.1250000953674317,6.9375ZM3.1812500953674316,11.05625L2.5562500953674316,11.15C2.6591180953674316,11.87115,2.869806095367432,12.5727,3.1812500953674316,13.2312L3.7437500953674316,12.9625C3.4575110953674315,12.3695,3.2595810953674316,11.73781,3.1562500953674317,11.0875L3.1812500953674316,11.05625ZM4.843750095367431,14.5813L4.406250095367431,15C4.865560095367432,15.4832,5.386750095367431,15.9035,5.956250095367432,16.25L6.287500095367432,15.7188C5.716430095367432,15.3673,5.198670095367431,14.9358,4.750000095367431,14.4375L4.843750095367431,14.5813ZM8.162500095367431,16.6313L7.993750095367432,17.2563C8.523320095367431,17.396,9.06566009536743,17.4819,9.612500095367432,17.5125L10.162500095367431,17.5125L10.162500095367431,16.8875L10.000000095367431,16.8875C9.387600095367432,16.8885,8.777890095367432,16.8065,8.187500095367431,16.6438L8.162500095367431,16.6313ZM13.856250095367432,15.675C13.304050095367431,16.053800000000003,12.699850095367431,16.3506,12.062500095367431,16.5562L12.250000095367431,17.1812C12.548980095367432,17.086199999999998,12.841250095367432,16.9714,13.125050095367431,16.8375L14.012550095367432,16.8375L14.150050095367432,16.7437L13.799950095367432,16.225L13.856250095367432,15.675ZM16.31875009536743,12.6562C16.06855009536743,13.275,15.729550095367431,13.854,15.312550095367431,14.375L15.793750095367432,14.775C16.23945009536743,14.2237,16.60365009536743,13.6112,16.87505009536743,12.9563L16.87505009536743,12.8938L16.299950095367432,12.6562L16.31875009536743,12.6562ZM17.356250095367432,8.66875L16.731250095367432,8.775C16.81385009536743,9.17851,16.861950095367433,9.58833,16.87505009536743,10C16.876050095367432,10.258980000000001,16.86135009536743,10.51778,16.83125009536743,10.775L17.45625009536743,10.84375L17.45625009536743,10.55C17.45625009536743,10.31875,17.418750095367432,10.09375,17.387450095367434,9.86875L17.387450095367434,9.76875L17.356250095367432,8.66875ZM15.468750095367431,4.86875L15.000050095367431,5.29375C15.458850095367431,5.78336,15.844150095367432,6.33706,16.14375009536743,6.9375L16.699950095367434,6.65625L16.62495009536743,6.50625L16.56875009536743,6.50625C16.33725009536743,6.08492,16.065050095367432,5.6872,15.756250095367431,5.31875L15.625050095367431,5.31875L15.625050095367431,5L15.518750095367432,4.8875L15.468750095367431,4.86875ZM11.800000095367432,2.71875L11.650000095367432,3.34375C12.309630095367432,3.499633,12.941850095367432,3.75461,13.525050095367432,4.1L13.843750095367431,3.5625C13.21515009536743,3.189556,12.534880095367432,2.911553,11.825000095367432,2.7375L11.800000095367432,2.71875Z" fill="#FFFFFF" fill-opacity="0.8500000238418579"/></g></g></svg>