<svg xmlns="http://www.w3.org/2000/svg" xmlns:xlink="http://www.w3.org/1999/xlink" fill="none" version="1.1" width="24" height="24" viewBox="0 0 24 24"><defs><clipPath id="master_svg0_467_000453"><rect x="0" y="0" width="24" height="24" rx="0"/></clipPath></defs><g clip-path="url(#master_svg0_467_000453)"><g><path d="M12,11.25C12.4142,11.25,12.75,11.58579,12.75,12C12.75,12.4142,12.4142,12.75,12,12.75C11.58579,12.75,11.25,12.4142,11.25,12C11.25,11.58579,11.58579,11.25,12,11.25ZM12,9.75C10.7595,9.75,9.75,10.7595,9.75,12C9.75,13.2405,10.7595,14.25,12,14.25C13.2405,14.25,14.25,13.2405,14.25,12C14.25,10.7595,13.2405,9.75,12,9.75ZM12,8.2875C11.58579,8.2875,11.25,7.95171,11.25,7.5375L11.25,3C11.25,2.585786,11.58579,2.25,12,2.25C12.4142,2.25,12.75,2.585786,12.75,3L12.75,7.5375C12.75,7.95171,12.4142,8.2875,12,8.2875ZM9.375,9.375C9.08213,9.66779,8.60738,9.66779,8.314499999999999,9.375L5.106,6.1665C4.80439,5.8751999999999995,4.80021,5.3932,5.0967,5.0967C5.3932,4.80021,5.8751999999999995,4.80439,6.1665,5.106L9.375,8.313749999999999C9.668289999999999,8.60671,9.668289999999999,9.08204,9.375,9.375ZM8.2875,12C8.2875,12.4142,7.95171,12.75,7.5375,12.75L3,12.75C2.585786,12.75,2.25,12.4142,2.25,12C2.25,11.58579,2.585786,11.25,3,11.25L7.5375,11.25C7.95171,11.25,8.2875,11.58579,8.2875,12ZM9.375,14.625C9.66779,14.9179,9.66779,15.3926,9.375,15.6855L6.1665,18.894C5.8751999999999995,19.1956,5.393190000000001,19.1998,5.09668,18.9033C4.80017,18.6068,4.8043700000000005,18.1248,5.106,17.8335L8.314499999999999,14.625C8.60738,14.3322,9.08212,14.3322,9.375,14.625ZM12,15.7125C12.4142,15.7125,12.75,16.048299999999998,12.75,16.4625L12.75,21C12.75,21.4142,12.4142,21.75,12,21.75C11.58579,21.75,11.25,21.4142,11.25,21L11.25,16.4625C11.25,16.048299999999998,11.58579,15.7125,12,15.7125ZM14.625,14.625C14.9179,14.3322,15.3926,14.3322,15.6855,14.625L18.894,17.8335C19.1956,18.1248,19.1998,18.6068,18.9033,18.9033C18.6068,19.1998,18.1248,19.1956,17.8335,18.894L14.625,15.6855C14.3322,15.3926,14.3322,14.9179,14.625,14.625ZM15.7125,12C15.7125,11.58579,16.048299999999998,11.25,16.4625,11.25L21,11.25C21.4142,11.25,21.75,11.58579,21.75,12C21.75,12.4142,21.4142,12.75,21,12.75L16.4625,12.75C16.048299999999998,12.75,15.7125,12.4142,15.7125,12ZM14.625,9.375C14.3322,9.08212,14.3322,8.60738,14.625,8.314499999999999L17.8335,5.106C18.1248,4.80439,18.6068,4.8002,18.9033,5.0967C19.1998,5.3932,19.1956,5.8751999999999995,18.894,6.1665L15.6855,9.375C15.3926,9.66779,14.9179,9.66779,14.625,9.375Z" fill="#FFFFFF" fill-opacity="0.8500000238418579"/></g><g><path d="M15.75,4.5Q15.75,4.573869,15.73559,4.646318Q15.72118,4.718767,15.69291,4.78701Q15.66464,4.8552599999999995,15.6236,4.9166799999999995Q15.58256,4.9780999999999995,15.53033,5.03033Q15.4781,5.08256,15.41668,5.1236Q15.35526,5.16464,15.28701,5.1929099999999995Q15.218767,5.22118,15.146318,5.23559Q15.073869,5.25,15,5.25Q14.926131,5.25,14.853682,5.23559Q14.781233,5.22118,14.712987,5.1929099999999995Q14.644742,5.16464,14.583322,5.1236Q14.521903,5.08256,14.46967,5.03033Q14.417437,4.9780999999999995,14.376398,4.9166799999999995Q14.3353586,4.8552599999999995,14.3070903,4.78701Q14.2788221,4.718767,14.264411,4.646318Q14.25,4.573869,14.25,4.5Q14.25,4.426131,14.264411,4.353682Q14.2788221,4.281233,14.3070903,4.212987Q14.3353586,4.144742,14.376398,4.083322Q14.417437,4.021903,14.46967,3.96967Q14.521903,3.917437,14.583322,3.876398Q14.644742,3.8353586,14.712987,3.8070903Q14.781233,3.7788221,14.853682,3.764411Q14.926131,3.75,15,3.75Q15.073869,3.75,15.146318,3.764411Q15.218767,3.7788221,15.28701,3.8070903Q15.35526,3.8353586,15.41668,3.876398Q15.4781,3.917437,15.53033,3.96967Q15.58256,4.021903,15.6236,4.083322Q15.66464,4.144742,15.69291,4.212987Q15.72118,4.281233,15.73559,4.353682Q15.75,4.426131,15.75,4.5Z" fill="#FFFFFF" fill-opacity="0.8500000238418579"/></g><g><path d="M9.567749977111816,4.57574987411499Q9.567749977111816,4.64961887411499,9.553339977111817,4.72206787411499Q9.538929977111817,4.79451687411499,9.510659977111816,4.862759874114991Q9.482389977111817,4.93100987411499,9.441349977111816,4.99242987411499Q9.400309977111817,5.05384987411499,9.348079977111816,5.10607987411499Q9.295849977111816,5.15830987411499,9.234429977111816,5.19934987411499Q9.173009977111816,5.240389874114991,9.104759977111817,5.26865987411499Q9.036516977111816,5.296929874114991,8.964067977111817,5.31133987411499Q8.891618977111817,5.32574987411499,8.817749977111816,5.32574987411499Q8.743880977111816,5.32574987411499,8.671431977111816,5.31133987411499Q8.598982977111817,5.296929874114991,8.530736977111816,5.26865987411499Q8.462491977111817,5.240389874114991,8.401071977111817,5.19934987411499Q8.339652977111816,5.15830987411499,8.287419977111817,5.10607987411499Q8.235186977111816,5.05384987411499,8.194147977111816,4.99242987411499Q8.153108577111816,4.93100987411499,8.124840277111817,4.862759874114991Q8.096572077111816,4.79451687411499,8.082160977111817,4.72206787411499Q8.067749977111816,4.64961887411499,8.067749977111816,4.57574987411499Q8.067749977111816,4.50188087411499,8.082160977111817,4.42943187411499Q8.096572077111816,4.3569828741149905,8.124840277111817,4.28873687411499Q8.153108577111816,4.22049187411499,8.194147977111816,4.15907187411499Q8.235186977111816,4.09765287411499,8.287419977111817,4.04541987411499Q8.339652977111816,3.9931868741149903,8.401071977111817,3.9521478741149902Q8.462491977111817,3.9111084741149904,8.530736977111816,3.8828401741149903Q8.598982977111817,3.8545719741149904,8.671431977111816,3.84016087411499Q8.743880977111816,3.8257498741149902,8.817749977111816,3.8257498741149902Q8.891618977111817,3.8257498741149902,8.964067977111817,3.84016087411499Q9.036516977111816,3.8545719741149904,9.104759977111817,3.8828401741149903Q9.173009977111816,3.9111084741149904,9.234429977111816,3.9521478741149902Q9.295849977111816,3.9931868741149903,9.348079977111816,4.04541987411499Q9.400309977111817,4.09765287411499,9.441349977111816,4.15907187411499Q9.482389977111817,4.22049187411499,9.510659977111816,4.28873687411499Q9.538929977111817,4.3569828741149905,9.553339977111817,4.42943187411499Q9.567749977111816,4.50188087411499,9.567749977111816,4.57574987411499Z" fill="#FFFFFF" fill-opacity="0.8500000238418579"/></g><g><path d="M5.25,9Q5.25,9.073869,5.23559,9.146318Q5.22118,9.218767,5.1929099999999995,9.28701Q5.16464,9.35526,5.1236,9.41668Q5.08256,9.4781,5.03033,9.53033Q4.9780999999999995,9.58256,4.9166799999999995,9.6236Q4.8552599999999995,9.66464,4.78701,9.69291Q4.718767,9.72118,4.646318,9.73559Q4.573869,9.75,4.5,9.75Q4.426131,9.75,4.353682,9.73559Q4.281233,9.72118,4.212987,9.69291Q4.144742,9.66464,4.083322,9.6236Q4.021903,9.58256,3.96967,9.53033Q3.917437,9.4781,3.876398,9.41668Q3.8353586,9.35526,3.8070903,9.28701Q3.7788221,9.218767,3.764411,9.146318Q3.75,9.073869,3.75,9Q3.75,8.926131,3.764411,8.853682Q3.7788221,8.781233,3.8070903,8.712987Q3.8353586,8.644742,3.876398,8.583322Q3.917437,8.521903,3.96967,8.46967Q4.021903,8.417437,4.083322,8.376398Q4.144742,8.3353586,4.212987,8.3070903Q4.281233,8.2788221,4.353682,8.264411Q4.426131,8.25,4.5,8.25Q4.573869,8.25,4.646318,8.264411Q4.718767,8.2788221,4.78701,8.3070903Q4.8552599999999995,8.3353586,4.9166799999999995,8.376398Q4.9780999999999995,8.417437,5.03033,8.46967Q5.08256,8.521903,5.1236,8.583322Q5.16464,8.644742,5.1929099999999995,8.712987Q5.22118,8.781233,5.23559,8.853682Q5.25,8.926131,5.25,9Z" fill="#FFFFFF" fill-opacity="0.8500000238418579"/></g><g><path d="M5.32574987411499,15.182250022888184Q5.32574987411499,15.256119022888184,5.31133987411499,15.328568022888184Q5.296929874114991,15.401017022888183,5.26865987411499,15.469260022888184Q5.240389874114991,15.537510022888183,5.19934987411499,15.598930022888183Q5.15830987411499,15.660350022888183,5.10607987411499,15.712580022888183Q5.05384987411499,15.764810022888184,4.99242987411499,15.805850022888183Q4.93100987411499,15.846890022888184,4.862759874114991,15.875160022888183Q4.79451687411499,15.903430022888184,4.72206787411499,15.917840022888184Q4.64961887411499,15.932250022888184,4.57574987411499,15.932250022888184Q4.50188087411499,15.932250022888184,4.42943187411499,15.917840022888184Q4.3569828741149905,15.903430022888184,4.28873687411499,15.875160022888183Q4.22049187411499,15.846890022888184,4.15907187411499,15.805850022888183Q4.09765287411499,15.764810022888184,4.04541987411499,15.712580022888183Q3.9931868741149903,15.660350022888183,3.9521478741149902,15.598930022888183Q3.9111084741149904,15.537510022888183,3.8828401741149903,15.469260022888184Q3.8545719741149904,15.401017022888183,3.84016087411499,15.328568022888184Q3.8257498741149902,15.256119022888184,3.8257498741149902,15.182250022888184Q3.8257498741149902,15.108381022888183,3.84016087411499,15.035932022888183Q3.8545719741149904,14.963483022888184,3.8828401741149903,14.895237022888184Q3.9111084741149904,14.826992022888184,3.9521478741149902,14.765572022888184Q3.9931868741149903,14.704153022888184,4.04541987411499,14.651920022888184Q4.09765287411499,14.599687022888183,4.15907187411499,14.558648022888184Q4.22049187411499,14.517608622888183,4.28873687411499,14.489340322888184Q4.3569828741149905,14.461072122888183,4.42943187411499,14.446661022888184Q4.50188087411499,14.432250022888184,4.57574987411499,14.432250022888184Q4.64961887411499,14.432250022888184,4.72206787411499,14.446661022888184Q4.79451687411499,14.461072122888183,4.862759874114991,14.489340322888184Q4.93100987411499,14.517608622888183,4.99242987411499,14.558648022888184Q5.05384987411499,14.599687022888183,5.10607987411499,14.651920022888184Q5.15830987411499,14.704153022888184,5.19934987411499,14.765572022888184Q5.240389874114991,14.826992022888184,5.26865987411499,14.895237022888184Q5.296929874114991,14.963483022888184,5.31133987411499,15.035932022888183Q5.32574987411499,15.108381022888183,5.32574987411499,15.182250022888184Z" fill="#FFFFFF" fill-opacity="0.8500000238418579"/></g><g><path d="M9.75,19.5Q9.75,19.573869,9.73559,19.646318Q9.72118,19.718767,9.69291,19.78701Q9.66464,19.85526,9.6236,19.91668Q9.58256,19.9781,9.53033,20.03033Q9.4781,20.08256,9.41668,20.1236Q9.35526,20.16464,9.28701,20.19291Q9.218767,20.22118,9.146318,20.23559Q9.073869,20.25,9,20.25Q8.926131,20.25,8.853682,20.23559Q8.781233,20.22118,8.712987,20.19291Q8.644742,20.16464,8.583322,20.1236Q8.521903,20.08256,8.46967,20.03033Q8.417437,19.9781,8.376398,19.91668Q8.3353586,19.85526,8.3070903,19.78701Q8.2788221,19.718767,8.264411,19.646318Q8.25,19.573869,8.25,19.5Q8.25,19.426131,8.264411,19.353682Q8.2788221,19.281233,8.3070903,19.212987Q8.3353586,19.144742,8.376398,19.083322Q8.417437,19.021903000000002,8.46967,18.96967Q8.521903,18.917437,8.583322,18.876398000000002Q8.644742,18.8353586,8.712987,18.8070903Q8.781233,18.7788221,8.853682,18.764411Q8.926131,18.75,9,18.75Q9.073869,18.75,9.146318,18.764411Q9.218767,18.7788221,9.28701,18.8070903Q9.35526,18.8353586,9.41668,18.876398000000002Q9.4781,18.917437,9.53033,18.96967Q9.58256,19.021903000000002,9.6236,19.083322Q9.66464,19.144742,9.69291,19.212987Q9.72118,19.281233,9.73559,19.353682Q9.75,19.426131,9.75,19.5Z" fill="#FFFFFF" fill-opacity="0.8500000238418579"/></g><g><path d="M15.932250022888184,19.42424964904785Q15.932250022888184,19.49811864904785,15.917840022888184,19.570567649047852Q15.903430022888184,19.64301664904785,15.875160022888183,19.71125964904785Q15.846890022888184,19.779509649047853,15.805850022888183,19.84092964904785Q15.764810022888184,19.902349649047853,15.712580022888183,19.95457964904785Q15.660350022888183,20.006809649047852,15.598930022888183,20.04784964904785Q15.537510022888183,20.08888964904785,15.469260022888184,20.117159649047853Q15.401017022888183,20.145429649047852,15.328568022888184,20.15983964904785Q15.256119022888184,20.17424964904785,15.182250022888184,20.17424964904785Q15.108381022888183,20.17424964904785,15.035932022888183,20.15983964904785Q14.963483022888184,20.145429649047852,14.895237022888184,20.117159649047853Q14.826992022888184,20.08888964904785,14.765572022888184,20.04784964904785Q14.704153022888184,20.006809649047852,14.651920022888184,19.95457964904785Q14.599687022888183,19.902349649047853,14.558648022888184,19.84092964904785Q14.517608622888183,19.779509649047853,14.489340322888184,19.71125964904785Q14.461072122888183,19.64301664904785,14.446661022888184,19.570567649047852Q14.432250022888184,19.49811864904785,14.432250022888184,19.42424964904785Q14.432250022888184,19.350380649047853,14.446661022888184,19.27793164904785Q14.461072122888183,19.205482649047852,14.489340322888184,19.13723664904785Q14.517608622888183,19.068991649047852,14.558648022888184,19.00757164904785Q14.599687022888183,18.946152649047853,14.651920022888184,18.893919649047852Q14.704153022888184,18.84168664904785,14.765572022888184,18.800647649047853Q14.826992022888184,18.75960824904785,14.895237022888184,18.73133994904785Q14.963483022888184,18.70307174904785,15.035932022888183,18.68866064904785Q15.108381022888183,18.67424964904785,15.182250022888184,18.67424964904785Q15.256119022888184,18.67424964904785,15.328568022888184,18.68866064904785Q15.401017022888183,18.70307174904785,15.469260022888184,18.73133994904785Q15.537510022888183,18.75960824904785,15.598930022888183,18.800647649047853Q15.660350022888183,18.84168664904785,15.712580022888183,18.893919649047852Q15.764810022888184,18.946152649047853,15.805850022888183,19.00757164904785Q15.846890022888184,19.068991649047852,15.875160022888183,19.13723664904785Q15.903430022888184,19.205482649047852,15.917840022888184,19.27793164904785Q15.932250022888184,19.350380649047853,15.932250022888184,19.42424964904785Z" fill="#FFFFFF" fill-opacity="0.8500000238418579"/></g><g><path d="M20.25,15Q20.25,15.073869,20.23559,15.146318Q20.22118,15.218767,20.19291,15.28701Q20.16464,15.35526,20.1236,15.41668Q20.08256,15.4781,20.03033,15.53033Q19.9781,15.58256,19.91668,15.6236Q19.85526,15.66464,19.78701,15.69291Q19.718767,15.72118,19.646318,15.73559Q19.573869,15.75,19.5,15.75Q19.426131,15.75,19.353682,15.73559Q19.281233,15.72118,19.212987,15.69291Q19.144742,15.66464,19.083322,15.6236Q19.021903000000002,15.58256,18.96967,15.53033Q18.917437,15.4781,18.876398000000002,15.41668Q18.8353586,15.35526,18.8070903,15.28701Q18.7788221,15.218767,18.764411,15.146318Q18.75,15.073869,18.75,15Q18.75,14.926131,18.764411,14.853682Q18.7788221,14.781233,18.8070903,14.712987Q18.8353586,14.644742,18.876398000000002,14.583322Q18.917437,14.521903,18.96967,14.46967Q19.021903000000002,14.417437,19.083322,14.376398Q19.144742,14.3353586,19.212987,14.3070903Q19.281233,14.2788221,19.353682,14.264411Q19.426131,14.25,19.5,14.25Q19.573869,14.25,19.646318,14.264411Q19.718767,14.2788221,19.78701,14.3070903Q19.85526,14.3353586,19.91668,14.376398Q19.9781,14.417437,20.03033,14.46967Q20.08256,14.521903,20.1236,14.583322Q20.16464,14.644742,20.19291,14.712987Q20.22118,14.781233,20.23559,14.853682Q20.25,14.926131,20.25,15Z" fill="#FFFFFF" fill-opacity="0.8500000238418579"/></g><g><path d="M20.17424964904785,8.817749977111816Q20.17424964904785,8.891618977111817,20.15983964904785,8.964067977111817Q20.145429649047852,9.036516977111816,20.117159649047853,9.104759977111817Q20.08888964904785,9.173009977111816,20.04784964904785,9.234429977111816Q20.006809649047852,9.295849977111816,19.95457964904785,9.348079977111816Q19.902349649047853,9.400309977111817,19.84092964904785,9.441349977111816Q19.779509649047853,9.482389977111817,19.71125964904785,9.510659977111816Q19.64301664904785,9.538929977111817,19.570567649047852,9.553339977111817Q19.49811864904785,9.567749977111816,19.42424964904785,9.567749977111816Q19.350380649047853,9.567749977111816,19.27793164904785,9.553339977111817Q19.205482649047852,9.538929977111817,19.13723664904785,9.510659977111816Q19.068991649047852,9.482389977111817,19.00757164904785,9.441349977111816Q18.946152649047853,9.400309977111817,18.893919649047852,9.348079977111816Q18.84168664904785,9.295849977111816,18.800647649047853,9.234429977111816Q18.75960824904785,9.173009977111816,18.73133994904785,9.104759977111817Q18.70307174904785,9.036516977111816,18.68866064904785,8.964067977111817Q18.67424964904785,8.891618977111817,18.67424964904785,8.817749977111816Q18.67424964904785,8.743880977111816,18.68866064904785,8.671431977111816Q18.70307174904785,8.598982977111817,18.73133994904785,8.530736977111816Q18.75960824904785,8.462491977111817,18.800647649047853,8.401071977111817Q18.84168664904785,8.339652977111816,18.893919649047852,8.287419977111817Q18.946152649047853,8.235186977111816,19.00757164904785,8.194147977111816Q19.068991649047852,8.153108577111816,19.13723664904785,8.124840277111817Q19.205482649047852,8.096572077111816,19.27793164904785,8.082160977111817Q19.350380649047853,8.067749977111816,19.42424964904785,8.067749977111816Q19.49811864904785,8.067749977111816,19.570567649047852,8.082160977111817Q19.64301664904785,8.096572077111816,19.71125964904785,8.124840277111817Q19.779509649047853,8.153108577111816,19.84092964904785,8.194147977111816Q19.902349649047853,8.235186977111816,19.95457964904785,8.287419977111817Q20.006809649047852,8.339652977111816,20.04784964904785,8.401071977111817Q20.08888964904785,8.462491977111817,20.117159649047853,8.530736977111816Q20.145429649047852,8.598982977111817,20.15983964904785,8.671431977111816Q20.17424964904785,8.743880977111816,20.17424964904785,8.817749977111816Z" fill="#FFFFFF" fill-opacity="0.8500000238418579"/></g></g></svg>