<svg xmlns="http://www.w3.org/2000/svg" xmlns:xlink="http://www.w3.org/1999/xlink" fill="none" version="1.1" width="20" height="20" viewBox="0 0 20 20"><defs><clipPath id="master_svg0_467_91870"><rect x="0" y="0" width="20" height="20" rx="0"/></clipPath></defs><g clip-path="url(#master_svg0_467_91870)"><g><path d="M17.5,2.5L10.625,2.5C7.84208,2.50345874,5.48,4.54139,5.06875,7.29375C4.75235,7.87738,4.5408100000000005,8.512,4.44375,9.16875C2.92274,11.94467,3.99078,15.4285,6.80625,16.875L2.5,16.875L2.5,17.5L9.375,17.5C12.15792,17.496499999999997,14.52,15.4586,14.9312,12.7063C15.2477,12.12262,15.4592,11.488,15.5562,10.83125C17.0773,8.05533,16.0092,4.57149,13.1938,3.125L17.5,3.125L17.5,2.5ZM14.9563,10.625C14.9336,10.66801,14.9085,10.70974,14.8813,10.75C14.4812,8.77592,13.0561,7.16644,11.14496,6.53026C9.23384,5.89409,7.12844,6.32832,5.625,7.66875C5.622,7.61879,5.622,7.5687,5.625,7.51875C6.73408,5.51346,9.06438,4.518800000000001,11.27966,5.10511C13.4949,5.69142,15.0281,7.70862,15,10C14.9989,10.209060000000001,14.9843,10.41783,14.9563,10.625ZM5.04375,9.375C5.06644,9.331990000000001,5.09147,9.29026,5.11875,9.25C5.5188500000000005,11.22408,6.94393,12.8336,8.855039999999999,13.4697C10.76616,14.1059,12.8716,13.6717,14.375,12.33125C14.378,12.3812,14.378,12.4313,14.375,12.48125C13.2659,14.4865,10.93562,15.4812,8.72034,14.8949C6.50506,14.3086,4.9719,12.29138,5,10C5.001110000000001,9.790939999999999,5.01573,9.582180000000001,5.04375,9.375ZM5.66875,8.5375C6.99913,7.05193,9.08506,6.49896,10.97665,7.1304C12.8682,7.76184,14.2037,9.45692,14.375,11.44375C13.0525,12.9582,10.95138,13.5332,9.041979999999999,12.9031C7.13259,12.27299,5.786379999999999,10.56044,5.625,8.55625L5.66875,8.5375ZM9.375,16.875C6.61358,16.875,4.375,14.6364,4.375,11.875C4.37533,11.56875,4.40463,11.26323,4.4625,10.9625C4.82435,12.9911,6.26645,14.6594,8.221309999999999,15.3111C10.176169999999999,15.9627,12.33087,15.4933,13.8375,14.0875C12.9987,15.7875,11.27065,16.8669,9.375,16.875ZM15.625,8.125C15.6247,8.431239999999999,15.5954,8.73677,15.5375,9.0375C15.1756,7.00891,13.7336,5.34055,11.77869,4.68893C9.823830000000001,4.03731,7.66913,4.506740000000001,6.1625,5.9125C7.20292,3.85338,9.517109999999999,2.77344,11.76356,3.298699C14.01,3.82396,15.6054,5.81804,15.625,8.125Z" fill="#FFFFFF" fill-opacity="0.8500000238418579"/></g></g></svg>