<svg xmlns="http://www.w3.org/2000/svg" xmlns:xlink="http://www.w3.org/1999/xlink" fill="none" version="1.1" width="20" height="20" viewBox="0 0 20 20"><defs><clipPath id="master_svg0_467_91876"><rect x="0" y="0" width="20" height="20" rx="0"/></clipPath></defs><g clip-path="url(#master_svg0_467_91876)"><g><path d="M17.18750023841858,9.375C17.36010023841858,9.375,17.50000023841858,9.514911,17.50000023841858,9.6875C17.50000023841858,9.86009,17.36010023841858,10,17.18750023841858,10L2.812500238418579,10C2.639911238418579,10,2.500000238418579,9.86009,2.500000238418579,9.6875C2.500000238418579,9.514911,2.639911238418579,9.375,2.812500238418579,9.375L17.18750023841858,9.375ZM17.18750023841858,8.75L2.812500238418579,8.75C2.294733238418579,8.750000953674,1.875000238418579,9.169734,1.875000238418579,9.687501C1.875000238418579,10.20527,2.294733238418579,10.625,2.812500238418579,10.625L17.18750023841858,10.625C17.70530023841858,10.625,18.12500023841858,10.20527,18.12500023841858,9.6875C18.12500023841858,9.169733,17.70530023841858,8.750000953674,17.18750023841858,8.75Z" fill="#FFFFFF" fill-opacity="0.8500000238418579"/></g></g></svg>