<svg xmlns="http://www.w3.org/2000/svg" xmlns:xlink="http://www.w3.org/1999/xlink" fill="none" version="1.1" width="20" height="20" viewBox="0 0 20 20"><defs><clipPath id="master_svg0_467_92851"><rect x="0" y="0" width="20" height="20" rx="0"/></clipPath></defs><g clip-path="url(#master_svg0_467_92851)"><g><path d="M0,6.25L5.625,6.25L5.625,0.625L0,0.625L0,6.25ZM0.625,1.25L5,1.25L5,5.625L0.625,5.625L0.625,1.25ZM6.875,6.25L12.5,6.25L12.5,0.625L6.875,0.625L6.875,6.25ZM7.5,1.25L11.875,1.25L11.875,5.625L7.5,5.625L7.5,1.25ZM13.75,0.625L13.75,6.25L19.375,6.25L19.375,0.625L13.75,0.625ZM18.75,5.625L14.375,5.625L14.375,1.25L18.75,1.25L18.75,5.625ZM0,13.125L5.625,13.125L5.625,7.5L0,7.5L0,13.125ZM0.625,8.125L5,8.125L5,12.5L0.625,12.5L0.625,8.125ZM6.875,13.125L12.5,13.125L12.5,7.5L6.875,7.5L6.875,13.125ZM7.5,8.125L11.875,8.125L11.875,12.5L7.5,12.5L7.5,8.125ZM13.75,13.125L19.375,13.125L19.375,7.5L13.75,7.5L13.75,13.125ZM14.375,8.125L18.75,8.125L18.75,12.5L14.375,12.5L14.375,8.125ZM0,20L5.625,20L5.625,14.375L0,14.375L0,20ZM0.625,15L5,15L5,19.375L0.625,19.375L0.625,15ZM6.875,20L12.5,20L12.5,14.375L6.875,14.375L6.875,20ZM7.5,15L11.875,15L11.875,19.375L7.5,19.375L7.5,15ZM13.75,20L19.375,20L19.375,14.375L13.75,14.375L13.75,20ZM14.375,15L18.75,15L18.75,19.375L14.375,19.375L14.375,15Z" fill="#FFFFFF" fill-opacity="0.8500000238418579"/></g></g></svg>