<svg xmlns="http://www.w3.org/2000/svg" xmlns:xlink="http://www.w3.org/1999/xlink" fill="none" version="1.1" width="24" height="24" viewBox="0 0 24 24"><defs><clipPath id="master_svg0_471_77456"><rect x="0" y="0" width="24" height="24" rx="0"/></clipPath></defs><g clip-path="url(#master_svg0_471_77456)"><g><path d="M11.25,4.469250000000001C13.9177,7.48425,17.25,11.99475,17.25,14.25C17.25,17.5583,14.5583,20.25,11.25,20.25C7.94175,20.25,5.25,17.5583,5.25,14.25C5.25,11.99475,8.58225,7.485,11.25,4.469250000000001ZM11.25,2.25Q3.75,10.10775,3.75,14.25C3.75,18.3923,7.107749999999999,21.75,11.25,21.75C15.3923,21.75,18.75,18.3923,18.75,14.25Q18.75,10.10775,11.25,2.25Z" fill="#FFFFFF" fill-opacity="0.8500000238418579"/></g><g><path d="M11.24925074206543,18.740249016418456C10.859421742065429,18.737679016418458,10.53655914206543,18.436889016418455,10.50643539206543,18.048219016418457C10.47631164206543,17.659549016418456,10.74897274206543,17.312609016418456,11.13374974206543,17.249999016418457C12.64957374206543,17.05344901641846,13.89124374206543,15.950369016418456,14.26500374206543,14.468250016418457C14.34900374206543,14.063251016418457,14.73825374206543,13.805250216418457,15.14775374206543,13.883250216418457C15.55274374206543,13.965750716418457,15.81524374206543,14.355750016418456,15.73575374206543,14.760000016418457C15.70875374206543,14.897999016418456,15.032253742065429,18.15524901641846,11.36624874206543,18.732749016418456C11.32750774206543,18.73840901641846,11.28839974206543,18.741169016418457,11.24924974206543,18.740999016418456L11.24925074206543,18.740249016418456Z" fill="#FFFFFF" fill-opacity="0.8500000238418579"/></g></g></svg>