<svg xmlns="http://www.w3.org/2000/svg" xmlns:xlink="http://www.w3.org/1999/xlink" fill="none" version="1.1" width="24" height="24" viewBox="0 0 24 24"><defs><clipPath id="master_svg0_471_77466"><rect x="0" y="0" width="24" height="24" rx="0"/></clipPath></defs><g clip-path="url(#master_svg0_471_77466)"><g><path d="M10.120499096298218,21.756794369888304C10.080799096298218,21.756794369888304,10.041169096298217,21.753494369888305,10.001999096298217,21.746994369888306C6.626999096298218,21.206994369888307,4.4805000962982175,18.167294369888303,3.9120000962982178,15.572994369888306C3.3930000962982176,13.196994369888305,4.110000096298218,11.090254369888306,5.831999096298217,9.939004369888305C10.443749096298218,6.854254369888306,10.013999096298217,3.1695003698883055,10.009499096298217,3.1320003698883054C9.973429096298219,2.864129369888306,10.084569096298218,2.597617369888306,10.300279096298219,2.434749369888306C10.515989096298217,2.2718806698883056,10.802749096298218,2.237957969888306,11.050499096298218,2.3459999698883056C14.409049096298217,3.8017543698883056,15.237049096298218,6.748504369888305,15.186049096298218,8.961004369888306L16.246549096298217,8.271754369888306C16.57964909629822,8.055854369888305,17.02334909629822,8.136704369888307,17.25904909629822,8.456254369888306C20.010749096298216,12.197254369888306,20.871749096298217,15.323294369888306,19.818049096298218,17.745794369888305C18.33904909629822,21.147794369888306,13.688999096298218,21.728294369888307,13.491749096298218,21.750794369888304C13.189229096298218,21.786394369888306,12.895229096298218,21.635394369888306,12.747799096298218,21.368894369888306C12.600369096298218,21.102294369888305,12.628809096298218,20.773094369888305,12.819749096298217,20.535794369888304C14.600249096298217,18.318794369888305,13.974749096298218,17.266494369888306,13.034249096298218,16.459494369888304C12.143999096298218,15.697494369888306,11.563499096298218,14.483994369888306,11.242499096298218,13.641794369888306C9.924749096298218,14.525294369888305,9.186749096298218,15.521294369888306,9.043499096298218,16.609494369888306C8.774999096298217,18.649494369888306,10.621499096298217,20.447994369888306,10.640249096298218,20.465294369888305C10.860679096298217,20.677494369888304,10.930189096298218,21.002394369888307,10.815939096298218,21.286294369888306C10.701679096298218,21.570194369888306,10.426539096298217,21.756294369888305,10.120499096298218,21.756794369888304ZM11.660249096298218,11.762254369888305C12.002989096298219,11.762354369888305,12.302239096298218,11.994354369888306,12.387749096298219,12.326294369888306C12.534749096298217,12.898494369888306,13.113749096298218,14.552294369888306,14.010749096298218,15.321794369888305C15.494249096298217,16.592994369888306,15.835549096298218,18.107994369888306,15.033749096298218,19.841294369888306C16.261549096298218,19.421994369888306,17.80504909629822,18.619494369888304,18.444749096298217,17.141994369888305C19.217249096298218,15.356994369888305,18.549749096298218,12.929994369888306,16.46174909629822,9.920254369888305L14.637749096298219,11.104504369888305C14.377049096298217,11.273874369888306,14.038849096298218,11.264824369888306,13.787549096298218,11.081764369888306C13.536269096298218,10.898714369888305,13.423979096298218,10.579594369888305,13.505249096298218,10.279504369888306C13.550249096298218,10.107004369888305,14.496749096298219,6.3307543698883055,11.462999096298217,4.272004369888306C11.247749096298218,5.904004369888305,10.315499096298218,8.743504369888306,6.665999096298218,11.185504369888307C4.9522490962982175,12.332994369888306,5.194499096298218,14.410494369888305,5.378249096298218,15.251994369888306C5.706749096298218,16.751294369888306,6.670499096298218,18.364494369888305,8.072999096298219,19.359794369888306C7.683749096298218,18.527294369888306,7.412999096298218,17.511794369888307,7.556999096298218,16.414494369888306C7.791749096298218,14.627994369888306,9.050999096298217,13.094294369888306,11.299499096298216,11.854504369888305C11.409859096298216,11.794034369888305,11.533659096298218,11.762314369888305,11.659499096298218,11.762254369888305L11.660249096298218,11.762254369888305Z" fill="#FFFFFF" fill-opacity="0.8500000238418579"/></g></g></svg>