<svg xmlns="http://www.w3.org/2000/svg" xmlns:xlink="http://www.w3.org/1999/xlink" fill="none" version="1.1" width="24" height="24" viewBox="0 0 24 24"><defs><clipPath id="master_svg0_463_68977"><rect x="0" y="0" width="24" height="24" rx="0"/></clipPath></defs><g clip-path="url(#master_svg0_463_68977)"><g><path d="M1.496337890625,12C1.496337890625,6.19959,6.199557890625,1.49799776,11.999937890625,1.5C17.797537890625,1.50200176,22.496337890625,6.20242,22.496337890625,12C22.496337890625,17.7976,17.797537890625,22.498,11.999937890625,22.5C6.199557890625,22.502,1.496337890625,17.8004,1.496337890625,12ZM20.999937890625,12C20.999937890625,7.038,16.961937890625002,3,11.999937890625,3C7.037957890625,3,2.9999578906249997,7.038,2.9999578906249997,12C2.9999578906249997,16.962,7.037957890625,21,11.999937890625,21C16.961937890625002,21,20.999937890625,16.962,20.999937890625,12ZM8.999997890625,8.706C9.808497890625,7.965,10.876497890625,7.5225,12.022537890625,7.5225C14.490037890625,7.5225,16.500037890625002,9.531,16.500037890625002,12C16.500037890625002,14.469,14.493037890625,16.4775,12.021037890625,16.4775C10.918497890625,16.4775,9.857997890625,16.072499999999998,9.035997890625,15.3375C8.762617890625,15.0543,8.754077890625,14.6082,9.016407890625,14.3147C9.278747890624999,14.0213,9.723057890625,13.9799,10.034997890625,14.22C10.910977890625,15.0017,12.164237890625,15.1964,13.236137890625,14.7171C14.307937890625,14.2379,14.998537890625,13.1741,15.000037890625,12C15.000037890625,10.3575,13.665037890625,9.0225,12.021037890625,9.0225C10.974147890625,9.031970000000001,10.010197890625,9.5938,9.485997890625,10.5L11.249997890625,10.5C11.664237890625,10.5,12.000037890625,10.83579,12.000037890625,11.25C12.000037890625,11.6642,11.664237890625,12,11.249997890625,12L8.249997890625,12C7.835787890625,12,7.499997890625,11.6642,7.499997890625,11.25L7.499997890625,8.25C7.499997890625,7.83579,7.835787890625,7.5,8.249997890625,7.5C8.664217890625,7.5,8.999997890625,7.83579,8.999997890625,8.25L8.999997890625,8.706Z" fill-rule="evenodd" fill="#FFFFFF" fill-opacity="0.8500000238418579"/></g></g></svg>