<svg xmlns="http://www.w3.org/2000/svg" xmlns:xlink="http://www.w3.org/1999/xlink" fill="none" version="1.1" width="24" height="24" viewBox="0 0 24 24"><defs><clipPath id="master_svg0_463_63732"><rect x="0" y="0" width="24" height="24" rx="0"/></clipPath></defs><g clip-path="url(#master_svg0_463_63732)"><g><path d="M21.67503155593872,7.912503325958252C19.41753155593872,2.551743325958252,13.24173155593872,0.03603332595825193,7.88100155593872,2.293500325958252C2.520251555938721,4.550963325958252,0.004531555938720677,10.726743325958251,2.2619995559387207,16.08753332595825C4.519461555938721,21.448233325958252,10.69524155593872,23.96393332595825,16.05603155593872,21.70653332595825C21.41673155593872,19.44903332595825,23.93243155593872,13.273233325958252,21.67503155593872,7.912503325958252ZM18.16503155593872,18.16353332595825C14.111231555938721,22.21843332595825,7.3144615559387205,21.324233325958254,4.44740155593872,16.35883332595825C1.5803355559387207,11.393533325958252,4.2037715559387205,5.059993325958252,9.74212155593872,3.576273325958252C15.279631555938721,2.091927325958252,20.718031555938722,6.265723325958252,20.718031555938722,12.000033325958253C20.72373155593872,14.313933325958251,19.80333155593872,16.53393332595825,18.16203155593872,18.16503332595825L18.16503155593872,18.16353332595825ZM13.59303155593872,7.336503325958252L15.09303155593872,7.336503325958252L15.09303155593872,16.66353332595825L13.59303155593872,16.66353332595825L13.59303155593872,7.336503325958252ZM8.90400155593872,7.336503325958252L10.40400155593872,7.336503325958252L10.40400155593872,16.66353332595825L8.90400155593872,16.66353332595825L8.90400155593872,7.336503325958252Z" fill="#FFFFFF" fill-opacity="0.8500000238418579"/></g></g></svg>