<svg xmlns="http://www.w3.org/2000/svg" xmlns:xlink="http://www.w3.org/1999/xlink" fill="none" version="1.1" width="24" height="24" viewBox="0 0 24 24"><defs><clipPath id="master_svg0_463_68983"><rect x="0" y="0" width="24" height="24" rx="0"/></clipPath></defs><g clip-path="url(#master_svg0_463_68983)"><g><path d="M20.90699995613098,5.742000070571899L17.71799995613098,5.742000070571899L17.71799995613098,3.7860000705718995C17.71799995613098,2.9265000705718993,16.981499956130982,2.2260000705718994,16.075499956130983,2.2260000705718994L7.9244999561309815,2.2260000705718994C7.018499956130982,2.2260000705718994,6.280499956130981,2.9265000705718993,6.280499956130981,3.7860000705718995L6.280499956130981,5.742000070571899L3.0944999561309814,5.742000070571899C2.9915363561309816,5.7428200705718995,2.9085001945499815,5.826530070571899,2.9084999561309814,5.929500070571899L2.9084999561309814,7.242000070571899C2.9084999561309814,7.3470000705719,2.9909999561309815,7.429500070571899,3.0959999561309814,7.429500070571899L3.9344999561309812,7.429500070571899L4.583999956130981,20.2590000705719C4.625999956130982,21.1080000705719,5.338499956130981,21.774000070571898,6.203999956130982,21.774000070571898L17.79899995613098,21.774000070571898C18.66449995613098,21.774000070571898,19.37699995613098,21.1080000705719,19.418999956130982,20.2590000705719L20.06849995613098,7.429500070571899L20.90849995613098,7.429500070571899C21.011499956130983,7.428680070571899,21.09449995613098,7.344970070571899,21.09449995613098,7.242000070571899L21.09449995613098,5.929500070571899C21.09449995613098,5.826530070571899,21.011499956130983,5.7428200705718995,20.90849995613098,5.742000070571899L20.90699995613098,5.742000070571899ZM7.967999956130981,3.9150000705718995L16.03049995613098,3.9150000705718995L16.03049995613098,5.7450000705718995L7.9709999561309814,5.7450000705718995L7.9709999561309814,3.9150000705718995L7.967999956130981,3.9150000705718995ZM17.737499956130982,20.088000070571898L6.2624999561309815,20.088000070571898L5.621999956130981,7.4310000705718995L18.37799995613098,7.4310000705718995L17.737499956130982,20.088000070571898ZM9.419999956130981,9.6795000705719L10.544999956130981,9.6795000705719C10.67099995613098,9.6795000705719,10.732499956130981,9.7425000705719,10.732499956130981,9.8670000705719L10.732499956130981,16.5705000705719C10.732499956130981,16.6950000705719,10.67099995613098,16.7580000705719,10.544999956130981,16.7580000705719L9.419999956130981,16.7580000705719C9.295499956130982,16.7580000705719,9.232499956130981,16.6950000705719,9.232499956130981,16.5705000705719L9.232499956130981,9.8670000705719C9.232499956130981,9.7425000705719,9.295499956130982,9.6795000705719,9.419999956130981,9.6795000705719ZM13.427999956130982,9.6795000705719L14.552999956130982,9.6795000705719C14.677499956130982,9.6795000705719,14.740499956130982,9.7425000705719,14.740499956130982,9.8670000705719L14.740499956130982,16.5705000705719C14.740499956130982,16.6950000705719,14.677499956130982,16.7580000705719,14.552999956130982,16.7580000705719L13.427999956130982,16.7580000705719C13.303499956130981,16.7580000705719,13.240499956130982,16.6950000705719,13.240499956130982,16.5705000705719L13.240499956130982,9.8670000705719C13.240499956130982,9.7425000705719,13.303499956130981,9.6795000705719,13.427999956130982,9.6795000705719Z" fill="#FFFFFF" fill-opacity="0.8500000238418579"/></g></g></svg>