<svg xmlns="http://www.w3.org/2000/svg" xmlns:xlink="http://www.w3.org/1999/xlink" fill="none" version="1.1" width="24" height="24" viewBox="0 0 24 24"><defs><clipPath id="master_svg0_463_68980"><rect x="0" y="0" width="24" height="24" rx="0"/></clipPath></defs><g clip-path="url(#master_svg0_463_68980)"><g><path d="M21.650990743255615,7.9125037841796875C19.413990743255614,2.5194237841796876,13.216490743255616,-0.024476215820312452,7.835600743255616,2.2416547841796874C2.4546907432556155,4.507783784179687,-0.055679256744384675,10.718913784179687,2.2394977432556153,16.087453784179687C4.517200743255615,21.415253784179686,10.670770743255614,23.902353784179688,16.010690743255616,21.65345378417969C21.350690743255615,19.404553784179686,23.870990743255614,13.264553784179688,21.650990743255615,7.9125037841796875ZM18.140990743255614,18.163453784179687C14.086390743255615,22.217353784179686,7.289880743255615,21.321653784179688,4.423940743255615,16.35575378417969C1.5580137432556151,11.389813784179687,4.182710743255615,5.056933784179687,9.721270743255616,3.5743237841796875C15.259790743255616,2.0917157841796876,20.697290743255614,6.2664337841796875,20.695490743255615,11.999953784179688C20.701690743255615,14.313753784179687,19.781790743255616,16.533653784179688,18.140990743255614,18.164953784179687L18.140990743255614,18.163453784179687ZM16.919990743255617,11.250003784179688L12.749990743255616,11.250003784179688L12.749990743255616,7.078503784179688C12.749990743255616,6.974943784179687,12.666090743255616,6.891003784179688,12.562490743255616,6.891003784179688L11.437490743255616,6.891003784179688C11.333950743255615,6.891003784179688,11.250000743255615,6.974943784179687,11.250000743255615,7.078503784179688L11.250000743255615,11.250003784179688L7.078500743255615,11.250003784179688C6.974950743255615,11.250003784179688,6.891000743255615,11.333943784179688,6.891000743255615,11.437453784179688L6.891000743255615,12.562453784179688C6.891000743255615,12.665953784179688,6.975000743255615,12.749953784179688,7.078500743255615,12.749953784179688L11.250000743255615,12.749953784179688L11.250000743255615,16.92145378417969C11.250000743255615,17.026453784179687,11.334000743255615,17.10895378417969,11.437490743255616,17.10895378417969L12.562490743255616,17.10895378417969C12.666090743255616,17.10895378417969,12.749990743255616,17.02505378417969,12.749990743255616,16.92145378417969L12.749990743255616,12.749953784179688L16.921490743255617,12.749953784179688C17.025090743255618,12.749953784179688,17.108990743255617,12.666053784179688,17.108990743255617,12.562453784179688L17.108990743255617,11.437453784179688C17.108990743255617,11.333943784179688,17.025090743255618,11.250003784179688,16.921490743255617,11.250003784179688L16.919990743255617,11.250003784179688Z" fill="#FFFFFF" fill-opacity="0.8500000238418579"/></g></g></svg>