<svg xmlns="http://www.w3.org/2000/svg" xmlns:xlink="http://www.w3.org/1999/xlink" fill="none" version="1.1" width="24" height="24" viewBox="0 0 24 24"><defs><clipPath id="master_svg0_463_63735"><rect x="0" y="0" width="24" height="24" rx="0"/></clipPath></defs><g clip-path="url(#master_svg0_463_63735)"><g><path d="M21.67489375,7.91260203125C19.41739375,2.55185203125,13.24159375,0.036132031249999974,7.88086375,2.29360103125C2.52010375,4.55106203125,0.004393749999999974,10.72685203125,2.26186275,16.08763203125C4.51932375,21.44833203125,10.69511375,23.96403203125,16.05589375,21.70663203125C21.41659375,19.44913203125,23.93229375,13.27333203125,21.67489375,7.91260203125ZM18.16489375,18.16363203125C14.11169375,22.21733203125,7.31633375,21.32313203125,4.44996375,16.35863203125C1.58359275,11.39426203125,4.20647375,5.06204203125,9.74367375,3.57849203125C15.28049375,2.09463303125,20.71789375,6.26730203125,20.71789375,12.00013203125C20.72359375,14.31403203125,19.80319375,16.53403203125,18.16189375,18.16513203125L18.16489375,18.16363203125ZM16.64689375,11.08360203125L11.17936375,6.89860203125C10.83953375,6.63836203125,10.38146375,6.59350203125,9.99761375,6.78289203125C9.61375375,6.97227203125,9.37062375,7.36307203125,9.37036375,7.79110203125L9.37036375,16.16263203125C9.37005375,16.59093203125,9.61296375,16.98223203125,9.99693375,17.172032031249998C10.38091375,17.36173203125,10.83932375,17.31703203125,11.17936375,17.05663203125L16.64689375,12.87013203125C17.23499375,12.41983203125,17.23499375,11.53393203125,16.64689375,11.08360203125Z" fill="#FFFFFF" fill-opacity="0.8500000238418579"/></g></g></svg>