<svg xmlns="http://www.w3.org/2000/svg" xmlns:xlink="http://www.w3.org/1999/xlink" fill="none" version="1.1" width="24" height="24" viewBox="0 0 24 24"><defs><clipPath id="master_svg0_463_68986"><rect x="0" y="0" width="24" height="24" rx="0"/></clipPath></defs><g clip-path="url(#master_svg0_463_68986)"><g><path d="M20.907,7.900495231628418L16.072499999999998,3.090000231628418C15.7744,2.791340231628418,15.3695,2.623965261628418,14.9475,2.624999999998418L4.2195,2.624999999998418C3.339,2.624999999998418,2.62650013,3.339000231628418,2.625,4.219495231628418L2.625,19.780495231628418C2.625,20.66099523162842,3.339,21.373495231628418,4.2195,21.374995231628418L19.7805,21.374995231628418C20.661,21.374995231628418,21.3735,20.66099523162842,21.375,19.780495231628418L21.375,9.029995231628419C21.3737,8.60628523162842,21.205,8.200265231628418,20.9055,7.900495231628418L20.907,7.900495231628418ZM16.076999999999998,19.687495231628418L7.923,19.687495231628418L7.923,14.249995231628418L16.08,14.249995231628418L16.08,19.687495231628418L16.076999999999998,19.687495231628418ZM19.6875,19.687495231628418L17.5785,19.687495231628418L17.5785,13.687495231628418C17.5785,13.169695231628419,17.1588,12.749995231628418,16.641,12.749995231628418L7.359,12.749995231628418C6.84123,12.749995231628418,6.4215,13.169695231628419,6.4215,13.687495231628418L6.4215,19.687495231628418L4.3125,19.687495231628418L4.3125,4.312495231628418L14.91,4.312495231628418L19.6875,9.070495231628417L19.6875,19.687495231628418ZM10.266,6.070495231628418C8.71359,6.034345231628418,7.4356,7.282915231628418,7.4356,8.835755231628418C7.4356,10.388585231628419,8.71359,11.637155231628418,10.266,11.600995231628419C11.76812,11.566015231628418,12.9676,10.338275231628419,12.9676,8.835755231628418C12.9676,7.333225231628418,11.76812,6.105485231628418,10.266,6.070495231628418ZM10.266,10.288495231628417C9.44538,10.314875231628417,8.76581,9.656795231628418,8.76581,8.835745231628419C8.76581,8.014705231628419,9.44538,7.356625231628418,10.266,7.382995231628418C11.05017,7.408195231628418,11.67282,8.051175231628417,11.67282,8.835745231628419C11.67282,9.620325231628417,11.05017,10.263295231628419,10.266,10.288495231628417Z" fill="#FFFFFF" fill-opacity="0.8500000238418579"/></g></g></svg>