<svg xmlns="http://www.w3.org/2000/svg" xmlns:xlink="http://www.w3.org/1999/xlink" fill="none" version="1.1" width="24" height="24" viewBox="0 0 24 24"><defs><clipPath id="master_svg0_463_63738"><rect x="0" y="0" width="24" height="24" rx="0"/></clipPath></defs><g clip-path="url(#master_svg0_463_63738)"><g><path d="M9.00000155593872,7.500003325958252L15.00003155593872,7.500003325958252C16.00053155593872,7.500003325958252,16.50003155593872,7.999503325958252,16.50003155593872,9.000003325958252L16.50003155593872,15.000033325958253C16.50003155593872,16.00053332595825,16.00053155593872,16.500033325958253,15.00003155593872,16.500033325958253L9.00000155593872,16.500033325958253C7.99950155593872,16.500033325958253,7.500001555938721,16.00053332595825,7.500001555938721,15.000033325958253L7.500001555938721,9.000003325958252C7.500001555938721,7.999503325958252,7.99950155593872,7.500003325958252,9.00000155593872,7.500003325958252ZM21.67503155593872,7.912503325958252C19.41753155593872,2.551743325958252,13.24173155593872,0.03603332595825193,7.88100155593872,2.293500325958252C2.520251555938721,4.550963325958252,0.004531555938720677,10.726743325958251,2.2619995559387207,16.08753332595825C4.519461555938721,21.448233325958252,10.69524155593872,23.96393332595825,16.05603155593872,21.70653332595825C21.41673155593872,19.44903332595825,23.93243155593872,13.273233325958252,21.67503155593872,7.912503325958252ZM18.16503155593872,18.16353332595825C14.111831555938721,22.21723332595825,7.31646155593872,21.322933325958253,4.450091555938721,16.358533325958252C1.5837275559387207,11.394153325958252,4.2066115559387205,5.061933325958252,9.74381155593872,3.578393325958252C15.28063155593872,2.094528325958252,20.718031555938722,6.267193325958252,20.718031555938722,12.000033325958253C20.72373155593872,14.313933325958251,19.80333155593872,16.53393332595825,18.16203155593872,18.16503332595825L18.16503155593872,18.16353332595825Z" fill="#FFFFFF" fill-opacity="0.8500000238418579"/></g></g></svg>