<svg xmlns="http://www.w3.org/2000/svg" xmlns:xlink="http://www.w3.org/1999/xlink" fill="none" version="1.1" width="20" height="20" viewBox="0 0 20 20"><defs><clipPath id="master_svg0_467_89229"><rect x="0" y="0" width="20" height="20" rx="0"/></clipPath></defs><g clip-path="url(#master_svg0_467_89229)"><g><path d="M17.837488742065432,12.0624641456604L15.96248874206543,10.7500041456604L12.418788742065429,2.1937501456604003C12.36368874206543,2.0519146456604003,12.22718874206543,1.9584641456604004,12.074988742065429,1.9584641456604004C11.92284874206543,1.9584642648694004,11.78631874206543,2.0519144456604006,11.73124874206543,2.1937501456604003L8.46874874206543,10.8000041456604L6.20624874206543,6.875004145660401C6.13534874206543,6.7524141456604,6.0005087420654295,6.681264145660401,5.85929874206543,6.6919241456604C5.718088742065429,6.7025741456604,5.59544874206543,6.7931641456604,5.54374874206543,6.925004145660401L4.062498742065429,10.756254145660401L2.18749974206543,12.068764145660401C1.9638849420654296,12.2170641456604,1.9638849420654296,12.5454641456604,2.18749974206543,12.693764145660401L9.81249874206543,17.9749641456604C9.94048874206543,18.0630641456604,10.10950874206543,18.0630641456604,10.23749874206543,17.9749641456604L17.86248874206543,12.693764145660401C18.08698874206543,12.5372641456604,18.07368874206543,12.2007641456604,17.837488742065432,12.0624641456604ZM12.24998874206543,13.3124641456604L10.11874874206543,8.262504145660401L10.99999874206543,5.950004145660401L13.68748874206543,12.6187641456604L15.34998874206543,13.6499641456604L14.05628874206543,14.5437641456604L12.24998874206543,13.3124641456604ZM13.49998874206543,14.9312641456604L12.02498874206543,15.9499641456604L10.11874874206543,14.281264145660401L8.96874874206543,11.2500041456604L9.793748742065429,9.0875041456604L11.73749874206543,13.6999641456604L13.49998874206543,14.9312641456604ZM8.28124874206543,11.7562441456604L7.88124874206543,13.849964145660401L6.374998742065429,14.8312641456604L4.73749874206543,13.6812641456604L6.249998742065429,12.843764145660401L7.2937487420654294,10.068754145660401L8.28124874206543,11.7562441456604ZM4.531248742065429,11.231254145660401L5.937498742065429,7.6812541456604L6.874998742065429,9.375004145660402L5.75624874206543,12.3999641456604L4.14999874206543,13.2749641456604L2.84374974206543,12.3687641456604L4.531248742065429,11.231254145660401ZM9.99999874206543,17.324964145660402L6.9187487420654294,15.193764145660401L8.43124874206543,14.2062641456604L8.74999874206543,12.4999641456604L9.56249874206543,14.6437641456604L11.474998742065429,16.3124641456604L9.99999874206543,17.324964145660402ZM15.918788742065429,13.224964145660401L14.199988742065429,12.162464145660401L11.33124874206543,5.050004145660401L12.08748874206543,3.0625041456604003L15.481288742065429,11.1875041456604L17.156288742065428,12.349964145660401L15.918788742065429,13.224964145660401Z" fill="#3499E5" fill-opacity="1"/></g></g></svg>