<svg xmlns="http://www.w3.org/2000/svg" xmlns:xlink="http://www.w3.org/1999/xlink" fill="none" version="1.1" width="24" height="24" viewBox="0 0 24 24"><defs><clipPath id="master_svg0_463_74326"><rect x="0" y="0" width="24" height="24" rx="0"/></clipPath></defs><g clip-path="url(#master_svg0_463_74326)"><g><path d="M20.99994990463257,17.47505C20.700049904632568,17.47505,20.399949904632567,17.700049999999997,20.399949904632567,18.075049999999997L20.399949904632567,19.72505L5.624999904632569,4.875C5.399999904632568,4.65,5.024999904632568,4.65,4.7999999046325685,4.875C4.574999904632568,5.1,4.574999904632568,5.475,4.7999999046325685,5.7L19.575049904632568,20.47495L17.99994990463257,20.47495C17.700049904632568,20.47495,17.39994990463257,20.69995,17.39994990463257,21.07495C17.39994990463257,21.44995,17.62494990463257,21.67495,17.99994990463257,21.67495L20.99994990463257,21.67495C21.29994990463257,21.67495,21.60004990463257,21.44995,21.60004990463257,21.07495L21.60004990463257,18.07495C21.60004990463257,17.69995,21.30004990463257,17.47495,20.99994990463257,17.47505ZM10.499999904632569,17.47505C10.199999904632568,17.47505,9.899999904632569,17.700049999999997,9.899999904632569,18.075049999999997L9.899999904632569,19.72505L2.6249999046325683,12.45C2.399999904632568,12.225,2.024999904632568,12.225,1.7999999046325683,12.45C1.5749998046325684,12.67505,1.5749999046325684,13.05005,1.7999999046325683,13.27495L9.074999904632568,20.54995L7.499999904632569,20.54995C7.199999904632568,20.54995,6.899999904632568,20.77495,6.899999904632568,21.14995C6.899999904632568,21.52495,7.124999904632569,21.75005,7.499999904632569,21.75005L10.499999904632569,21.75005C10.799999904632568,21.75005,11.099999904632568,21.52495,11.099999904632568,21.14995L11.099999904632568,18.14995C11.099999904632568,17.69995,10.799999904632568,17.47505,10.499999904632569,17.47505ZM21.74994990463257,7.725C21.450049904632568,7.725,21.149949904632567,7.95,21.149949904632567,8.325L21.149949904632567,9.975L13.874949904632569,2.7C13.64994990463257,2.4750001,13.27494990463257,2.4750001,13.050049904632568,2.7C12.825049904632568,2.925,12.825049904632568,3.3,13.050049904632568,3.525L20.325049904632568,10.8L18.74994990463257,10.8C18.450049904632568,10.8,18.149949904632567,11.025,18.149949904632567,11.4C18.149949904632567,11.775,18.37494990463257,12,18.74994990463257,12L21.74994990463257,12C22.04994990463257,12,22.35004990463257,11.775,22.35004990463257,11.4L22.35004990463257,8.4C22.35004990463257,7.95,22.05004990463257,7.725,21.74994990463257,7.725Z" fill="#FFFFFF" fill-opacity="0.8500000238418579"/></g></g></svg>