<svg xmlns="http://www.w3.org/2000/svg" xmlns:xlink="http://www.w3.org/1999/xlink" fill="none" version="1.1" width="24" height="24.000003814697266" viewBox="0 0 24 24.000003814697266"><defs><clipPath id="master_svg0_463_75009"><rect x="0" y="0" width="24" height="24.000003814697266" rx="0"/></clipPath></defs><g clip-path="url(#master_svg0_463_75009)"><g><path d="M15.749981439590455,5.99999686882019C15.747881439590454,4.93970686882019,15.297881439590455,3.92966686882019,14.510981439590454,3.21899986882019C13.722781439590454,2.5093608688201905,12.672081439590453,2.1646635688201905,11.616751439590454,2.2694999688201904C9.729001439590455,2.4599998688201903,8.250001439590454,4.16099686882019,8.250001439590454,6.14099686882019L8.250001439590454,10.49999686882019C8.250001439590454,11.32724686882019,8.922751439590453,11.99999686882019,9.750001439590454,11.99999686882019L14.249981439590455,11.99999686882019C15.077281439590454,11.99999686882019,15.749981439590455,11.32724686882019,15.749981439590455,10.49999686882019L15.749981439590455,5.99999686882019ZM14.249981439590455,10.49999686882019L9.750001439590454,10.49999686882019L9.750001439590454,6.14099686882019C9.750001439590454,4.92074686882019,10.636501439590454,3.8759968688201907,11.767501439590454,3.7619968688201904C12.401181439590454,3.6942368688201905,13.033481439590455,3.90181686882019,13.503781439590455,4.331996868820191C13.979281439590453,4.75949686882019,14.249981439590455,5.36774686882019,14.249981439590455,5.99999686882019L14.249981439590455,10.49999686882019ZM12.000001439590454,15.000026868820191C11.585791439590453,15.000026868820191,11.250001439590454,15.33582686882019,11.250001439590454,15.750026868820191L11.250001439590454,21.75002686882019C11.250001439590454,22.16422686882019,11.585791439590453,22.50002686882019,12.000001439590454,22.50002686882019C12.414181439590454,22.50002686882019,12.749981439590455,22.16422686882019,12.749981439590455,21.75002686882019L12.749981439590455,15.750026868820191C12.749981439590455,15.33582686882019,12.414181439590454,15.000026868820191,12.000001439590454,15.000026868820191ZM21.530281439590453,17.92502686882019L16.757281439590454,13.15202686882019C16.465981439590454,12.85042686882019,15.983981439590455,12.84622686882019,15.687481439590455,13.14272686882019C15.390981439590455,13.43922686882019,15.395181439590454,13.92122686882019,15.696781439590454,14.21252686882019L20.469781439590456,18.98552686882019C20.762781439590455,19.27872686882019,21.237981439590452,19.27872686882019,21.530981439590455,18.98552686882019C21.823981439590455,18.69232686882019,21.823681439590455,18.21702686882019,21.530281439590453,17.924226868820192L21.530281439590453,17.92502686882019ZM7.242751439590454,13.15122686882019L2.469749439590454,17.92502686882019C2.176348439590454,18.21782686882019,2.1760165395904543,18.69302686882019,2.469008439590454,18.98622686882019C2.7620004395904543,19.27942686882019,3.237253439590454,19.27942686882019,3.530251439590454,18.98622686882019L8.303251439590454,14.21322686882019C8.596651439590454,13.92042686882019,8.596981439590454,13.44522686882019,8.303991439590455,13.15202686882019C8.011001439590455,12.85882686882019,7.5357414395904545,12.85882686882019,7.242751439590454,13.15202686882019L7.242751439590454,13.15122686882019Z" fill="#FFFFFF" fill-opacity="0.8500000238418579"/></g></g></svg>