<svg xmlns="http://www.w3.org/2000/svg" xmlns:xlink="http://www.w3.org/1999/xlink" fill="none" version="1.1" width="24" height="24.000003814697266" viewBox="0 0 24 24.000003814697266"><defs><clipPath id="master_svg0_463_74332"><rect x="0" y="0" width="24" height="24.000003814697266" rx="0"/></clipPath></defs><g clip-path="url(#master_svg0_463_74332)"><g><path d="M12.9698,9.41625L12,10.386L11.03025,9.41625C10.73895,9.114650000000001,10.25696,9.11047,9.960460000000001,9.40696C9.663969999999999,9.70346,9.66815,10.18545,9.969750000000001,10.47675L11.25,11.757L11.25,14.25C11.25,14.6642,11.58579,15,12,15C12.4142,15,12.75,14.6642,12.75,14.25L12.75,11.757L14.0302,10.47675C14.3318,10.18545,14.336,9.70347,14.0395,9.406970000000001C13.743,9.110479999999999,13.2611,9.11466,12.9698,9.41625ZM12,3.75C12.414,3.75,12.75,3.498,12.75,3.1875L12.75,2.0625C12.75,1.752,12.414,1.5,12,1.5C11.586,1.5,11.25,1.752,11.25,2.0625L11.25,3.1875C11.25,3.498,11.586,3.75,12,3.75ZM6.6075,6.03525C6.90075,5.74275,6.96,5.327249999999999,6.741,5.1075L5.94525,4.3125C5.7255,4.0920000000000005,5.3100000000000005,4.15125,5.01675,4.4445C4.7235,4.73775,4.66425,5.1525,4.88475,5.37225L5.67975,6.168C5.8995,6.38775,6.315,6.3285,6.60825,6.03525L6.6075,6.03525ZM3.9375,10.5L2.8125,10.5C2.502,10.5,2.25,10.836,2.25,11.25C2.25,11.664,2.502,12,2.8125,12L3.9375,12C4.248,12,4.5,11.664,4.5,11.25C4.5,10.836,4.248,10.5,3.9375,10.5ZM21.1875,10.5L20.0625,10.5C19.752,10.5,19.5,10.836,19.5,11.25C19.5,11.664,19.752,12,20.0625,12L21.1875,12C21.498,12,21.75,11.664,21.75,11.25C21.75,10.836,21.498,10.5,21.1875,10.5ZM17.8778,4.13475L17.082,4.92975C16.862299999999998,5.1495,16.9215,5.565,17.2148,5.85825C17.507199999999997,6.15075,17.922800000000002,6.21075,18.1425,5.99025L18.9375,5.19525C19.158,4.9755,19.0987,4.5600000000000005,18.8055,4.26675C18.5123,3.9735,18.0975,3.91425,17.8778,4.13475Z" fill="#FFFFFF" fill-opacity="0.8500000238418579"/></g><g><path d="M11.786249959259033,4.699500088325196C8.190749959259033,4.812000158325195,5.238749959259033,7.869754158325195,5.249999999959033,11.466754158325195C5.257500169259033,14.101504158325195,6.7874999592590335,16.379284158325195,8.999999959259034,17.483984158325196L8.999999959259034,18.749984158325198C8.999999959259034,19.164184158325195,9.335789959259033,19.499984158325198,9.749999959259032,19.499984158325198L14.249999959259034,19.499984158325198C14.664209959259033,19.499984158325198,14.999999959259034,19.164184158325195,14.999999959259034,18.749984158325198L14.999999959259034,17.484784158325198C17.218469959259032,16.376984158325193,18.749969959259033,14.090254158325195,18.749969959259033,11.446504158325196C18.749969959259033,7.653004158325196,15.605269959259033,4.581001158325195,11.786249959259033,4.699500088325196ZM14.999999959259034,15.748484158325196C14.968499959259033,15.770984158325195,14.937749959259033,15.793484158325196,14.905499959259034,15.815284158325195C14.472479959259033,16.103984158325197,13.998749959259033,16.326484158325194,13.499999959259034,16.475284158325195L13.499999959259034,17.999984158325198L10.499999959259032,17.999984158325198L10.499999959259032,16.475284158325195C10.001259959259034,16.326384158325197,9.527539959259034,16.103984158325197,9.094499959259032,15.815284158325195C9.062249959259033,15.793484158325196,9.031499959259033,15.770284158325195,8.999999959259034,15.747784158325196C7.591809959259033,14.768184158325194,6.751579959259033,13.161904158325195,6.749999959259033,11.446504158325196C6.749999959259033,8.551504158325194,9.104999959259032,6.196504158325196,11.999999959259032,6.196504158325196C14.894999959259033,6.196504158325196,17.249969959259033,8.551504158325194,17.249969959259033,11.446504158325196C17.249969959259033,13.225504158325196,16.357469959259035,14.798984158325196,14.999999959259034,15.748484158325196ZM12.749999959259032,20.249984158325198L11.249999959259032,20.249984158325198C10.835789959259033,20.249984158325198,10.499999959259032,20.585784158325197,10.499999959259032,20.999984158325194C10.499999959259032,21.414184158325195,10.835789959259033,21.749984158325194,11.249999959259032,21.749984158325194L12.749999959259032,21.749984158325194C13.164209959259033,21.749984158325194,13.499999959259034,21.414184158325195,13.499999959259034,20.999984158325194C13.499999959259034,20.585784158325197,13.164209959259033,20.249984158325198,12.749999959259032,20.249984158325198Z" fill="#FFFFFF" fill-opacity="0.8500000238418579"/></g></g></svg>