<svg xmlns="http://www.w3.org/2000/svg" xmlns:xlink="http://www.w3.org/1999/xlink" fill="none" version="1.1" width="20" height="20" viewBox="0 0 20 20"><defs><clipPath id="master_svg0_467_87649"><rect x="0" y="0" width="20" height="20" rx="0"/></clipPath></defs><g clip-path="url(#master_svg0_467_87649)"><g><path d="M18.125,5.624997057495117L18.125,2.250000057495117C18.125,2.0428930574951174,17.9571,1.8749999999951172,17.75,1.8749999999951172L14.375,1.8749999999951172L14.375,3.124997057495117L5.625,3.124997057495117L5.625,1.8749999999951172L2.28125,1.8749999999951172C2.067338,1.8712408574951171,1.8883386,2.0364710574951173,1.875,2.250000057495117L1.875,5.624997057495117L3.125,5.624997057495117L3.125,14.375037057495117L1.875,14.375037057495117L1.875,17.750037057495117C1.875,17.957137057495117,2.042893,18.125037057495117,2.25,18.125037057495117L5.625,18.125037057495117L5.625,16.875037057495117L14.375,16.875037057495117L14.375,18.125037057495117L17.75,18.125037057495117C17.9571,18.125037057495117,18.125,17.957137057495117,18.125,17.750037057495117L18.125,14.375037057495117L16.875,14.375037057495117L16.875,5.624997057495117L18.125,5.624997057495117ZM5.625,3.749997057495117L9,3.749997057495117L3.75,8.893747057495117L3.75,5.624997057495117L5.625,5.624997057495117L5.625,3.749997057495117ZM2.5,4.999997057495117L2.5,2.500000057495117L5,2.500000057495117L5,4.999997057495117L2.5,4.999997057495117ZM5,17.500037057495117L2.5,17.500037057495117L2.5,15.000037057495117L5,15.000037057495117L5,17.500037057495117ZM5.2125,14.375037057495117L3.75,14.375037057495117L3.75,9.781247057495118L9.925,3.749997057495117L14.375,3.749997057495117L14.375,5.118747057495117L5.2125,14.375037057495117ZM5.625,16.250037057495117L5.625,14.818737057495117L14.7625,5.624997057495117L16.25,5.624997057495117L16.25,10.324997057495118L10.20625,16.250037057495117L5.625,16.250037057495117ZM14.375,16.250037057495117L11.125,16.250037057495117L16.25,11.249997057495117L16.25,14.375037057495117L14.375,14.375037057495117L14.375,16.250037057495117ZM17.5,15.000037057495117L17.5,17.500037057495117L15,17.500037057495117L15,15.000037057495117L17.5,15.000037057495117ZM15,4.999997057495117L15,2.500000057495117L17.5,2.500000057495117L17.5,4.999997057495117L15,4.999997057495117Z" fill="#FFFFFF" fill-opacity="0.8500000238418579"/></g></g></svg>