<svg xmlns="http://www.w3.org/2000/svg" xmlns:xlink="http://www.w3.org/1999/xlink" fill="none" version="1.1" width="20" height="20" viewBox="0 0 20 20"><defs><clipPath id="master_svg0_467_87655"><rect x="0" y="0" width="20" height="20" rx="0"/></clipPath></defs><g clip-path="url(#master_svg0_467_87655)"><g><path d="M14.687496480178833,4.068746551704407L4.062496480178833,14.693796551704407C3.929956480178833,14.831696551704407,3.929956480178833,15.049596551704406,4.062496480178833,15.187496551704406L6.899996480178833,18.024996551704408C7.038676480178833,18.161596551704406,7.261326480178833,18.161596551704406,7.399996480178833,18.024996551704408L18.02499648017883,7.399996551704406C18.157496480178832,7.262106551704407,18.157496480178832,7.044146551704407,18.02499648017883,6.906246551704407L15.187496480178833,4.068746551704407C15.048796480178833,3.932146551704407,14.826196480178833,3.932146551704407,14.687496480178833,4.068746551704407ZM17.418796480178834,7.149996551704406L7.162496480178833,17.406296551704408L4.662496480178833,14.906296551704406L6.368746480178833,13.199996551704407L8.124996480178833,14.924996551704407L8.556246480178833,14.499996551704406L6.843746480178833,12.793796551704407L8.556246480178833,11.081246551704407L10.262496480178832,12.793796551704407L10.693746480178833,12.362496551704407L8.981246480178832,10.656246551704406L10.693746480178833,8.943746551704407L12.399996480178833,10.656246551704406L12.824996480178832,10.224996551704407L11.118746480178833,8.518746551704407L12.824996480178832,6.812496551704407L14.537496480178833,8.518746551704407L14.937496480178833,8.124996551704406L13.231296480178832,6.412496551704407L14.937496480178833,4.674996551704407L17.418796480178834,7.149996551704406ZM11.656246480178833,2.368750551704407L2.443749480178833,11.581246551704407C2.339279480178833,11.663966551704407,2.189407480178833,11.655296551704406,2.095183180178833,11.561066551704407C2.000958680178833,11.466846551704407,1.992280580178833,11.316966551704407,2.074999780178833,11.212496551704406L11.287496480178833,1.9999999517044067C11.391966480178834,1.9172804517044066,11.541846480178833,1.9259585517044067,11.636066480178833,2.020183051704407C11.730296480178833,2.1144075517044065,11.738966480178833,2.264280551704407,11.656246480178833,2.368750551704407Z" fill="#FFFFFF" fill-opacity="0.8500000238418579"/></g></g></svg>