<svg xmlns="http://www.w3.org/2000/svg" xmlns:xlink="http://www.w3.org/1999/xlink" fill="none" version="1.1" width="20" height="20" viewBox="0 0 20 20"><defs><clipPath id="master_svg0_467_87643"><rect x="0" y="0" width="20" height="20" rx="0"/></clipPath></defs><g clip-path="url(#master_svg0_467_87643)"><g><path d="M6.8749998913574215,12.775029159545898L6.8749998913574215,2.2125001595458986C6.871579891357422,2.0226391595458986,6.714859891357422,1.8715169395458984,6.524999891357422,1.8750001195458985L2.2312498913574217,1.8750001195458985C2.036120891357422,1.8601846595458984,1.8707460213574219,2.0168551595458983,1.8749999999574218,2.2125001595458986L1.8749999999574218,17.7625291595459C1.874999880757422,17.962729159545898,2.037296891357422,18.1250291595459,2.2374998913574218,18.1250291595459L11.543749891357422,18.1250291595459C11.745429891357421,18.1021291595459,11.890719891357422,17.9205291595459,11.868749891357423,17.718729159545898L11.868749891357423,13.456229159545899C11.885719891357422,13.271129159545898,11.728549891357423,13.116929159545899,11.543749891357422,13.137529159545899L7.256249891357422,13.137529159545899C7.048769891357422,13.148229159545899,6.8747198913574215,12.9827291595459,6.8749998913574215,12.775029159545898ZM11.249999891357422,17.500029159545896L2.499999891357422,17.500029159545896L2.499999891357422,2.5000001595458983L6.2499998913574215,2.5000001595458983L6.2499998913574215,5.624999159545899L4.374999891357422,5.624999159545899L4.374999891357422,6.249999159545898L6.2499998913574215,6.249999159545898L6.2499998913574215,8.124999159545897L4.374999891357422,8.124999159545897L4.374999891357422,8.749999159545897L6.2499998913574215,8.749999159545897L6.2499998913574215,10.624999159545899L4.374999891357422,10.624999159545899L4.374999891357422,11.249999159545899L6.2499998913574215,11.249999159545899L6.2499998913574215,13.125029159545898L4.374999891357422,13.125029159545898L4.374999891357422,13.750029159545898L6.2499998913574215,13.750029159545898L6.2499998913574215,15.625029159545898L6.8749998913574215,15.625029159545898L6.8749998913574215,13.750029159545898L8.749999891357422,13.750029159545898L8.749999891357422,15.625029159545898L9.374999891357422,15.625029159545898L9.374999891357422,13.750029159545898L11.249999891357422,13.750029159545898L11.249999891357422,17.500029159545896ZM17.800019891357422,18.156229159545898C17.62291989135742,18.156329159545898,17.478419891357422,18.014529159545898,17.47501989135742,17.8375291595459L17.47501989135742,2.1625001595458984C17.49411989135742,1.9977901595458984,17.63421989135742,1.8738917115458984,17.800019891357422,1.8749998805458985C17.978419891357422,1.8714654495458984,18.12501989135742,2.0152051595458986,18.12501989135742,2.1937501595458984L18.12501989135742,17.8375291595459C18.12501989135742,18.016029159545898,17.978519891357422,18.159729159545897,17.800019891357422,18.156229159545898ZM15.625019891357422,1.8749999995458984L16.87501989135742,1.8749999995458984L16.87501989135742,2.5000001595458983L15.625019891357422,2.5000001595458983L15.625019891357422,1.8749999995458984ZM13.125019891357422,1.8749999995458984L15.000019891357422,1.8749999995458984L15.000019891357422,2.5000001595458983L13.125019891357422,2.5000001595458983L13.125019891357422,1.8749999995458984ZM10.624999891357422,1.8749999995458984L12.500019891357422,1.8749999995458984L12.500019891357422,2.5000001595458983L10.624999891357422,2.5000001595458983L10.624999891357422,1.8749999995458984ZM8.124999891357422,1.8749999995458984L9.999999891357422,1.8749999995458984L9.999999891357422,2.5000001595458983L8.124999891357422,2.5000001595458983L8.124999891357422,1.8749999995458984ZM15.625019891357422,17.500029159545896L16.87501989135742,17.500029159545896L16.87501989135742,18.1250291595459L15.625019891357422,18.1250291595459L15.625019891357422,17.500029159545896ZM14.368719891357422,18.1187291595459L12.493719891357422,18.1250291595459L12.493719891357422,17.506229159545896L14.368719891357422,17.506229159545896L14.368719891357422,18.1187291595459Z" fill="#FFFFFF" fill-opacity="0.8500000238418579"/></g></g></svg>