<svg xmlns="http://www.w3.org/2000/svg" xmlns:xlink="http://www.w3.org/1999/xlink" fill="none" version="1.1" width="20" height="20" viewBox="0 0 20 20"><defs><clipPath id="master_svg0_467_90360"><rect x="0" y="0" width="20" height="20" rx="0"/></clipPath></defs><g clip-path="url(#master_svg0_467_90360)"><g><path d="M17.826925648498538,7.499999914169312L12.523125648498535,7.499999914169312L12.523125648498535,2.1837499141693115C12.523125648498535,2.0111609141693116,12.383225648498534,1.8712499141693115,12.210625648498535,1.8712499141693115L2.210625648498535,1.8712499141693115C2.0380366484985353,1.8712499141693115,1.8981256484985352,2.0111609141693116,1.8981256484985352,2.1837499141693115L1.8981256484985352,12.183749914169312C1.8981256484985352,12.35634991416931,2.0380366484985353,12.496249914169312,2.210625648498535,12.496249914169312L7.514375648498535,12.496249914169312L7.514375648498535,17.812449914169314C7.514375648498535,17.985049914169313,7.6542856484985355,18.12494991416931,7.826875648498535,18.12494991416931L17.826925648498538,18.12494991416931C17.999425648498534,18.12494991416931,18.139325648498534,17.985049914169313,18.139325648498534,17.812449914169314L18.139325648498534,7.812499914169312C18.139325648498534,7.639909914169311,17.999425648498534,7.499999914169312,17.826925648498538,7.499999914169312ZM12.522525648498535,8.543749914169311L12.941225648498536,8.124999914169312L14.541925648498536,8.124999914169312L12.523125648498535,10.143749914169312L12.523125648498535,8.543749914169311L12.522525648498535,8.543749914169311ZM2.5225006484985353,11.871249914169312L2.5225006484985353,2.4962499141693115L11.897505648498536,2.4962499141693115L11.897505648498536,11.652499914169312L11.678755648498536,11.871249914169312L2.5225006484985353,11.871249914169312ZM8.139375648498536,12.927449914169312L8.570005648498535,12.496849914169312L10.170625648498536,12.496849914169312L8.139375648498536,14.528149914169312L8.139375648498536,12.927449914169312ZM8.139375648498536,15.41124991416931L11.054375648498535,12.496249914169312L12.210625648498535,12.496249914169312C12.383225648498534,12.496249914169312,12.523125648498535,12.35634991416931,12.523125648498535,12.183749914169312L12.523125648498535,11.027499914169312L15.425625648498535,8.124999914169312L17.072525648498534,8.124999914169312L8.139375648498536,17.058149914169313L8.139375648498536,15.41124991416931ZM17.514425648498538,17.499949914169314L16.107525648498537,17.499949914169314L17.514425648498538,16.09314991416931L17.514425648498538,17.499949914169314ZM17.514425648498538,15.209349914169312L15.223725648498535,17.499949914169314L13.673725648498536,17.499949914169314L17.515025648498536,13.658749914169311L17.515025648498536,15.209349914169312L17.514425648498538,15.209349914169312ZM17.514425648498538,12.775049914169312L12.789325648498535,17.499949914169314L11.320005648498535,17.499949914169314L17.513725648498536,11.306249914169312L17.513725648498536,12.774949914169312L17.514425648498538,12.775049914169312ZM17.514425648498538,10.422499914169311L10.436875648498535,17.499949914169314L8.581245648498534,17.499949914169314L17.514325648498534,8.566879914169313L17.514425648498538,10.422499914169311Z" fill="#3499E5" fill-opacity="1"/></g></g></svg>