<svg xmlns="http://www.w3.org/2000/svg" xmlns:xlink="http://www.w3.org/1999/xlink" fill="none" version="1.1" width="20" height="20" viewBox="0 0 20 20"><g style="mix-blend-mode:passthrough"><g style="opacity:0;mix-blend-mode:passthrough"><rect x="0.19607841968536377" y="0" width="19.60784149169922" height="19.802003860473633" rx="0" fill="#000000" fill-opacity="1"/></g><g style="mix-blend-mode:passthrough"><path d="M1.43468,18.613815168952943L5.81734,7.2745151689529415Q5.95316,6.924835168952942,6.31703,6.848645168952942Q6.68091,6.772465168952942,6.94295,7.038565168952942L8.56017,8.637035168952941L10.6196,2.3975721689529417L10.6216,2.3925401689529417Q10.7931,1.954215168952942,11.2598,1.954215168952942Q11.7246,1.954215168952942,11.8966,2.388916168952942L18.9516,18.613815168952943L20,18.613815168952943L20,20.00001516895294L0,20.00001516895294L0,18.613815168952943L1.43468,18.613815168952943ZM11.7157,2.465325168952942C11.6417,2.276374168952942,11.461,2.152235168952942,11.2598,2.152235168952942C11.0586,2.152235168952942,10.8779,2.276374168952942,10.8039,2.465325168952942L8.71601,8.791065168952942L8.64706,8.999985168952943L8.49121,8.845945168952941L6.80392,7.178205168952942C6.68715,7.059625168952942,6.51899,7.008595168952942,6.35684,7.042545168952942C6.19468,7.076495168952942,6.06047,7.190825168952942,6,7.3465151689529415C6.06048,7.190905168952942,6.1947,7.076565168952942,6.35684,7.042545168952942C6.519,7.008665168952942,6.68716,7.059695168952942,6.80392,7.178205168952942L8.64706,8.999985168952943L10.8039,2.465325168952942C10.8779,2.276447168952942,11.0586,2.152308168952942,11.2598,2.152235168952942C11.461,2.152308168952942,11.6418,2.276447168952942,11.7157,2.465325168952942ZM9.06857,10.637285168952943Q8.67125,10.747745168952942,8.38857,10.444705168952941L7.35559,9.401495168952941L8.91058,18.613815168952943L13.5363,18.613815168952943L11.0214,5.638505168952942L9.55876,10.180805168952942Q9.43907,10.547215168952942,9.06857,10.637285168952943ZM14.9648,18.613815168952943L12.9158,8.191805168952943L17.4353,18.613815168952943L14.9648,18.613815168952943ZM7.52193,18.613915168952943L6.10326,10.337915168952941L2.90464,18.613915168952943L7.52193,18.613915168952943Z" fill-rule="evenodd" fill="#FFFFFF" fill-opacity="0.8500000238418579"/></g></g></svg>