<svg xmlns="http://www.w3.org/2000/svg" xmlns:xlink="http://www.w3.org/1999/xlink" fill="none" version="1.1" width="20" height="20" viewBox="0 0 20 20"><g style="mix-blend-mode:passthrough"><g style="mix-blend-mode:passthrough"></g><g style="mix-blend-mode:passthrough"><path d="M10,0.710156261920929C9.97258,0.7101456034209289,9.945630000000001,0.717353171920929,9.92188,0.731054761920929L2.265625,5.151366261920929C2.2172702,5.179286261920929,2.1874874644,5.230886261920929,2.1875,5.286716261920929L2.1875,14.127356261920928C2.1874874644,14.18315626192093,2.2172702,14.234756261920928,2.265625,14.26265626192093L9.92188,18.683056261920928C9.970220000000001,18.71095626192093,10.029779999999999,18.71095626192093,10.07812,18.683056261920928L17.7344,14.26265626192093C17.7827,14.234756261920928,17.8125,14.18315626192093,17.8125,14.127356261920928L17.8125,5.286716261920929C17.8125,5.230886261920929,17.7827,5.179286261920929,17.7344,5.151366261920929L10.07812,0.731054761920929C10.054369999999999,0.717353171920929,10.02742,0.7101456034209289,10,0.710156261920929ZM10,2.309766261920929L16.4063,6.008396261920929L16.4063,13.405656261920928L10,17.10425626192093L3.59375,13.405656261920928L3.59375,6.008396261920929L10,2.309766261920929ZM5.95687,8.374976261920928L9.433589999999999,10.382356261920929L9.433589999999999,14.29685626192093C9.433589999999999,14.64195626192093,9.71342,14.92185626192093,10.058589999999999,14.92185626192093C10.40377,14.92185626192093,10.68359,14.64195626192093,10.68359,14.29685626192093L10.68359,10.41157626192093L14.16,8.40485626192093C14.3534,8.293216261920929,14.4725,8.086876261920928,14.4725,7.863566261920929C14.4725,7.640266261920929,14.3534,7.433916261920929,14.16,7.322256261920929C13.9667,7.210606261920929,13.7284,7.210596261920929,13.535,7.322236261920929L10.083829999999999,9.314426261920929L6.58187,7.292556261920929C6.38832,7.177586261920929,6.14788,7.175596261920929,5.95245,7.287346261920929C5.75701,7.399096261920929,5.63678,7.607326261920929,5.637700000000001,7.8324462619209285C5.6386199999999995,8.057576261920929,5.760540000000001,8.264816261920929,5.95687,8.374976261920928Z" fill-rule="evenodd" fill="#FFFFFF" fill-opacity="1"/></g></g></svg>