<svg xmlns="http://www.w3.org/2000/svg" xmlns:xlink="http://www.w3.org/1999/xlink" fill="none" version="1.1" width="20" height="20" viewBox="0 0 20 20"><g style="mix-blend-mode:passthrough"><g style="opacity:0;mix-blend-mode:passthrough"><rect x="0" y="0" width="20" height="20" rx="0" fill="#000000" fill-opacity="1"/></g><g style="mix-blend-mode:passthrough"><path d="M18.240240625,3.001370625L11.221290625,10.000000625L18.240240625,16.998590625C18.285040625,17.043290624999997,18.298540625,17.110590625,18.274440625,17.169090625000003C18.250240625,17.227590624999998,18.193140625,17.265690624999998,18.129840625,17.265590625L16.534540624999998,17.265590625C16.451940625,17.265590625,16.372640625000003,17.232790625,16.314040625,17.174390625L10.170120625,11.048050625L8.129300624999999,13.082990625C8.446300625,13.594090625,8.613950625000001,14.183690625,8.613280625,14.785190625C8.613280625,16.572890625,7.158790625,18.027390625,5.371090625,18.027390625C3.583400625,18.027390625,2.128906245,16.572890625,2.128906245,14.785190625C2.128906245,12.997490625,3.583400625,11.542970625,5.371090625,11.542970625C5.975660625,11.542090625,6.568280625,11.711300625,7.081250625,12.031290625L9.118940625,10.000000625L7.071480625,7.958980625C6.558520625,8.278930625000001,5.965900625,8.448140625,5.361330625,8.447270625C3.573630625,8.447270625,2.119140625,6.992770625,2.119140625,5.205080625C2.119140625,3.417380625,3.573630625,1.962890625,5.361330625,1.962890625C7.149020625,1.962890625,8.603520625,3.417380625,8.603520625,5.205080625C8.604120625,5.806530625000001,8.436400625000001,6.396140625,8.119340625,6.907230625L10.170120625,8.951760625L16.314040625,2.825585625C16.372640625000003,2.767210625,16.451940625,2.734413625,16.534540624999998,2.734374625L18.129840625,2.734374625C18.193140625,2.734324625,18.250240625,2.772454625,18.274440625,2.830941625C18.298540625,2.889428625,18.285040625,2.956721625,18.240240625,3.001370625ZM5.361940625,6.962890625L5.361940625,6.962890625C4.390810625,6.962570625,3.604130625,6.175690625,3.604130625,5.205080625C3.604130625,4.234260625,4.391120625,3.447270625,5.361940625,3.447270625C6.332750625,3.447270625,7.119750625,4.234260625,7.119750625,5.205080625C7.118670625,6.175480625,6.332260625,6.961820625,5.361940625,6.962890625ZM5.371090625,16.542990625C4.400280625000001,16.542990625,3.613280625,15.755990625,3.613280625,14.785190625C3.613280625,13.814390625,4.400280625000001,13.027390625,5.371090625,13.027390625C6.341910625,13.027390625,7.128910625,13.814390625,7.128910625,14.785190625C7.127830625,15.755490625,6.341460625,16.541890625,5.371090625,16.542990625Z" fill-rule="evenodd" fill="#FFFFFF" fill-opacity="0.8500000238418579"/></g></g></svg>