<svg xmlns="http://www.w3.org/2000/svg" xmlns:xlink="http://www.w3.org/1999/xlink" fill="none" version="1.1" width="11.482017517089844" height="12.580859184265137" viewBox="0 0 11.482017517089844 12.580859184265137"><g><path d="M0.156439,12.5795L1.74277,12.5795C1.79082,12.5795,1.8362,12.5574,1.86581,12.5195L5.74101,7.55996L9.61621,12.5209C9.64582,12.5587,9.6912,12.5809,9.73925,12.5809L11.3256,12.5809C11.3854,12.5809,11.44,12.5469,11.4662,12.4931C11.4924,12.4394,11.4857,12.3754,11.4488,12.3283L6.73242,6.29043L11.4488,0.253906C11.4857,0.206816,11.4924,0.142826,11.4662,0.08909C11.44,0.0353539,11.3854,0.00129547,11.3256,0.00136719L9.73925,0.00136719C9.6912,0.00136948,9.64582,0.0234833,9.61621,0.0613281L5.74101,5.0209L1.86581,0.0599609C1.83616,0.0220623,1.79069,-0.0000576019,1.74257,0L0.156439,0C0.0966457,-0.0000717163,0.0420544,0.0339863,0.0158306,0.0877224C-0.0103931,0.141459,-0.00365067,0.205449,0.033197,0.252539L4.7496,6.29043L0.033197,12.327C-0.00365105,12.374,-0.0103935,12.438,0.0158302,12.4918C0.042054,12.5455,0.0966454,12.5796,0.156439,12.5795Z" fill="#FFFFFF" fill-opacity="0.6499999761581421"/></g></svg>