<?xml version="1.0" encoding="UTF-8"?>
<svg width="280px" height="280px" viewBox="0 0 280 280" version="1.1" xmlns="http://www.w3.org/2000/svg" xmlns:xlink="http://www.w3.org/1999/xlink">
    <title>三维地球</title>
    <g id="页面-1" stroke="none" stroke-width="1" fill="none" fill-rule="evenodd">
        <g id="三维地球">
            <rect id="矩形" fill-opacity="0" fill="#000000" x="0" y="0" width="280" height="280"></rect>
            <path d="M217.769765,231.422904 L216.729765,232.299104 C195.931162,249.596901 169.193959,260 140.026755,260 C134.725055,260 129.503654,259.6562 124.383573,258.9899 C120.797783,251.195901 117.641052,243.295202 114.906752,235.323103 C130.221754,235.822503 146.153756,234.066403 162.116858,229.789404 C181.46646,224.605005 198.924363,216.235706 213.815765,205.613607 C215.569765,214.070016 216.893765,222.685805 217.769765,231.422904 Z" id="路径" fill="#3475D2" fill-rule="nonzero"></path>
            <path d="M110.546622,235.116781 L111.287222,237.302681 C113.726822,244.35338 116.491723,251.347679 119.582723,258.261478 C90.3344194,253.246979 64.7028162,237.645581 46.7704139,215.544484 C64.9043162,226.815282 86.904919,233.670381 110.546622,235.116781 Z" id="路径" fill="#3475D2" fill-rule="nonzero"></path>
            <path d="M212.875762,201.276687 L211.762762,202.083987 C197.20216,212.526385 180.080458,220.764284 161.063756,225.859484 C144.960253,230.174183 128.906651,231.857783 113.53795,231.201583 C107.938779,213.924985 104.316218,196.346488 102.650748,178.82759 C117.10745,179.76029 132.520252,178.30719 148.044054,174.147891 C166.198456,169.283691 182.370358,161.290292 195.63846,151.289894 C203.120761,167.024392 208.921762,183.796489 212.875762,201.276687 Z" id="路径" fill="#3AAEE5" fill-rule="nonzero"></path>
            <path d="M98.5399231,178.493873 L98.6847231,180.069373 C100.364323,197.09177 103.859824,214.160268 109.182524,230.952766 C82.523921,229.031966 58.143318,220.027467 39.4518156,205.500969 C35.7136052,199.78277 32.4527647,193.722071 29.7231144,187.378972 C32.5333248,176.174173 36.3077252,165.201275 41.0634158,154.570876 C55.0858176,167.822374 75.4460202,176.247873 98.5399231,178.493873 Z" id="路径" fill="#3AAEE5" fill-rule="nonzero"></path>
            <path d="M259.664561,149.714224 C257.18266,180.635119 242.980559,208.249316 221.503596,228.111913 C220.557116,219.600614 219.186736,211.209415 217.413755,202.967516 C236.430958,188.528718 250.92116,170.325921 259.345861,150.479111 L259.664561,149.714224 Z" id="路径" fill="#3475D2" fill-rule="nonzero"></path>
            <path d="M249.255599,90.157073 L249.879499,91.5470828 C255.961199,105.319531 259.5287,120.450929 260,136.359727 C253.416299,159.820724 238.070197,181.722821 216.425995,198.596918 C212.354094,181.161621 206.464643,164.432423 198.924392,148.721925 C221.237295,130.679528 234.452697,106.795831 233.654897,83.0579339 C238.904597,85.2284136 244.109598,87.5974533 249.255599,90.157073 Z" id="路径" fill="#3AAEE5" fill-rule="nonzero"></path>
            <path d="M23.3626604,125.420508 C26.0113408,135.304897 31.0697014,144.060495 37.9962023,151.483494 C33.6092017,161.073893 30.0151013,170.945392 27.1959209,181.01349 C22.5406603,168.212592 20,154.393094 20,139.980296 C20,132.618197 20.6629151,125.410868 21.9323102,118.414799 C22.2636103,120.759399 22.7398403,123.096228 23.3626604,125.420508 Z" id="路径" fill="#3AAEE5" fill-rule="nonzero"></path>
            <path d="M193.82768,147.558246 L193.35838,147.918446 C180.490878,157.652644 164.737376,165.463143 146.991074,170.218043 C131.658772,174.326042 116.47437,175.715042 102.301509,174.729242 C101.074029,158.989244 101.431957,143.323646 103.360309,127.993248 C113.52957,129.022748 124.638271,128.170848 135.862173,125.163549 C148.818374,121.692149 160.205476,115.81035 169.133077,108.522451 C178.623078,120.526149 186.893079,133.617448 193.82768,147.558246 Z" id="路径" fill="#77D6F4" fill-rule="nonzero"></path>
            <path d="M99.3253453,127.481066 L98.9992453,130.183165 C97.3486451,144.706763 97.076445,159.507961 98.1902452,174.371759 C75.7203424,172.05076 56.0800399,163.664161 42.8754382,150.649562 C48.967569,137.785964 56.5278399,125.455166 65.5872411,113.860337 L67.0974413,111.965568 C74.5806422,120.028737 85.9971437,125.425266 99.3253453,127.481066 Z" id="路径" fill="#77D6F4" fill-rule="nonzero"></path>
            <path d="M58.9059098,97.3449463 C60.0253099,101.522346 61.9112102,105.343245 64.4418105,108.767145 L62.3811102,111.355544 C53.4666091,122.764943 45.9750082,134.869341 39.8731074,147.48084 C33.9467066,140.79414 29.6148961,133.033442 27.2927358,124.367543 C25.3976098,117.295244 24.9630955,110.075845 25.8385236,102.900446 C26.1613767,101.903446 26.4967757,100.914646 26.8446258,99.931746 C36.870207,93.0439469 47.4082083,87.1857677 58.3323097,82.3381483 C57.4354096,87.3411177 57.5796096,92.395447 58.9059098,97.3449463 Z" id="路径" fill="#77D6F4" fill-rule="nonzero"></path>
            <path d="M229.4929,81.3710234 L229.5046,81.5525234 C230.9173,104.20332 218.528199,127.351517 197.082596,144.981615 C190.079095,131.017317 181.752174,117.900319 172.220993,105.85322 C183.752195,95.3226216 190.366195,82.3181233 189.693695,69.514225 C203.117997,72.2752747 216.441599,76.2356841 229.4929,81.3710234 Z" id="路径" fill="#77D6F4" fill-rule="nonzero"></path>
            <path d="M166.587929,105.352128 L165.985429,105.839328 C157.614828,112.530727 146.964726,117.976827 134.809125,121.233726 C124.083424,124.107526 113.520542,124.919126 103.905221,123.964426 C106.068451,108.971928 109.745112,94.3264299 114.925222,80.2761318 C117.909023,80.4248617 121.117923,80.0884318 124.351524,79.2220519 C128.403724,78.136342 132.006225,76.3492423 134.859925,74.1410326 C146.509726,83.3461113 157.122428,93.8235299 166.587929,105.352128 Z" id="路径" fill="#98E8F3" fill-rule="nonzero"></path>
            <path d="M110.790691,79.7347488 L109.831491,82.4152384 C105.21129,95.6675667 101.88719,109.411865 99.8660897,123.450363 C87.2115881,121.483763 76.5046267,116.343864 69.7040859,108.769765 C79.9386872,96.5249665 91.4186886,85.807418 103.87409,76.6331692 C105.73049,78.091839 108.100791,79.1390089 110.790691,79.7347488 Z" id="路径" fill="#98E8F3" fill-rule="nonzero"></path>
            <path d="M100.032962,70.9958613 C100.282162,71.9260911 100.656362,72.793911 101.141162,73.5960009 C88.7736602,82.7376297 77.3508587,93.3828283 67.1281674,105.507427 C65.1834272,102.700527 63.727097,99.6176274 62.8359339,96.2919279 C61.4388717,91.0783286 61.5429997,85.6869293 62.9446269,80.36613 C74.8264584,75.4433907 87.13566,71.6967412 99.7155615,69.1046315 C99.7607616,69.7410134 99.8653616,70.3703413 100.032962,70.9958613 Z" id="路径" fill="#98E8F3" fill-rule="nonzero"></path>
            <path d="M185.552971,68.6917706 L185.588371,69.1264905 C186.421072,80.742539 180.400171,92.7977374 169.661669,102.686736 C160.167068,91.1261376 149.537467,80.606839 137.881465,71.3342402 C139.691526,69.2929405 140.923576,67.0387508 141.409336,64.7304514 C156.068768,64.6042021 170.85957,65.934371 185.552971,68.6917706 Z" id="路径" fill="#98E8F3" fill-rule="nonzero"></path>
            <path d="M86.1561804,45.8191831 L85.7025804,46.1104431 C72.6552788,54.484582 63.3100776,65.6183805 59.5699771,77.3655789 C49.1503758,81.7919783 39.0597545,87.1139776 29.4009733,93.3371768 C38.4151744,71.9860796 53.4317763,53.7866821 72.3365787,40.8538838 C77.0349793,42.3418136 81.6415799,44.0012334 86.1561804,45.8191831 Z" id="路径" fill="#77D6F4" fill-rule="nonzero"></path>
            <path d="M226.598289,56.8477748 C234.39637,64.9654237 241.063591,74.1774725 246.346491,84.2305711 C242.041991,82.1966714 237.70249,80.2957717 233.33131,78.5248719 C233.0026,75.5402723 232.44782,72.5658727 231.656229,69.6117731 C230.517919,65.3637937 228.934559,61.3243342 226.949123,57.5095407 L226.598289,56.8477748 Z" id="路径" fill="#3AAEE5" fill-rule="nonzero"></path>
            <path d="M203.211304,37.9172432 C205.705804,39.464623 208.139404,41.1008828 210.507604,42.8216126 C218.827106,50.4868415 224.834606,59.8740403 227.726207,70.6647388 C228.273507,72.7074386 228.699107,74.7624383 229.006407,76.825038 C215.940305,71.8050387 202.614303,67.9446392 189.193702,65.2550396 C189.034702,64.3700397 188.835302,63.4813398 188.598102,62.5960399 C186.507001,54.792441 181.740701,48.2325418 175.0945,43.1815725 C183.497901,41.0298628 192.064602,39.378813 200.744403,38.2262892 L203.211304,37.9172432 Z" id="路径" fill="#77D6F4" fill-rule="nonzero"></path>
            <path d="M107.569658,55.9894806 L107.412158,56.1008305 C103.924757,58.5508802 101.399257,61.6063798 100.300657,64.8314794 C88.1457552,67.249779 76.2302537,70.7227786 64.6902522,75.264378 C69.0793528,64.8626794 78.3087539,55.0482507 90.7923555,47.7595817 C96.5448562,50.2456313 102.139157,52.995041 107.569658,55.9894806 Z" id="路径" fill="#98E8F3" fill-rule="nonzero"></path>
            <path d="M184.668018,63.6490382 C184.737618,63.9089381 184.803518,64.1691381 184.865718,64.4298381 C170.415516,61.8075384 155.879014,60.5421386 141.461102,60.6537386 C141.417342,60.4171386 141.362572,60.1779386 141.298642,59.9394387 C140.890242,58.4153389 140.146522,57.0587391 139.130512,55.8843392 C149.062713,51.3129298 159.371315,47.5357303 169.954616,44.5549407 C177.321617,49.3133901 182.566417,55.8062392 184.668018,63.6490382 Z" id="路径" fill="#98E8F3" fill-rule="nonzero"></path>
            <path d="M133.06532,35.6426659 C129.806019,40.5204953 126.769719,45.5261146 123.956718,50.6452639 C121.697218,50.7293639 119.345218,51.0795638 116.980118,51.7132638 C115.110517,52.2141637 113.336617,52.8643636 111.687917,53.6363635 C106.387216,50.6198639 100.924935,47.8398643 95.3129148,45.3046146 C100.640735,42.616775 106.470416,40.3749953 112.694917,38.7072555 C119.448018,36.8978757 126.136619,35.9059749 132.564719,35.6577333 L133.06532,35.6426659 Z" id="路径" fill="#98E8F3" fill-rule="nonzero"></path>
            <path d="M164.993079,41.7664664 L162.357079,42.5734963 C153.184078,45.4662759 144.231377,48.9585155 135.562286,53.0459149 C133.556205,51.9395151 131.152705,51.1919152 128.514075,50.8453152 C131.433365,45.6420159 134.597035,40.5641866 137.997476,35.6252172 C148.093277,35.8997172 157.363178,38.0497069 164.993079,41.7664664 Z" id="路径" fill="#98E8F3" fill-rule="nonzero"></path>
            <path d="M143.129288,20 C143.628388,20.0126624 144.126688,20.0283712 144.624288,20.0471084 C141.559188,23.7799595 138.651187,27.608679 135.891187,31.5249985 C128.094886,31.5190985 119.899585,32.5648983 111.641784,34.777398 C104.000083,36.8248977 96.9040822,39.7108974 90.5367814,43.2293969 C86.0235108,41.3226971 81.4118302,39.5780974 76.7107796,37.9972976 C80.2788401,35.7789979 83.9772906,33.7384982 87.788081,31.8935984 C94.1796818,29.0963988 100.945083,26.7119391 108.027884,24.8142194 C119.673885,21.6938498 131.234687,20.142255 142.331688,20.0085556 L143.129288,20 Z" id="路径" fill="#77D6F4" fill-rule="nonzero"></path>
            <path d="M149.671757,20.3425505 C166.88372,21.7110203 183.072922,26.7102497 197.473223,34.5741486 C188.365822,35.8926484 179.388621,37.7542482 170.59182,40.1534479 C162.395519,35.2965485 152.103218,32.3497489 140.794416,31.677649 C143.325157,28.1790995 145.982647,24.7578499 148.762127,21.4163604 L149.671757,20.3425505 Z" id="路径" fill="#77D6F4" fill-rule="nonzero"></path>
        </g>
    </g>
</svg>