<svg xmlns="http://www.w3.org/2000/svg" xmlns:xlink="http://www.w3.org/1999/xlink" fill="none" version="1.1" width="16" height="16" viewBox="0 0 16 16"><g style="mix-blend-mode:passthrough"><g style="mix-blend-mode:passthrough"><rect x="0" y="0" width="16" height="16" rx="0" fill="#000000" fill-opacity="0"/></g><g style="mix-blend-mode:passthrough"><path d="M12.429700095367432,9.882810023841857C12.968800095367431,10.421870023841858,13.393800095367432,11.050000023841857,13.689100095367431,11.750000023841858C13.979800095367432,12.435900023841858,14.134400095367432,13.162500023841858,14.150100095367431,13.909400023841858C14.151600095367431,13.979700023841858,14.095400095367431,14.037500023841858,14.025100095367431,14.037500023841858L13.087600095367431,14.037500023841858C13.018800095367432,14.037500023841858,12.964100095367431,13.984400023841857,12.962600095367431,13.915600023841858C12.931300095367432,12.709400023841859,12.446900095367432,11.579690023841858,11.590690095367432,10.723440023841858C10.704750095367432,9.837500023841859,9.528190095367432,9.350000023841858,8.275060095367433,9.350000023841858C7.021940095367432,9.350000023841858,5.845370095367432,9.837500023841859,4.959440095367432,10.723440023841858C4.103190095367432,11.579690023841858,3.6188100953674316,12.709400023841859,3.5875600953674316,13.915600023841858C3.5860000953674316,13.982800023841857,3.5313100953674317,14.037500023841858,3.4625600953674316,14.037500023841858L2.5250620953674314,14.037500023841858C2.454749895367432,14.037500023841858,2.3984998953674315,13.979700023841858,2.4000623940674317,13.909400023841858C2.415687395367432,13.162500023841858,2.5703750953674316,12.435900023841858,2.8610000953674315,11.751600023841858C3.1578750953674315,11.051560023841859,3.5813100953674315,10.423440023841858,4.120370095367432,9.884380023841858C4.659440095367431,9.343750023841858,5.287560095367432,8.920310023841857,5.9875600953674315,8.625000023841858C5.993810095367431,8.621870023841858,6.000060095367432,8.620310023841858,6.006310095367432,8.617190023841857C5.032870095367432,7.912500023841858,4.400060095367431,6.767190023841858,4.400060095367431,5.475000023841858C4.400060095367431,3.3343800238418577,6.134440095367432,1.600000023841858,8.275060095367433,1.600000023841858C10.415690095367431,1.600000023841858,12.150060095367431,3.3343800238418577,12.150060095367431,5.475000023841858C12.150060095367431,6.767190023841858,11.517250095367432,7.912500023841858,10.543810095367432,8.615620023841858C10.550060095367432,8.618750023841859,10.556310095367431,8.620310023841858,10.56256009536743,8.623440023841859C11.262560095367432,8.920310023841857,11.890690095367432,9.343750023841858,12.429700095367432,9.882810023841857ZM6.375060095367432,7.375000023841858C6.882870095367432,7.8828100238418575,7.557870095367432,8.162500023841858,8.275060095367433,8.162500023841858C8.992250095367432,8.162500023841858,9.667250095367432,7.8828100238418575,10.175060095367432,7.375000023841858C10.682870095367432,6.867190023841858,10.962560095367431,6.192190023841858,10.962560095367431,5.475000023841858C10.962560095367431,4.7578100238418575,10.682870095367432,4.0828100238418585,10.175060095367432,3.575000023841858C9.667250095367432,3.067190023841858,8.992250095367432,2.787500023841858,8.275060095367433,2.787500023841858C7.557870095367432,2.787500023841858,6.882870095367432,3.067190023841858,6.375060095367432,3.575000023841858C5.867250095367432,4.0828100238418585,5.587560095367431,4.7578100238418575,5.587560095367431,5.475000023841858C5.587560095367431,6.192190023841858,5.867250095367432,6.867190023841858,6.375060095367432,7.375000023841858Z" fill-rule="evenodd" fill="#3499E5" fill-opacity="1"/></g></g></svg>