<svg xmlns="http://www.w3.org/2000/svg" xmlns:xlink="http://www.w3.org/1999/xlink" fill="none" version="1.1" width="16" height="16" viewBox="0 0 16 16"><g style="mix-blend-mode:passthrough"><g style="mix-blend-mode:passthrough"><rect x="0" y="0" width="16" height="16" rx="0" fill="#000000" fill-opacity="0"/></g><g style="mix-blend-mode:passthrough"><path d="M6.492339718780517,14.837066144561767C6.987559718780518,14.945466144561767,7.493049718780518,15.000166144561767,7.999999718780518,14.999966144561768C8.506849718780519,15.000166144561767,9.012229718780517,14.945466144561767,9.507339718780518,14.837066144561767C9.770799718780518,14.778866144561768,9.976129718780518,14.572366144561768,10.032809718780518,14.308566144561768C10.143209718780518,13.788966144561767,10.468859718780518,13.340566144561768,10.928849718780517,13.074766144561767C11.388829718780517,12.808966144561767,11.939929718780517,12.750766144561767,12.445329718780517,12.914666144561767C12.701229718780517,12.997366144561768,12.981929718780517,12.923566144561768,13.164029718780517,12.725666144561767C13.851229718780518,11.973766144561768,14.367029718780518,11.081666144561767,14.675829718780518,10.110936144561768C14.756329718780517,9.854156144561767,14.679829718780518,9.573976144561767,14.480029718780518,9.393746144561767C14.084829718780517,9.038166144561767,13.859229718780517,8.531576144561768,13.859229718780517,7.999996144561767C13.859229718780517,7.468426144561768,14.084829718780517,6.961836144561768,14.480029718780518,6.6062461445617675C14.679829718780518,6.426026144561767,14.756329718780517,6.145846144561768,14.675829718780518,5.889066144561768C14.367329718780518,4.918506144561768,13.851829718780518,4.026466144561768,13.165029718780518,3.2745261445617677C12.982929718780518,3.0764561445617677,12.702229718780517,3.0026061445617676,12.446229718780518,3.0854661445617677C11.940929718780518,3.2493561445617676,11.389729718780517,3.1911861445617675,10.929789718780517,2.9254161445617677C10.469799718780518,2.659636144561768,10.144149718780518,2.2112161445617673,10.033749718780518,1.6915621445617677C9.977119718780518,1.4277221445617676,9.771779718780518,1.2211651445617675,9.508279718780518,1.1629691445617676C8.514819718780519,0.9456319445617676,7.486119718780517,0.9456319445617676,6.4926597187805175,1.1629691445617676C6.229199718780517,1.2211411445617677,6.023879718780518,1.4276261445617675,5.967189718780517,1.6914061445617676C5.856829718780517,2.2110861445617678,5.531189718780517,2.6595561445617673,5.071199718780518,2.9253561445617677C4.611209718780517,3.1911661445617674,4.060049718780517,3.2493561445617676,3.5546897187805175,3.0854661445617677C3.2987697187805174,3.0026561445617674,3.018059718780518,3.0764261445617676,2.8359397187805175,3.2743761445617676C2.1487997187805177,4.026306144561767,1.6330247187805176,4.918396144561767,1.3242187187805177,5.889066144561768C1.2436551187805176,6.145846144561768,1.3201400187805177,6.426026144561767,1.5199997187805177,6.6062461445617675C1.9151377187805174,6.961836144561768,2.1407727187805174,7.468426144561768,2.1407727187805174,7.999996144561767C2.1407727187805174,8.531576144561768,1.9151377187805174,9.038166144561767,1.5199997187805177,9.393746144561767C1.3201400187805177,9.573976144561767,1.2436551187805176,9.854156144561767,1.3242187187805177,10.110936144561768C1.6328667187805177,11.081566144561767,2.1485427187805177,11.973566144561767,2.8356297187805177,12.725466144561768C3.0176797187805176,12.923566144561768,3.2983997187805176,12.997466144561768,3.5543797187805177,12.914666144561767C4.059709718780518,12.750766144561767,4.610849718780518,12.808966144561767,5.070839718780517,13.074766144561767C5.530819718780518,13.340566144561768,5.856479718780518,13.788966144561767,5.966879718780517,14.308566144561768C6.023559718780517,14.572366144561768,6.2288897187805174,14.778866144561768,6.492339718780517,14.837066144561767ZM6.991549718780518,13.788766144561768C7.658959718780517,13.903266144561767,8.341009718780517,13.903266144561767,9.008419718780518,13.788766144561768C9.478109718780518,12.312266144561768,10.994849718780518,11.436366144561768,12.508429718780517,11.767466144561768C12.942529718780518,11.247566144561768,13.284129718780518,10.657026144561767,13.518429718780517,10.021546144561768C12.473929718780518,8.876226144561768,12.473929718780518,7.123736144561768,13.518429718780517,5.978416144561767C13.283929718780518,5.342926144561767,12.942029718780518,4.752376144561767,12.507829718780517,4.232486144561768C10.994229718780517,4.563616144561768,9.477479718780518,3.6876961445617678,9.007799718780518,2.2112361445617674C8.340379718780518,2.0966961445617676,7.658339718780518,2.0966961445617676,6.990919718780518,2.2112361445617674C6.521239718780517,3.6876961445617678,5.004489718780517,4.563616144561768,3.4909197187805177,4.232486144561768C3.056839718780518,4.7523861445617674,2.7152097187805175,5.342936144561768,2.480919718780518,5.978416144561767C3.5254697187805175,7.123736144561768,3.5254697187805175,8.876226144561768,2.480919718780518,10.021546144561768C2.7156497187805178,10.657086144561768,3.0576997187805173,11.247666144561768,3.4921697187805174,11.767466144561768C5.005739718780518,11.436366144561768,6.522489718780518,12.312266144561768,6.991549718780518,13.788766144561768L6.991549718780518,13.788766144561768ZM12.278929718780518,3.6728461445617677C12.306529718780517,3.6728461445617677,12.328929718780518,3.6504561445617676,12.328929718780518,3.6228461445617675C12.328929718780518,3.5952261445617677,12.306529718780517,3.5728461445617676,12.278929718780518,3.5728461445617676C12.251329718780518,3.5728461445617676,12.228929718780517,3.5952261445617677,12.228929718780517,3.6228461445617675C12.228929718780517,3.6504561445617676,12.251329718780518,3.6728461445617677,12.278929718780518,3.6728461445617677ZM5.289059718780518,8.001526144561767C5.2898397187805175,9.495906144561767,6.505779718780517,10.710906144561768,7.999999718780518,10.710906144561768L8.001559718780516,10.710906144561768C8.720559718780517,10.710526144561767,9.409949718780517,10.424526144561767,9.918069718780517,9.915826144561768C10.426189718780517,9.407126144561767,10.711389718780518,8.717406144561767,10.710929718780518,7.998406144561768C10.710149718780517,6.5040261445617675,9.494219718780517,5.289026144561768,7.999999718780518,5.289026144561768L7.998429718780518,5.289026144561768C7.279439718780518,5.2894061445617675,6.590039718780518,5.575406144561768,6.081919718780518,6.084106144561767C5.573809718780518,6.592806144561767,5.288599718780517,7.282526144561768,5.289059718780518,8.001526144561767ZM8.000009718780518,6.414026144561768L8.000009718780518,6.414026144561768C7.123179718780517,6.414286144561768,6.4133397187805175,7.1245461445617675,6.413599718780517,8.000436144561768C6.413859718780517,8.876326144561768,7.124119718780517,9.586166144561767,8.000009718780518,9.585906144561768L8.000009718780518,9.585906144561768C8.876829718780517,9.585646144561768,9.586669718780518,8.875386144561768,9.586409718780518,7.999496144561768C9.586159718780518,7.1236061445617676,8.875899718780516,6.413766144561768,8.000009718780518,6.414026144561768Z" fill-rule="evenodd" fill="#FFFFFF" fill-opacity="0.8500000238418579"/></g></g></svg>