<svg xmlns="http://www.w3.org/2000/svg" xmlns:xlink="http://www.w3.org/1999/xlink" fill="none" version="1.1" width="16" height="16" viewBox="0 0 16 16"><g style="mix-blend-mode:passthrough"><g style="mix-blend-mode:passthrough"><g style="mix-blend-mode:passthrough"><rect x="0" y="0" width="16" height="16" rx="0" fill="#000000" fill-opacity="0"/></g><g style="mix-blend-mode:passthrough"><path d="M13.9375,5.267341059303284L10.715,2.0595270593032837C10.5162,1.8605860593032837,10.24625,1.7491750193032838,9.965,1.7499955598032837L2.8125,1.7499955598032837C2.225947,1.7505984333032838,1.750602874,2.2259430593032836,1.75,2.8124910593032837L1.75,13.187491059303284C1.750602874,13.774091059303284,2.225947,14.249391059303283,2.8125,14.249991059303284L13.1875,14.249991059303284C13.7741,14.249391059303283,14.2494,13.774091059303284,14.25,13.187491059303284L14.25,6.020311059303284C14.2493,5.737901059303283,14.137,5.467231059303284,13.9375,5.267341059303284ZM13.125,13.124991059303284L11.71875,13.124991059303284L11.71875,9.124991059303284C11.71875,8.779811059303285,11.43893,8.499991059303284,11.09375,8.499991059303284L4.90625,8.499991059303284C4.56107,8.499991059303284,4.28125,8.779811059303285,4.28125,9.124991059303284L4.28125,13.124991059303284L2.875,13.124991059303284L2.875,2.8749910593032837L9.93969,2.8749910593032837L13.125,6.0468710593032835L13.125,13.124991059303284ZM5,5.890611059303284C5,4.872341059303284,5.82547,4.0468710593032835,6.84375,4.0468710593032835C7.86156,4.047981059303284,8.68638,4.872801059303283,8.6875,5.890611059303284C8.6875,6.908891059303284,7.86203,7.7343710593032835,6.84375,7.7343710593032835C5.82547,7.7343710593032835,5,6.908891059303284,5,5.890611059303284ZM6.84375,6.8593710593032835C6.30872,6.8593710593032835,5.875,6.425641059303284,5.875,5.890611059303284C5.875,5.355591059303284,6.30872,4.9218710593032835,6.84375,4.9218710593032835C7.37878,4.9218710593032835,7.8125,5.355591059303284,7.8125,5.890611059303284C7.8119,6.4253910593032835,7.37853,6.8587610593032835,6.84375,6.8593710593032835ZM5.28125,13.124991059303284L10.71875,13.124991059303284L10.71875,9.499991059303284L5.28125,9.499991059303284L5.28125,13.124991059303284Z" fill-rule="evenodd" fill="#FFFFFF" fill-opacity="0.8500000238418579"/></g></g></g></svg>