<svg xmlns="http://www.w3.org/2000/svg" xmlns:xlink="http://www.w3.org/1999/xlink" fill="none" version="1.1" width="24" height="24" viewBox="0 0 24 24"><g><g style="opacity:0;mix-blend-mode:passthrough"><rect x="0" y="0" width="24" height="24" rx="4" fill="#FFFFFF" fill-opacity="1"/></g><g style="mix-blend-mode:passthrough"><g style="mix-blend-mode:passthrough"><rect x="4" y="4" width="16" height="16" rx="0" fill="#000000" fill-opacity="0"/></g><g><path d="M18.698047414398193,8.185999523162842L16.537047414398195,5.837999523162842C16.274347414398193,5.5452835231628415,15.900247414398194,5.377130513162842,15.507047414398194,5.374999761581842L14.962047414398194,5.374999761581842C14.471997414398194,5.374999761581842,14.031997414398193,5.632999523162842,13.754997414398193,6.083999523162841C13.392997414398193,6.661999523162842,12.729997414398193,7.0069995231628415,11.978997414398194,7.0069995231628415C11.261997414398193,7.0069995231628415,10.588997414398193,6.660999523162841,10.214997414398194,6.101999523162842C9.990537414398194,5.657666523162842,9.535807414398192,5.3767923131628415,9.037997414398193,5.374999523162842L8.565997414398193,5.374999523162842C8.103997414398194,5.374999523162842,7.737997414398194,5.533999523162842,7.4759974143981935,5.846999523162841L5.300000414398193,8.189999523162841L5.298000414398193,8.191999523162842C5.035689414398194,8.47571952316284,4.889999926098193,8.847799523162841,4.889999985698194,9.233999523162842C4.886749264398193,9.618519523162842,5.034295414398193,9.988999523162843,5.301000414398193,10.265999523162842L6.562997414398193,11.635999523162841C6.814997414398193,11.909999523162842,7.178997414398193,12.072999523162842,7.534997414398193,12.072999523162842L7.572997414398193,12.072999523162842L7.572997414398193,17.49499952316284C7.572997414398193,18.11899952316284,8.060997414398194,18.62599952316284,8.658997414398193,18.62599952316284L15.339047414398193,18.62599952316284C15.938047414398193,18.62599952316284,16.425047414398193,18.11899952316284,16.425047414398193,17.49499952316284L16.425047414398193,12.072999523162842L16.464047414398195,12.072999523162842C16.830047414398194,12.072999523162842,17.175047414398193,11.916999523162842,17.43504741439819,11.634999523162842L18.702047414398194,10.259999523162842C18.964047414398195,9.97599952316284,19.10904741439819,9.603999523162841,19.108047414398193,9.217999523162842C19.111247414398193,8.833489523162841,18.963747414398192,8.462999523162843,18.69704741439819,8.185999523162842L18.698047414398193,8.185999523162842ZM17.875047414398193,9.496999523162842L16.60904741439819,10.872999523162843C16.540047414398195,10.947999523162842,16.48404741439819,10.947999523162842,16.465047414398192,10.947999523162842C16.409547414398194,10.941249523162842,16.358347414398196,10.914599523162842,16.321047414398194,10.872999523162843C16.212047414398192,10.757119523162842,16.06004741439819,10.69127952316284,15.901047414398194,10.69099952316284C15.568647414398193,10.691549523162841,15.299847414398194,10.961689523162843,15.301047414398193,11.293999523162842L15.301047414398193,17.499999523162842L8.699997414398194,17.499999523162842L8.699997414398194,11.293999523162842C8.699997414398194,10.961999523162842,8.431997414398193,10.692999523162841,8.099997414398192,10.69099952316284C7.940797414398194,10.69165952316284,7.788887414398193,10.757849523162843,7.679997414398193,10.87399952316284C7.642447414398193,10.915159523162842,7.591327414398194,10.941429523162842,7.535997414398193,10.947999523162842C7.480557414398193,10.941069523162842,7.429457414398193,10.914459523162842,7.391997414398194,10.872999523162843L6.124997414398194,9.497999523162843L6.111997414398194,9.484999523162841C5.978997414398194,9.348999523162842,5.984997414398194,9.106999523162841,6.123997414398193,8.954999523162842L8.307997414398194,6.606999523162842L8.325997414398193,6.5869995231628415L8.341997414398193,6.566999523162842C8.361997414398193,6.541999523162842,8.403997414398194,6.500999523162841,8.565997414398193,6.500999523162841L9.037997414398193,6.500999523162841C9.113487414398193,6.502829523162842,9.181367414398192,6.547429523162842,9.212997414398194,6.6159995231628415C9.224077414398193,6.639839523162841,9.236777414398194,6.662889523162842,9.250997414398192,6.684999523162842L9.252997414398195,6.686999523162842C9.538777414398194,7.124829523162842,9.929667414398192,7.4840995231628415,10.389997414398193,7.731999523162842C10.877857414398193,7.995239523162842,11.423647414398193,8.13271952316284,11.977997414398192,8.131999523162841C12.537997414398193,8.131999523162841,13.086997414398194,7.997999523162842,13.562997414398193,7.741999523162842C14.031297414398193,7.493409523162842,14.426387414398194,7.126589523162842,14.708997414398194,6.677999523162842L14.710997414398193,6.673999523162841C14.817997414398194,6.499999523162842,14.926047414398193,6.499999523162842,14.961047414398193,6.499999523162842L15.507047414398194,6.499999523162842C15.582347414398193,6.502269523162842,15.653247414398193,6.536439523162842,15.702047414398193,6.593999523162842L17.87404741439819,8.953999523162842L17.886047414398192,8.965999523162843C18.020047414398192,9.101999523162842,18.015047414398193,9.345999523162842,17.87404741439819,9.496999523162842L17.875047414398193,9.496999523162842ZM10.218997414398192,10.921999523162842L12.093997414398192,10.921999523162842C12.176997414398194,10.921999523162842,12.218997414398192,10.963999523162842,12.218997414398192,11.046999523162842L12.218997414398192,13.452999523162841C12.218997414398192,13.535999523162841,12.176997414398194,13.577999523162841,12.093997414398192,13.577999523162841L10.218997414398192,13.577999523162841C10.134997414398192,13.577999523162841,10.093997414398192,13.535999523162841,10.093997414398192,13.452999523162841L10.093997414398192,11.046999523162842C10.093997414398192,10.963999523162842,10.134997414398192,10.921999523162842,10.218997414398192,10.921999523162842Z" fill="#FFFFFF" fill-opacity="0.8500000238418579"/></g></g></g></svg>