<svg xmlns="http://www.w3.org/2000/svg" xmlns:xlink="http://www.w3.org/1999/xlink" fill="none" version="1.1" width="16" height="16" viewBox="0 0 16 16"><g style="mix-blend-mode:passthrough"><g style="mix-blend-mode:passthrough"><rect x="0" y="0" width="16" height="16" rx="0" fill="#000000" fill-opacity="0"/></g><g style="mix-blend-mode:passthrough"><path d="M13.578124660968781,1.3606250286102295C13.50442466096878,1.3608306346102295,13.431724660968781,1.3773175286102295,13.36512466096878,1.4089062286102294L1.2462496609687805,7.09750502861023C0.8890624609687805,7.265005028610229,0.8576566609687806,7.76093502861023,1.1907816609687805,7.97250502861023L4.390624660968781,10.002345028610229L4.390624660968781,14.40752502861023C4.390624660968781,14.47412502861023,4.41717466096878,14.53792502861023,4.46440466096878,14.58482502861023C4.5116246609687805,14.63172502861023,4.57561466096878,14.65792502861023,4.6421846609687805,14.65752502861023C4.70342466096878,14.65772502861023,4.7625146609687805,14.63492502861023,4.807814660968781,14.59372502861023L7.627654660968781,12.055925028610229L11.565124660968781,14.55392502861023C11.70852466096878,14.64492502861023,11.888224660968781,14.65692502861023,12.04242466096878,14.585825028610229C12.19662466096878,14.51472502861023,12.30422466096878,14.37032502861023,12.328124660968781,14.20222502861023L14.07312466096878,1.9318750286102295C14.11812466096878,1.6154690286102296,13.866124660968781,1.3606250286102295,13.578124660968781,1.3606250286102295ZM12.796824660968781,2.9187350286102296L11.35032466096878,13.08542502861023L8.23030466096878,11.10591502861023L7.50951466096878,10.64873502861023L6.874984660968781,11.21966502861023L5.51561466096878,12.44292502861023L5.51561466096878,9.38373502861023L4.993274660968781,9.05232502861023L2.7546746609687807,7.632165028610229L12.796824660968781,2.9187350286102296ZM7.105154660968781,8.169205028610229C6.8896746609687805,8.415275028610228,6.89148466096878,8.78339502861023,7.109374660968781,9.027325028610228C7.209014660968781,9.13798502861023,7.35174466096878,9.20122502861023,7.50123466096878,9.200185028610228C7.650714660968781,9.199135028610229,7.7925446609687805,9.13390502861023,7.890624660968781,9.02107502861023L11.38232466096878,5.852325028610229C11.59752466096878,5.606595028610229,11.59612466096878,5.239065028610229,11.379024660968781,4.9949850286102295C11.36362466096878,4.977745028610229,11.347124660968781,4.961515028610229,11.32972466096878,4.94639502861023C11.225224660968781,4.856405028610229,11.08922466096878,4.81162502861023,10.951754660968781,4.8219150286102295C10.81425466096878,4.832195028610229,10.68648466096878,4.89670502861023,10.596554660968781,5.00123502861023L7.105154660968781,8.169205028610229Z" fill-rule="evenodd" fill="#FFFFFF" fill-opacity="0.8500000238418579"/></g></g></svg>