<svg xmlns="http://www.w3.org/2000/svg" xmlns:xlink="http://www.w3.org/1999/xlink" fill="none" version="1.1" width="18" height="18" viewBox="0 0 18 18"><g style="mix-blend-mode:passthrough"><g style="mix-blend-mode:passthrough"><rect x="0" y="0" width="18" height="18" rx="0" fill="#000000" fill-opacity="0"/></g><g style="mix-blend-mode:passthrough"><path d="M2.503651103439331,5.858263875999451L8.691151103439331,9.31939387599945C8.883071103439331,9.42670387599945,9.116931103439331,9.42670387599945,9.30885110343933,9.31939387599945L15.49631110343933,5.858263875999451C15.69661110343933,5.74627387599945,15.820511103439332,5.5346738759994505,15.82031110343933,5.305243875999451C15.820011103439331,5.075813875999451,15.695611103439331,4.864483875999451,15.495111103439331,4.7529538759994505L9.307611103439331,1.3102733759994507C9.116341103439332,1.2038740759994506,8.88366110343933,1.2038740759994506,8.692381103439331,1.3102733759994507L2.504882103439331,4.7529538759994505C2.304386103439331,4.864483875999451,2.1799669094393312,5.075813875999451,2.179711103439331,5.305243875999451C2.1794560854393312,5.5346738759994505,2.303404103439331,5.74627387599945,2.503651103439331,5.858263875999451ZM9.000001103439331,2.5875338759994504L13.888611103439331,5.30757387599945L9.000001103439331,8.042023875999451L4.111351103439331,5.30757387599945L9.000001103439331,2.5875338759994504ZM14.884411103439332,8.602913875999452L8.999991103439331,11.813373875999451L3.1891811034393314,8.642993875999451C2.883380103439331,8.473683875999452,2.498222103439331,8.584333875999452,2.328912103439331,8.89014387599945C2.159602803439331,9.19595387599945,2.270254903439331,9.581103875999451,2.576061103439331,9.75041387599945L2.582916103439331,9.754103875999451L8.69694110343933,13.089873875999452C8.885831103439331,13.192973875999451,9.11414110343933,13.192973875999451,9.30303110343933,13.089873875999452L15.490511103439331,9.713853875999451C15.792311103439332,9.54405387599945,15.901511103439331,9.16324387599945,15.73571110343933,8.85928387599945C15.569911103439331,8.55531387599945,15.19051110343933,8.44107387599945,14.884411103439332,8.602913875999452ZM14.884511103439332,12.32227387599945L9.00001110343933,15.53237387599945L3.189211103439331,12.36187387599945C2.882382103439331,12.194373875999451,2.497932103439331,12.30747387599945,2.330516103439331,12.614273875999451C2.163099103439331,12.92107387599945,2.276112203439331,13.305573875999452,2.5829381034393313,13.47297387599945L8.696961103439332,16.80877387599945C8.885851103439332,16.91177387599945,9.114161103439331,16.91177387599945,9.30305110343933,16.80877387599945L15.490511103439331,13.43267387599945C15.78581110343933,13.259873875999451,15.89021110343933,12.88367387599945,15.72631110343933,12.58337387599945C15.56241110343933,12.28317387599945,15.189511103439331,12.16747387599945,14.884511103439332,12.32227387599945Z" fill-rule="evenodd" fill="#FFFFFF" fill-opacity="1"/></g></g></svg>