<svg xmlns="http://www.w3.org/2000/svg" xmlns:xlink="http://www.w3.org/1999/xlink" fill="none" version="1.1" width="18" height="18" viewBox="0 0 18 18"><defs><clipPath id="master_svg0_489_019497"><rect x="0" y="0" width="18" height="18" rx="0"/></clipPath></defs><g clip-path="url(#master_svg0_489_019497)"><g><path d="M2.12631640625,14.8882796875L12.79691640625,14.8882796875C12.89031640625,14.8882796875,12.93751640625,14.9355796875,12.93751640625,15.0289796875L12.93751640625,15.8726796875C12.93751640625,15.9671796875,12.89031640625,16.013279687500003,12.79691640625,16.013279687500003L2.12744140625,16.013279687500003C2.03294140625,16.013279687500003,1.98681640625,15.9671796875,1.98681640625,15.8726796875L1.98681640625,15.0289796875C1.98681640625,14.9355796875,2.03294140625,14.8882796875,2.12744140625,14.8882796875L2.12631640625,14.8882796875ZM14.43151640625,14.8882796875L15.82091640625,14.8882796875C15.91431640625,14.8882796875,15.96041640625,14.9355796875,15.96041640625,15.0289796875L15.96041640625,15.8726796875C15.96041640625,15.9671796875,15.91431640625,16.013279687500003,15.82091640625,16.013279687500003L14.43151640625,16.013279687500003C14.33821640625,16.013279687500003,14.29091640625,15.9671796875,14.29091640625,15.8726796875L14.29091640625,15.0289796875C14.29091640625,14.9355796875,14.33821640625,14.8882796875,14.43151640625,14.8882796875ZM5.00631640625,13.5472796875C5.04092640625,13.5472796875,5.07549640625,13.5450796875,5.10981640625,13.5405796875L7.75018640625,13.2030796875C7.92303640625,13.1802796875,8.08355640625,13.1012796875,8.20693640625,12.9780796875L15.29221640625,5.8939496875C15.53401640625,5.6520696875,15.66681640625,5.3213196875,15.65781640625,4.9793196875C15.65171640625,4.6420896875,15.51451640625,4.320479687500001,15.27531640625,4.0826996875L13.67221640625,2.4806986875C13.43461640625,2.2410596875,13.11291640625,2.1034482975,12.77551640625,2.0970738645C12.43351640625,2.0884811375,12.10281640625,2.2206526875,11.86094640625,2.4626986875L4.77794640625,9.546819687500001C4.65478640625,9.6702096875,4.57570640625,9.8307296875,4.552946406249999,10.0035696875L4.21431640625,12.6461796875C4.15498640625,13.1231796875,4.525636406249999,13.5449796875,5.00631640625,13.5472796875ZM5.78706640625,10.3275696875L12.75191640625,3.3626996875C12.76201640625,3.3626996875,12.77111640625,3.3683196875,12.77671640625,3.3750696875L14.37981640625,4.9781996875C14.38771640625,4.9838196875000005,14.39101640625,4.9928196875,14.39331640625,5.0029496875L7.42506640625,11.9678196875L5.54519640625,12.2085796875L5.78481640625,10.3275696875L5.78706640625,10.3275696875Z" fill="#FFFFFF" fill-opacity="0.8500000238418579"/></g></g></svg>