<svg xmlns="http://www.w3.org/2000/svg" xmlns:xlink="http://www.w3.org/1999/xlink" fill="none" version="1.1" width="16" height="18" viewBox="0 0 16 18"><g><g><path d="M12.493998619232178,6.557888984313965C12.317998619232178,6.258915284313965,11.925998619232178,6.155349084313965,11.619998619232177,6.329261984313965L8.085998619232178,8.322417984313965L4.5000006192321775,6.2999509843139645C4.496000619232178,6.297996884313965,4.490000619232178,6.294088684313965,4.486000619232177,6.292134584313965C4.1780006192321775,6.124083784313965,3.788000619232178,6.229604084313965,3.6140002192321776,6.532485984313965C3.442000219232178,6.833414984313965,3.5500002192321776,7.214457984313965,3.860000619232178,7.3844679843139645L7.419998619232178,9.393257984313966L7.419998619232178,13.307277984313965C7.419998619232178,13.653147984313964,7.705998619232178,13.932587984313965,8.059998619232179,13.932587984313965C8.413998619232178,13.932587984313965,8.699998619232177,13.653147984313964,8.699998619232177,13.307277984313965L8.699998619232177,9.420617984313965L12.259998619232178,7.413777984313965C12.565998619232177,7.239867984313965,12.671998619232177,6.856863984313965,12.493998619232178,6.557888984313965Z" fill="#FFFFFF" fill-opacity="0.8500000238418579"/></g><g><path d="M8,1.60039L14.56,5.30142L14.56,12.7015L8,16.4006L1.44,12.7015L1.44,5.29946L8,1.60039ZM8,0C7.972,0,7.944,0.00781632,7.92,0.0214949L0.08,4.44358C0.03,4.47093,0,4.52369,0,4.57841L0,13.4226C0,13.4792,0.03,13.53,0.08,13.5574L7.92,17.9795C7.97,18.0068,8.03,18.0068,8.08,17.9795L15.92,13.5574C15.97,13.53,16,13.4773,16,13.4226L16,4.57841C16,4.52174,15.97,4.47093,15.92,4.44358L8.08,0.0195408C8.056,0.00586224,8.028,0,8,0Z" fill="#FFFFFF" fill-opacity="0.8500000238418579"/></g></g></svg>