<svg xmlns="http://www.w3.org/2000/svg" xmlns:xlink="http://www.w3.org/1999/xlink" fill="none" version="1.1" width="18" height="18" viewBox="0 0 18 18"><defs><clipPath id="master_svg0_489_019522"><rect x="0" y="0" width="18" height="18" rx="0"/></clipPath></defs><g clip-path="url(#master_svg0_489_019522)"><g><path d="M16.570145703125,5.43370328125L12.566245703125,1.42870328125C12.099345703125,0.96191628125,11.342345703125,0.96191628125,10.875405703125,1.42870328125L1.429902703125,10.87645328125C0.962493703125,11.34321328125,0.962493703125,12.10061328125,1.429902703125,12.56731328125L5.432655703125,16.570113281250002C5.899375703125,17.03751328125,6.656805703125,17.03751328125,7.123525703125,16.570113281250002L16.570145703125,7.12345328125C17.036945703125,6.65647328125,17.036945703125,5.89955328125,16.570145703125,5.43258328125L16.570145703125,5.43370328125ZM6.277525703125,15.62391328125L2.3760257031250003,11.72241328125L11.722545703125,2.3748232812500003L15.624045703125,6.27745328125L6.277525703125,15.62511328125L6.277525703125,15.62391328125ZM8.901025703125,6.41357328125C8.846075703124999,6.35849328125,8.756845703125,6.35849328125,8.701905703125,6.41357328125L8.204655703124999,6.91082328125C8.149565703124999,6.96577328125,8.149565703124999,7.05500328125,8.204655703124999,7.10995328125L10.964275703125,9.86957328125C11.019225703125,9.92466328125,11.108445703125,9.92466328125,11.163445703125,9.86957328125L11.660645703125,9.37232328125C11.715745703125,9.31738328125,11.715745703125,9.22815328125,11.660645703125,9.17320328125L8.901025703125,6.41470328125L8.901025703125,6.41357328125ZM6.240405703125,8.87507328125L6.737655703125,8.37895328125C6.805155703125,8.31145328125,6.870405703125,8.31145328125,6.936775703125,8.37895328125L9.150775703125,10.59182328125C9.217155703125,10.65932328125,9.217155703125,10.72457328125,9.150775703125,10.79095328125L8.653525703125,11.28821328125C8.586025703125,11.35461328125,8.520775703125,11.35461328125,8.454405703125001,11.28821328125L6.240405703125,9.07420328125C6.174025703125,9.00783328125,6.174025703125,8.94145328125,6.240405703125,8.87507328125ZM5.0737757031249995,10.24307328125C5.018835703125,10.18799328125,4.929595703125,10.18799328125,4.874655703125001,10.24307328125L4.378525703125,10.74032328125C4.3234457031249995,10.79527328125,4.3234457031249995,10.88450328125,4.378525703125,10.93945328125L6.591405703125,13.15231328125C6.646345703125,13.20741328125,6.735575703125,13.20741328125,6.790525703125,13.15231328125L7.286655703125,12.65621328125C7.341735703125,12.60121328125,7.341735703125,12.51201328125,7.286655703125,12.45711328125L5.0737757031249995,10.24307328125ZM10.665025703125,4.450453281250001L10.168905703125,4.94770328125C10.113815703125,5.00265328125,10.113815703125,5.09188328125,10.168905703125,5.14682328125L12.381745703125,7.36083328125C12.436745703125,7.41591328125,12.525945703125,7.41591328125,12.580945703125,7.36083328125L13.078145703125,6.86358328125C13.133245703125,6.80863328125,13.133245703125,6.71940328125,13.078145703125,6.66445328125L10.864155703125,4.450453281250001C10.809205703125,4.39536328125,10.719975703125,4.39536328125,10.665025703125,4.450453281250001Z" fill="#FFFFFF" fill-opacity="0.8500000238418579"/></g></g></svg>