<svg xmlns="http://www.w3.org/2000/svg" xmlns:xlink="http://www.w3.org/1999/xlink" fill="none" version="1.1" width="18" height="18" viewBox="0 0 18 18"><g style="mix-blend-mode:passthrough"><g style="mix-blend-mode:passthrough"><rect x="0" y="0" width="18" height="18" rx="0" fill="#000000" fill-opacity="0"/></g><g style="mix-blend-mode:passthrough"><path d="M16.238346712112428,5.934550375442505C14.663446712112426,2.194550375442505,10.510716712112426,0.25647737544250493,6.632596712112427,1.4515353754425049C2.754486712112427,2.646590375442505,0.4129307121124267,6.585900375442505,1.2162827121124267,10.563660375442504C2.019635712112427,14.541420375442504,5.706476712112427,17.263220375442504,9.744416712112427,16.859520375442507C13.782346712112426,16.455920375442503,16.857446712112427,13.058020375442505,16.857446712112427,9.000000375442504C16.858846712112427,7.946990375442505,16.648346712112428,6.904460375442505,16.238346712112428,5.934550375442505ZM13.605446712112427,13.623020375442504C11.399146712112426,15.828520375442505,7.942106712112427,16.168420375442505,5.3485267121124265,14.434820375442506C2.7549367121124266,12.701120375442505,1.747205712112427,9.376770375442504,2.9416267121124267,6.494810375442505C4.136046712112426,3.612860375442505,7.1999467121124265,1.975996375442505,10.259536712112427,2.5852803754425047C13.319146712112428,3.1945603754425047,15.522246712112427,5.880290375442505,15.521446712112427,8.999950375442506C15.525846712112427,10.735020375442504,14.835946712112428,12.399720375442504,13.605446712112427,13.623020375442504ZM9.562506712112427,8.437470375442505L12.691446712112427,8.437470375442505C12.769046712112427,8.437470375442505,12.832046712112426,8.500430375442505,12.832046712112426,8.578090375442505L12.832046712112426,9.421840375442505C12.832046712112426,9.499510375442505,12.769046712112427,9.562470375442505,12.691446712112427,9.562470375442505L9.562506712112427,9.562470375442505L9.562506712112427,12.691420375442505C9.562506712112427,12.769020375442505,9.499546712112426,12.832020375442506,9.421886712112427,12.832020375442506L8.578136712112427,12.832020375442506C8.500466712112427,12.832020375442506,8.437506712112427,12.769020375442505,8.437506712112427,12.691420375442505L8.437506712112427,9.562470375442505L5.308606712112427,9.562470375442505C5.230936712112427,9.562470375442505,5.167976712112427,9.499510375442505,5.167976712112427,9.421840375442505L5.167976712112427,8.578090375442505C5.167976712112427,8.500430375442505,5.230936712112427,8.437470375442505,5.308606712112427,8.437470375442505L8.437506712112427,8.437470375442505L8.437506712112427,5.308560375442505C8.437506712112427,5.230900375442505,8.500466712112427,5.167940375442505,8.578136712112427,5.167940375442505L9.421886712112427,5.167940375442505C9.499546712112426,5.167940375442505,9.562506712112427,5.230900375442505,9.562506712112427,5.308560375442505L9.562506712112427,8.437470375442505Z" fill-rule="evenodd" fill="#FFFFFF" fill-opacity="0.8500000238418579"/></g></g></svg>