<svg xmlns="http://www.w3.org/2000/svg" xmlns:xlink="http://www.w3.org/1999/xlink" fill="none" version="1.1" width="18" height="18" viewBox="0 0 18 18"><g style="mix-blend-mode:passthrough"><g style="mix-blend-mode:passthrough"><rect x="0" y="0" width="18" height="18" rx="0" fill="#000000" fill-opacity="0"/></g><g style="mix-blend-mode:passthrough"><path d="M3.3569998741149902,2.2319998741149902L6.97859987411499,2.2319998741149902C7.599599874114991,2.2328963581149903,8.103599874114991,2.7359998741149902,8.103599874114991,3.3569998741149902L8.103599874114991,6.97859987411499C8.103599874114991,7.599599874114991,7.599599874114991,8.103599874114991,6.97859987411499,8.103599874114991L3.3569998741149902,8.103599874114991C2.7359998741149902,8.103599874114991,2.2328963581149903,7.599599874114991,2.2319998741149902,6.97859987411499L2.2319998741149902,3.3569998741149902C2.2328963581149903,2.7359998741149902,2.7359998741149902,2.2328963581149903,3.3569998741149902,2.2319998741149902ZM14.624999874114991,2.2319998741149902L11.00427987411499,2.2319998741149902C10.38327987411499,2.2328963581149903,9.87927987411499,2.7359998741149902,9.87927987411499,3.3569998741149902L9.87927987411499,6.97859987411499C9.87927987411499,7.599599874114991,10.38327987411499,8.103599874114991,11.00427987411499,8.103599874114991L14.624999874114991,8.103599874114991C15.24599987411499,8.103599874114991,15.749999874114991,7.599599874114991,15.749999874114991,6.97859987411499L15.749999874114991,3.3569998741149902C15.749999874114991,2.7359998741149902,15.24599987411499,2.2328963581149903,14.624999874114991,2.2319998741149902ZM6.97859987411499,6.97859987411499L3.3569998741149902,6.97859987411499L3.3569998741149902,3.3569998741149902L6.97859987411499,3.3569998741149902L6.97859987411499,6.97859987411499ZM14.624999874114991,6.97859987411499L11.00427987411499,6.97859987411499L11.00427987411499,3.3569998741149902L14.624999874114991,3.3569998741149902L14.624999874114991,6.97859987411499ZM6.97859987411499,9.808169874114991L3.3569998741149902,9.808169874114991C2.7359998741149902,9.80904987411499,2.2328963581149903,10.312169874114991,2.2319998741149902,10.93316987411499L2.2319998741149902,14.554799874114991C2.2328963581149903,15.17579987411499,2.7359998741149902,15.679799874114991,3.3569998741149902,15.679799874114991L6.97859987411499,15.679799874114991C7.599599874114991,15.679799874114991,8.103599874114991,15.17579987411499,8.103599874114991,14.554799874114991L8.103599874114991,10.93316987411499C8.103599874114991,10.312169874114991,7.599599874114991,9.80904987411499,6.97859987411499,9.808169874114991ZM11.00427987411499,9.808169874114991L14.624999874114991,9.808169874114991C15.24599987411499,9.80904987411499,15.749999874114991,10.312169874114991,15.749999874114991,10.93316987411499L15.749999874114991,14.554799874114991C15.749999874114991,15.17579987411499,15.24599987411499,15.679799874114991,14.624999874114991,15.679799874114991L11.00427987411499,15.679799874114991C10.38327987411499,15.679799874114991,9.87927987411499,15.17579987411499,9.87927987411499,14.554799874114991L9.87927987411499,10.93316987411499C9.87927987411499,10.312169874114991,10.38327987411499,9.80904987411499,11.00427987411499,9.808169874114991ZM6.97859987411499,14.554799874114991L3.3569998741149902,14.554799874114991L3.3569998741149902,10.93316987411499L6.97859987411499,10.93316987411499L6.97859987411499,14.554799874114991ZM14.624999874114991,14.554799874114991L11.00427987411499,14.554799874114991L11.00427987411499,10.93316987411499L14.624999874114991,10.93316987411499L14.624999874114991,14.554799874114991Z" fill-rule="evenodd" fill="#FFFFFF" fill-opacity="0.8500000238418579"/></g></g></svg>