<svg xmlns="http://www.w3.org/2000/svg" xmlns:xlink="http://www.w3.org/1999/xlink" fill="none" version="1.1" width="18" height="18" viewBox="0 0 18 18"><g><g style="opacity:0;"><rect x="0" y="0" width="18" height="18" rx="0" fill="#000000" fill-opacity="1"/></g><g><path d="M9.61523,10.341736874999999C9.30564,9.938656875,8.69805,9.938656875,8.38846,10.341736874999999L5.14863,14.557996875C4.969110000000001,14.791596875,4.9379100000000005,15.106996875,5.068160000000001,15.371196875C5.19841,15.635496875,5.46749,15.802796875,5.76211,15.802696875L12.2402,15.802696875C12.5347,15.802696875,12.8036,15.635396875,12.9338,15.371196875C13.064,15.106996875,13.0329,14.791796875,12.8535,14.558196875L9.61523,10.341736874999999ZM6.76072,14.537096875L9.00105,11.620726875L11.2414,14.537096875L6.76072,14.537096875ZM16.875,3.216796875L16.875,12.708996875C16.875,13.019596875,16.6232,13.271496875,16.3125,13.271496875L13.5301,13.271496875C13.1753,13.271496875,12.8781,12.981096875,12.8849,12.626366875C12.8917,12.281726875,13.1729,12.005856875,13.5176,12.005856875L15.6094,12.005856875L15.6094,3.919916875L2.39062,3.919916875L2.39062,12.005856875L4.469939999999999,12.005856875C4.82484,12.005856875,5.12191,12.296246875,5.11506,12.650976875C5.1083300000000005,12.995596875,4.82707,13.271496875,4.482419999999999,13.271496875L1.6875,13.271496875C1.37684,13.271496875,1.125,13.019596875,1.125,12.708996875L1.125,3.216796875C1.125,2.906136875,1.37684,2.654296875,1.6875,2.654296875L16.3125,2.654296875C16.6232,2.654296875,16.875,2.906136875,16.875,3.216796875Z" fill="#FFFFFF" fill-opacity="0.8500000238418579"/></g></g></svg>