<svg xmlns="http://www.w3.org/2000/svg" xmlns:xlink="http://www.w3.org/1999/xlink" fill="none" version="1.1" width="18" height="18" viewBox="0 0 18 18"><g style="mix-blend-mode:passthrough"><g style="mix-blend-mode:passthrough"><rect x="0" y="0" width="18" height="18" rx="0" fill="#000000" fill-opacity="0"/></g><g style="mix-blend-mode:passthrough"><path d="M9.562496249999999,2.00390625L8.437496249999999,2.00390625C8.343746249999999,2.00390625,8.29687625,2.05078125,8.29687625,2.14453125L8.29687625,8.29687625L2.14453125,8.29687625Q2.00390625,8.29687625,2.00390625,8.437496249999999L2.00390625,9.562496249999999C2.00390625,9.656246249999999,2.05078125,9.70312625,2.14453125,9.70312625L8.29687625,9.70312625L8.29687625,15.85550625C8.29687625,15.94920625,8.343746249999999,15.99610625,8.437496249999999,15.99610625L9.562496249999999,15.99610625C9.656246249999999,15.99610625,9.70312625,15.94920625,9.70312625,15.85550625L9.70312625,9.70312625L15.85550625,9.70312625C15.94920625,9.70312625,15.99610625,9.656246249999999,15.99610625,9.562496249999999L15.99610625,8.437496249999999C15.99610625,8.343746249999999,15.94920625,8.29687625,15.85550625,8.29687625L9.70312625,8.29687625L9.70312625,2.14453125Q9.70312625,2.00390625,9.562496249999999,2.00390625Z" fill-rule="evenodd" fill="#FFFFFF" fill-opacity="0.8500000238418579"/></g></g></svg>