<svg xmlns="http://www.w3.org/2000/svg" xmlns:xlink="http://www.w3.org/1999/xlink" fill="none" version="1.1" width="18" height="18" viewBox="0 0 18 18"><g style="mix-blend-mode:passthrough"><g style="mix-blend-mode:passthrough"><rect x="0" y="0" width="18" height="18" rx="0" fill="#000000" fill-opacity="0"/></g><g style="mix-blend-mode:passthrough"><path d="M12.7596,12.5728L16.0429,15.8561C16.0693,15.8824,16.0841,15.9182,16.0841,15.9555C16.0841,15.9929,16.0693,16.0287,16.0429,16.055L15.2475,16.8504C15.2211,16.8769,15.1853,16.8917,15.148,16.8917C15.1106,16.8917,15.0748,16.8769,15.0485,16.8504L11.786,13.5879C9.11572,15.832,5.15665,15.5955,2.7725400000000002,13.0495C0.38843700000000003,10.50353,0.412172,6.53746,2.82658,4.0201899999999995C5.24098,1.502912,9.20261,1.3138130000000001,11.8458,3.58968C14.489,5.86554,14.8904,9.811309999999999,12.7596,12.5728ZM2.5457,9.5825C3.0235,11.98417,5.1313,13.7139,7.58004,13.7138C8.9421,13.7176,10.24905,13.1762,11.2094,12.2103C12.9409,10.47876,13.2081,7.76523,11.8476,5.72922C10.48705,3.6932,7.87778,2.90177,5.61547,3.83893C3.35316,4.77609,2.0679,7.18083,2.5457,9.5825Z" fill-rule="evenodd" fill="#FFFFFF" fill-opacity="0.8500000238418579"/></g></g></svg>