<svg xmlns="http://www.w3.org/2000/svg" xmlns:xlink="http://www.w3.org/1999/xlink" fill="none" version="1.1" width="18" height="18" viewBox="0 0 18 18"><g><g style="opacity:0;"><rect x="0" y="0" width="18" height="18" rx="0" fill="#000000" fill-opacity="1"/></g><g><path d="M5.472769540786743,1.992655845123291C10.706909540786743,-0.666515154876709,16.903819540786742,3.1385948451232912,16.900119540786743,9.00949484512329C16.900119540786743,12.28867484512329,14.866119540786743,15.22397484512329,11.795819540786743,16.375474845123293C8.725479540786743,17.52707484512329,5.262879540786743,16.65347484512329,3.106409540786743,14.183074845123292C3.0524295407867434,14.12097484512329,3.0597895407867433,14.02667484512329,3.122749540786743,13.973774845123291L3.966499540786743,13.263974845123292C4.0278195407867425,13.21257484512329,4.118929540786743,13.21957484512329,4.171639540786743,13.27977484512329C6.391769540786743,15.804374845123291,10.175769540786742,16.20757484512329,12.878019540786743,14.20727484512329C15.580219540786743,12.20707484512329,16.299719540786743,8.470304845123291,14.533519540786743,5.609644845123291C12.767219540786742,2.748994845123291,9.104119540786744,1.718165845123291,6.105229540786743,3.237894845123291C5.356779540786743,3.619954845123291,4.689039540786743,4.142784845123291,4.138589540786743,4.777734845123291L5.316329540786743,5.680724845123291C5.360719540786743,5.714834845123291,5.381899540786743,5.771194845123291,5.370969540786743,5.826104845123291C5.360039540786744,5.881004845123291,5.318889540786744,5.924954845123291,5.264819540786743,5.939474845123291L1.8882425407867431,6.844044845123291C1.794869340786743,6.868984845123291,1.7032193707867431,6.798654845123291,1.7031445307867432,6.702014845123291L1.7031445307867432,6.160604845123291L1.6975195407867432,6.160604845123291C1.6994531407867433,6.155864845123291,1.701386750786743,6.151284845123291,1.7031445307867432,6.146544845123291L1.7031445307867432,3.206604845123291C1.7031743107867432,3.150614845123291,1.7349744407867431,3.099504845123291,1.7851821407867432,3.0747348451232908C1.835389540786743,3.049964845123291,1.8953035407867431,3.0558348451232913,1.9397465407867431,3.089884845123291L3.029589540786743,3.926074845123291C3.708299540786743,3.126564845123291,4.5386795407867435,2.469444845123291,5.472769540786743,1.992655845123291ZM12.937519540786743,11.021484845123291L12.937519540786743,10.037104845123292C12.937519540786743,9.959444845123292,12.874519540786743,9.896484845123291,12.796919540786742,9.896484845123291L8.756189540786742,9.896484845123291L8.771479540786743,5.855804845123291C8.771479540786743,5.778134845123291,8.708519540786742,5.715174845123291,8.630859540786744,5.715174845123291L7.646479540786743,5.711664845123291C7.568819540786743,5.711664845123291,7.5058595407867434,5.774624845123291,7.5058595407867434,5.852284845123291L7.488279540786743,10.59837484512329C7.487599540786743,10.90951484512329,7.739639540786743,11.162074845123291,8.050779540786742,11.162074845123291L12.796919540786742,11.162074845123291C12.874519540786743,11.162074845123291,12.937519540786743,11.099144845123291,12.937519540786743,11.021484845123291Z" fill="#FFFFFF" fill-opacity="0.8500000238418579"/></g></g></svg>