<svg xmlns="http://www.w3.org/2000/svg" xmlns:xlink="http://www.w3.org/1999/xlink" fill="none" version="1.1" width="18" height="18" viewBox="0 0 18 18"><g><g style="opacity:0;"><rect x="0" y="0" width="18" height="18" rx="0" fill="#FFFFFF" fill-opacity="0.8500000238418579"/></g><g><path d="M3.23437,7.3125L2.109375,7.3125C2.0317099,7.3125,1.96875,7.24954,1.96875,7.17187L1.96875,2.53125C1.96875,2.22059,2.22059,1.96875,2.53125,1.96875L7.17187,1.96875C7.24954,1.96875,7.3125,2.0317099,7.3125,2.109375L7.3125,3.23437C7.3125,3.31204,7.24954,3.375,7.17187,3.375L3.375,3.375L3.375,7.17187C3.375,7.24954,3.31204,7.3125,3.23437,7.3125ZM7.17187,14.62495L3.375,14.62495L3.375,10.82813C3.375,10.75046,3.31204,10.6875,3.23437,10.6875L2.109375,10.6875C2.0317099,10.6875,1.96875,10.75046,1.96875,10.82813L1.96875,15.46875C1.96875,15.77945,2.22059,16.03125,2.53125,16.03125L7.17187,16.03125C7.24954,16.03125,7.3125,15.96825,7.3125,15.89065L7.3125,14.76565C7.3125,14.68795,7.24954,14.62495,7.17187,14.62495ZM15.89065,10.6875L14.76565,10.6875C14.68795,10.6875,14.62495,10.75046,14.62495,10.82813L14.62495,14.62495L10.82813,14.62495C10.75046,14.62495,10.6875,14.68795,10.6875,14.76565L10.6875,15.89065C10.6875,15.96825,10.75046,16.03125,10.82813,16.03125L15.46875,16.03125C15.77945,16.03125,16.03125,15.77945,16.03125,15.46875L16.03125,10.82813C16.03125,10.75046,15.96825,10.6875,15.89065,10.6875ZM15.46875,1.96875L10.82813,1.96875C10.75046,1.96875,10.6875,2.0317099,10.6875,2.109375L10.6875,3.23437C10.6875,3.31204,10.75046,3.375,10.82813,3.375L14.62495,3.375L14.62495,7.17187C14.62495,7.24954,14.68795,7.3125,14.76565,7.3125L15.89065,7.3125C15.96825,7.3125,16.03125,7.24954,16.03125,7.17187L16.03125,2.53125C16.03125,2.22059,15.77945,1.96875,15.46875,1.96875Z" fill="#FFFFFF" fill-opacity="0.8500000238418579"/></g></g></svg>