<svg xmlns="http://www.w3.org/2000/svg" xmlns:xlink="http://www.w3.org/1999/xlink" fill="none" version="1.1" width="18" height="18" viewBox="0 0 18 18"><g style="mix-blend-mode:passthrough"><g style="mix-blend-mode:passthrough"><rect x="0" y="0" width="18" height="18" rx="0" fill="#000000" fill-opacity="0"/></g><g style="mix-blend-mode:passthrough"><path d="M8.417450158081055,1.5601276138000488L2.1174526580810547,16.86013461380005C2.0272793580810546,17.07913461380005,2.0675406480810548,17.33013461380005,2.2216681580810547,17.510034613800048C2.330406158081055,17.636834613800048,2.485086158081055,17.71533461380005,2.6516801580810547,17.728134613800048C2.8182751580810548,17.74093461380005,2.983136158081055,17.687034613800048,3.110000158081055,17.57833461380005L9.000000158081054,12.529734613800048L14.889990158081055,17.57833461380005C15.069790158081055,17.73243461380005,15.320890158081054,17.77273461380005,15.539890158081056,17.682534613800048C15.861590158081055,17.550034613800047,16.014990158081055,17.18183461380005,15.882590158081054,16.86013461380005L9.582550158081055,1.5601276138000488C9.518580158081054,1.4047816138000488,9.395220158081056,1.2814186138000487,9.239870158081054,1.2174528138000489C8.918140158081055,1.0849749138000488,8.549930158081054,1.238395613800049,8.417450158081055,1.5601276138000488ZM4.280970158081055,14.91513461380005L8.590000158081054,11.221634613800049C8.825930158081054,11.019444613800049,9.174070158081054,11.019444613800049,9.410000158081054,11.221634613800049L13.718990158081054,14.91513461380005L9.000000158081054,3.454634613800049L4.280970158081055,14.91513461380005Z" fill-rule="evenodd" fill="#FFFFFF" fill-opacity="0.8500000238418579"/></g></g></svg>