<?xml version="1.0" standalone="no"?>
<!DOCTYPE svg PUBLIC "-//W3C//DTD SVG 1.1//EN" "http://www.w3.org/Graphics/SVG/1.1/DTD/svg11.dtd" >
<!--
2013-9-30: Created.
-->
<svg>
<metadata>
Created by iconfont
</metadata>
<defs>

<font id="iconfont" horiz-adv-x="1024" >
  <font-face
    font-family="iconfont"
    font-weight="500"
    font-stretch="normal"
    units-per-em="1024"
    ascent="896"
    descent="-128"
  />
    <missing-glyph />
    
    <glyph glyph-name="fenxiang" unicode="&#58916;" d="M731.853244 263.33992c-45.715181 0-87.117127-18.782785-116.91478-49.028647L446.790836 323.618794c7.356548 18.630313 11.400654 38.917358 11.400654 60.132542 0 24.076348-5.208629 46.958498-14.557554 67.578118l133.303029 96.266507c29.262464-26.948769 68.303642-43.433208 111.13003-43.433208 90.543156 0 164.196643 73.653487 164.196643 164.196643S778.61015 832.566272 688.066995 832.566272s-164.196643-73.66372-164.196643-164.207899c0-24.076348 5.208629-46.957475 14.556531-67.577095l-133.303029-96.266507c-29.262464 26.948769-68.303642 43.433208-111.129007 43.433208-90.543156 0-164.196643-73.653487-164.196643-164.196643s73.653487-164.196643 164.196643-164.196643c45.721321 0 87.129406 18.787902 116.928083 49.040926l168.140465-109.303428c-7.360641-18.634406-11.406794-38.928614-11.406794-60.149938 0-90.543156 73.653487-164.196643 164.196643-164.196643s164.196643 73.653487 164.196643 164.196643S822.396399 263.33992 731.853244 263.33992zM688.066995 766.88741c54.326303 0 98.517781-44.202735 98.517781-98.529037 0-54.326303-44.192501-98.517781-98.517781-98.517781-32.122605 0-60.699454 15.452947-78.695317 39.314401-0.341784 0.535189-0.695848 1.064238-1.072425 1.585101-0.379647 0.527003-0.775666 1.034563-1.180895 1.531889-11.070126 15.928784-17.569144 35.261085-17.569144 56.086389C589.549214 722.684676 633.740692 766.88741 688.066995 766.88741zM377.292995 331.20354c-0.254803-0.360204-0.508583-0.721431-0.751107-1.094938-0.231267-0.356111-0.446162-0.716314-0.662079-1.077541-17.692964-26.391067-47.791469-43.798529-81.884962-43.798529-54.326303 0-98.517781 44.192501-98.517781 98.517781 0 54.326303 44.192501 98.517781 98.517781 98.517781 54.326303 0 98.517781-44.192501 98.517781-98.517781C392.512628 364.444619 386.9264 346.421126 377.292995 331.20354zM731.853244 0.625496c-54.326303 0-98.517781 44.192501-98.517781 98.517781 0 19.455097 5.669116 37.609573 15.440667 52.900837 0.176009 0.254803 0.360204 0.500397 0.530073 0.762363 0.162706 0.25071 0.312108 0.506537 0.467651 0.760317 17.666358 26.555819 47.860031 44.094264 82.080413 44.094264 54.326303 0 98.517781-44.192501 98.517781-98.517781C830.371024 44.816974 786.178523 0.625496 731.853244 0.625496z"  horiz-adv-x="1024" />

    
    <glyph glyph-name="denglu" unicode="&#58886;" d="M512 853.333333C251.733333 853.333333 42.666667 644.266667 42.666667 384c0-147.2 68.266667-279.466667 172.8-364.8C296.533333-46.933333 398.933333-85.333333 512-85.333333s215.466667 38.4 296.533333 104.533333c106.666667 85.333333 172.8 217.6 172.8 364.8 0 260.266667-209.066667 469.333333-469.333333 469.333333z m0-896c-93.866667 0-179.2 29.866667-249.6 81.066667C290.133333 151.466667 392.533333 234.666667 512 234.666667s221.866667-83.2 249.6-196.266667C691.2-12.8 605.866667-42.666667 512-42.666667z m-170.666667 490.666667c0 93.866667 76.8 170.666667 170.666667 170.666667s170.666667-76.8 170.666667-170.666667-76.8-170.666667-170.666667-170.666667-170.666667 76.8-170.666667 170.666667z m454.4-381.866667c-27.733333 89.6-96 162.133333-183.466666 192 68.266667 36.266667 113.066667 106.666667 113.066666 187.733334 0 117.333333-96 213.333333-213.333333 213.333333s-213.333333-96-213.333333-213.333333c0-81.066667 44.8-151.466667 113.066666-187.733334-87.466667-32-155.733333-102.4-183.466666-192C140.8 145.066667 85.333333 258.133333 85.333333 384 85.333333 618.666667 277.333333 810.666667 512 810.666667s426.666667-192 426.666667-426.666667c0-125.866667-55.466667-238.933333-142.933334-317.866667z"  horiz-adv-x="1024" />

    
    <glyph glyph-name="ic_save" unicode="&#58917;" d="M793.6 853.344H42.656v-938.656h938.656V665.632l-187.744 187.744z m-153.6-256v128h42.656V512H341.312V725.344h213.344v-128H640zM341.344 0v213.344h341.344V0H341.344zM896 0h-128v298.656H256V0H128V768h128v-341.344h512v332.8l128-128V0z"  horiz-adv-x="1024" />

    
    <glyph glyph-name="iEarth_chacha-" unicode="&#58887;" d="M1014.4 841.6l-44.8 44.8L512 429.44 54.4 886.4l-44.8-44.8L466.56 384 9.6-73.6l44.8-44.8L512 338.56l457.6-456.96 44.8 44.8L557.44 384 1014.4 841.6z"  horiz-adv-x="1024" />

    
    <glyph glyph-name="iEarth-jianshao-" unicode="&#58888;" d="M0 416h1024v-64H0z"  horiz-adv-x="1024" />

    
    <glyph glyph-name="iEarth-chacha-" unicode="&#58889;" d="M1014.4 841.6l-44.8 44.8L512 429.44 54.4 886.4l-44.8-44.8L466.56 384 9.6-73.6l44.8-44.8L512 338.56l457.6-456.96 44.8 44.8L557.44 384 1014.4 841.6z"  horiz-adv-x="1024" />

    
    <glyph glyph-name="iEarth-guanyu-" unicode="&#58890;" d="M502.784 312.32a256 256 0 1 1-237.568 0 358.4 358.4 0 0 1-235.52-393.728l51.2 7.68A307.2 307.2 0 1 0 691.2-25.6a244.736 244.736 0 0 0-4.096-51.2l51.2-7.68A292.352 292.352 0 0 1 742.4-25.6a358.4 358.4 0 0 1-239.616 337.92zM179.2 537.6a204.8 204.8 0 1 0 204.8-204.8 204.8 204.8 0 0 0-204.8 204.8zM758.784 312.32A256 256 0 0 1 640 793.6H614.4l5.12-51.2h20.992a204.8 204.8 0 0 0 0-409.6h-14.336a361.984 361.984 0 0 1-37.376-2.56l7.168-51.2A307.2 307.2 0 0 0 947.2-25.6a244.736 244.736 0 0 0-4.096-51.2l51.2-7.68A292.352 292.352 0 0 1 998.4-25.6a358.4 358.4 0 0 1-239.616 337.92z"  horiz-adv-x="1024" />

    
    <glyph glyph-name="iEarth-R-xiugai_bianji" unicode="&#58891;" d="M1016.987628 614.259675L743.120348 888.126956a26.106974 26.106974 0 0 1-37.368807 0L563.954837 742.23504l-457.639904-454.056594a25.595073 25.595073 0 0 1-6.142818-10.23803L0.863232-95.235747a26.106974 26.106974 0 0 1 25.595073-32.761693h6.654719l372.152361 98.796981a25.595073 25.595073 0 0 1 10.238029 6.142818L871.095712 435.094164l143.332409 143.332409a26.106974 26.106974 0 0 1 2.559507 35.833102zM581.359486 691.044894l99.308884-102.380292-419.247295-418.223492-99.308883 99.308883z m-442.794762-471.973145l102.380292-102.380292 102.380292-102.380292-279.498197-79.344726z m260.045942-185.82023l-99.308883 99.308883L717.525275 551.807697l102.380291-99.308883z m456.1042 456.1042l-236.498474 237.010376 106.475503 106.475503 236.498474-236.498474z"  horiz-adv-x="1024" />

    
    <glyph glyph-name="iEarth-R-xiugai_caijian" unicode="&#58892;" d="M256 793.6a102.4 102.4 0 1 0-102.4-102.4 102.4 102.4 0 0 0 102.4 102.4m0 51.2a153.6 153.6 0 1 1 153.6-153.6 153.6 153.6 0 0 1-153.6 153.6zM256 281.6a102.4 102.4 0 1 0-102.4-102.4 102.4 102.4 0 0 0 102.4 102.4m0 51.2a153.6 153.6 0 1 1 153.6-153.6 153.6 153.6 0 0 1-153.6 153.6zM921.6 774.144h-144.896l-225.792-225.792 72.192-72.704L921.6 774.144zM367.104 652.288L294.912 580.096 438.784 435.2l-143.872-142.848 72.192-72.192L512 363.52l265.728-265.728H921.6z m135.168-252.416a30.72 30.72 0 1 0 30.72 30.72 30.72 30.72 0 0 0-30.72-30.72z"  horiz-adv-x="1024" />

    
    <glyph glyph-name="iEarth-R-xiugai_ditu" unicode="&#58893;" d="M102.4 793.6h358.4v-358.4H102.4zM563.2 793.6h358.4v-358.4h-358.4zM102.4 332.8h358.4v-358.4H102.4zM563.2 332.8h358.4v-358.4h-358.4z"  horiz-adv-x="1024" />

    
    <glyph glyph-name="iEarth-R-xiugai_dixing" unicode="&#58894;" d="M1024-76.8h-51.2L601.6 768.512a25.6 25.6 0 0 1-47.616 0l-112.64-337.92-96.256 94.208a25.6 25.6 0 0 1-41.984-8.704L71.68-76.8H0v-51.2h1024z m-108.032 0h-153.6a26.112 26.112 0 0 1 0 2.56L635.904 562.688zM460.8 355.84a25.6 25.6 0 0 1 18.432 16.896l88.576 272.384L709.12-76.8H446.464L358.4 439.808l76.8-76.8a25.6 25.6 0 0 1 25.6-7.168zM312.32 399.36L394.752-76.8H126.464z"  horiz-adv-x="1024" />

    
    <glyph glyph-name="iEarth-R-xiugai_feihang-" unicode="&#58895;" d="M512 896a512 512 0 1 1 512-512A512 512 0 0 1 512 896z m0-960a448 448 0 1 0 448 448 448 448 0 0 0-448-448zM704 403.2l-252.8 156.8a32 32 0 0 1-48.96-27.2v-313.6a32 32 0 0 1 48.96-27.2l252.8 156.8a32 32 0 0 1 0 54.4z"  horiz-adv-x="1024" />

    
    <glyph glyph-name="iEarth-R-xiugai_feihang-1" unicode="&#58896;" d="M512 896a512 512 0 1 1 512-512A512 512 0 0 1 512 896z m0-960a448 448 0 1 0 448 448 448 448 0 0 0-448-448zM624 576a48 48 0 0 1-48-48v-288a48 48 0 0 1 96 0v288a48 48 0 0 1-48 48zM400 576a48 48 0 0 1-48-48v-288a48 48 0 0 1 96 0v288a48 48 0 0 1-48 48z"  horiz-adv-x="1024" />

    
    <glyph glyph-name="iEarth-R-xiugai_liangsuan" unicode="&#58897;" d="M768 896L0 128l256-256L1024 640zM73.216 128l110.08 110.08L292.864 128l36.864 36.864-109.056 110.08L330.752 384l72.192-72.192 36.864 36.864-72.704 73.216 110.592 110.08 109.056-109.056 36.864 36.864L512 568.832l112.64 110.08 72.192-72.192 36.864 36.864-72.192 72.192L768 822.272 950.784 640 256-54.784z"  horiz-adv-x="1024" />

    
    <glyph glyph-name="iEarth-R-xiugai_liangsuan-" unicode="&#58898;" d="M716.8 896h51.2v-1024h-51.2zM256-128h307.2V896H256zM307.2 844.8h204.8v-153.6H358.4v-51.2h153.6v-153.6H409.6v-51.2h102.4v-153.6H358.4v-51.2h153.6v-153.6H409.6v-51.2h102.4v-102.4H307.2z"  horiz-adv-x="1024" />

    
    <glyph glyph-name="iEarth-R-xiugai_kongjianfen" unicode="&#58899;" d="M1024 400.896c-44.544 211.968-216.064 341.504-448 397.312a1168.384 1168.384 0 0 1-279.552 37.376A534.528 534.528 0 0 1 204.8 829.44L0-128l1024 75.776V400.896z m-59.904 26.624L870.4 378.88a819.2 819.2 0 0 1-102.4 78.848V667.136a423.424 423.424 0 0 0 196.096-239.616zM681.984 281.6A860.672 860.672 0 0 1 512 342.016V521.728A598.528 598.528 0 0 0 614.4 486.4a1024 1024 0 0 0 102.4-56.32v-130.048zM256 384V557.568a1334.784 1334.784 0 0 0 204.8-24.064v-180.224a1566.208 1566.208 0 0 1-204.8 30.72z m-16.384-51.2a1274.368 1274.368 0 0 0 385.024-79.36L98.816-19.456zM768 395.776c19.456-14.336 36.864-28.16 51.2-42.496l-51.2-27.136z m-51.2 299.008v-204.8c-24.064 13.824-51.2 28.16-78.336 41.472A675.328 675.328 0 0 1 512 574.976V760.32l51.2-11.776a807.936 807.936 0 0 0 153.6-53.76zM460.8 770.048v-183.808a1367.552 1367.552 0 0 1-204.8 23.04V783.36h40.448A1031.168 1031.168 0 0 0 460.8 770.048zM204.8 583.68V384l-92.672-230.4zM116.224-68.096l565.76 292.352c10.752-6.144 21.504-12.288 31.744-19.456 150.528-102.4 213.504-169.984 240.128-210.944zM768 230.4v38.4l92.16 47.616A404.992 404.992 0 0 0 972.8 133.12v-79.872A1015.808 1015.808 0 0 1 768 230.4z m204.8 27.648a563.2 563.2 0 0 1-64.512 82.944l64.512 33.28z"  horiz-adv-x="1024" />

    
    <glyph glyph-name="iEarth-R-xiugai_feihang-2" unicode="&#58900;" d="M512 832A448 448 0 1 0 64 384 448 448 0 0 0 512 832m0 64a512 512 0 1 1 512-512A512 512 0 0 1 512 896zM352 544m32 0l256 0q32 0 32-32l0-256q0-32-32-32l-256 0q-32 0-32 32l0 256q0 32 32 32Z"  horiz-adv-x="1024" />

    
    <glyph glyph-name="iEarth-R-xiugai_kongjianfen1" unicode="&#58901;" d="M358.4 536.064h51.2v-51.2H358.4zM409.6 484.864h51.2v-51.2H409.6zM972.8 896h51.2v-51.2h-51.2zM614.4 536.064h51.2v-51.2h-51.2zM563.2 435.2H460.8v-204.8h204.8v51.2h153.6v51.2h-153.6V435.2h-51.2V486.4h-51.2z m51.2-153.6h-102.4v102.4h102.4zM665.6 587.776h51.2v-51.2h-51.2zM747.008 640a355.328 355.328 0 0 1-434.176-51.2H307.2v-5.632a358.4 358.4 0 0 1-67.072-405.504H204.8v-51.2h51.2v20.992a358.4 358.4 0 0 1 537.6-90.624L976.896-128l43.52 43.52-182.784 183.808A358.4 358.4 0 0 1 768 625.664V640zM870.4 332.8a307.2 307.2 0 0 0-572.928-153.6H409.6v153.6H256a307.2 307.2 0 0 0 78.848 204.8H358.4v22.016a304.128 304.128 0 0 0 358.4 37.376V588.8h15.872A307.2 307.2 0 0 0 870.4 332.8zM307.2 230.4v51.2h51.2v-51.2zM768 690.176h51.2v-51.2h-51.2zM102.4 587.776h51.2v-51.2H102.4zM51.2 536.064h51.2v-51.2H51.2zM0 484.864h51.2v-51.2H0zM102.912 793.088V844.8h-51.2v-51.712H102.4v-51.2h51.2v51.2h-50.688zM153.6 742.4v-153.6h153.6V742.4z m102.4-102.4H204.8V691.2h51.2zM512 741.888h51.2v-51.2h-51.2zM358.4 896v-153.6h153.6V896z m102.4-102.4H409.6V844.8h51.2zM102.4 73.728h51.2v-51.2H102.4zM153.6 124.928h51.2v-51.2H153.6zM665.6 227.84h51.2v-51.2h-51.2zM716.8 176.64h51.2v-51.2h-51.2zM972.8 844.8h-153.6v-153.6h153.6z m-51.2-102.4h-51.2V793.6h51.2z"  horiz-adv-x="1024" />

    
    <glyph glyph-name="iEarth-R-xiugai_liangsuan-1" unicode="&#58902;" d="M0 640h1024v-51.2H0zM0 128h1024V435.2H0z m51.2 256h153.6v-153.6h51.2v153.6h153.6v-102.4h51.2v102.4h153.6v-153.6h51.2v153.6h153.6v-102.4h51.2v102.4h102.4v-204.8H51.2z"  horiz-adv-x="1024" />

    
    <glyph glyph-name="iEarth-R-xiugai_liangsuan-2" unicode="&#58903;" d="M0 896v-1024h1024z m614.4-921.6v-51.2h-102.4v102.4H460.8v-102.4H358.4v51.2H307.2v-51.2H204.8v102.4H153.6v-102.4H51.2v102.4h51.2v51.2H51.2v102.4h102.4v51.2H51.2v102.4h51.2v51.2H51.2V486.4h102.4V537.6H51.2V772.608L900.608-76.8H665.6v51.2zM307.2 332.8H256v-204.8h204.8v51.2H307.2v153.6z"  horiz-adv-x="1024" />

    
    <glyph glyph-name="iEarth-R-xiugai_liangsuan-3" unicode="&#58904;" d="M823.296 651.776l-43.52 43.52L512 427.52 244.224 695.296l-43.52-43.52L468.48 384l-267.776-267.776 43.52-43.52L512 340.48l267.776-267.776 43.52 43.52L555.52 384l267.776 267.776z"  horiz-adv-x="1024" />

    
    <glyph glyph-name="iEarth-R-xiugai_zhankai" unicode="&#58905;" d="M670.208 429.056L353.792 745.984l-45.568-45.056L625.152 384l-316.928-316.928 45.568-45.056 316.416 316.928 45.568 45.056-45.568 45.056z"  horiz-adv-x="1024" />

    
    <glyph glyph-name="iEarth-suoshuo-" unicode="&#58906;" d="M994.816-42.496l-272.896 300.032A383.488 383.488 0 1 1 435.2 128v51.2a332.288 332.288 0 1 0 102.4 16.896l15.872-48.64a382.464 382.464 0 0 1 88.064 43.52l274.944-302.08z"  horiz-adv-x="1024" />

    
    <glyph glyph-name="iEarth-R-xiugai_tuceng" unicode="&#58907;" d="M512 409.6l-512 204.8 512 204.8 512-204.8-512-204.8zM512 102.4L192 230.4 0 153.6l512-204.8 512 204.8-192 76.8L512 102.4zM512 332.8L192 460.8 0 384l512-204.8 512 204.8-192 76.8L512 332.8z"  horiz-adv-x="1024" />

    
    <glyph glyph-name="iEarth-R-xiugai_shouqi" unicode="&#58908;" d="M715.776 700.928l-45.568 45.056-316.416-316.928-45.568-45.056 45.568-45.056 316.416-316.928 45.568 45.056L398.848 384l316.928 316.928z"  horiz-adv-x="1024" />

    
    <glyph glyph-name="iEarth-tianjia" unicode="&#58909;" d="M1024 353.92v64l-480-1.92V896h-64v-480L0 414.08v-64l480 1.92V-128h64V352l480 1.92z"  horiz-adv-x="1024" />

    
    <glyph glyph-name="iEarth-R-xiugai_tianjia" unicode="&#58910;" d="M921.6 486.4h-307.2V793.6H409.6v-307.2H102.4v-204.8h307.2v-307.2h204.8v307.2h307.2V486.4z"  horiz-adv-x="1024" />

    
    <glyph glyph-name="iEarth-R-xiugai_shezhi" unicode="&#58911;" d="M553.019988 844.70878l21.499743-119.784283 5.630885-30.20202 29.178222-9.214176a315.841463 315.841463 0 0 0 56.308851-23.035439l27.642527-15.356959 23.547338 18.428351 97.260742 68.08252 51.189864-51.189865-67.570621-101.355931-17.404554-25.083034 13.821264-27.130628a314.305767 314.305767 0 0 0 21.499743-54.261256l9.214176-30.20202 31.225817-5.630885 116.712891-21.499743v-74.225304l-119.784283-21.499743-30.20202-5.630885-9.214176-29.178222a315.329565 315.329565 0 0 0-23.035439-56.308851l-14.84506-27.642527 17.916452-26.106831 68.08252-97.260742-51.189865-51.189865-99.820235 69.618216-25.083034 17.404554-27.130628-13.821264a315.329565 315.329565 0 0 0-54.261256-21.499743l-30.20202-9.214175-5.630885-31.225817-23.035439-116.200993H471.116204l-21.499743 119.784283-5.630885 30.20202-29.178222 9.214176a315.841463 315.841463 0 0 0-56.308851 23.035439l-27.642527 15.356959-23.547338-18.428351-97.260742-68.08252-51.189864 51.189865 69.618215 99.820235 17.404554 25.083034-13.821263 27.130628a314.305767 314.305767 0 0 0-21.499743 54.261256l-9.214176 30.20202-31.225817 5.630885L51.359316 350.726588V424.951892l119.784283 21.499743 30.20202 5.630885 9.214176 29.178222A317.377159 317.377159 0 0 0 233.595234 537.569593l14.84506 27.642527L230.523842 588.759458 162.953221 686.532099l51.189864 51.189864 100.844033-68.08252 25.083034-17.404554 27.130628 13.821264a315.329565 315.329565 0 0 0 54.261256 21.499743l30.20202 9.214176 5.630885 31.225817L478.794684 844.70878h74.225304m18.940249 51.189864H460.878232a26.618729 26.618729 0 0 1-27.130629-16.892655L409.688367 736.698166a364.983733 364.983733 0 0 1-62.963533-25.083034L223.869159 793.518915a16.380757 16.380757 0 0 1-9.214175 2.559493 32.249615 32.249615 0 0 1-21.499743-9.726074L113.299052 709.055639a26.106831 26.106831 0 0 1-7.166581-31.225817l82.415682-118.248587a365.495632 365.495632 0 0 1-26.61873-62.451635L17.062107 471.022769a26.106831 26.106831 0 0 1-16.892655-27.130628V332.810136a26.106831 26.106831 0 0 1 16.892655-27.130629l142.307823-25.594932a365.495632 365.495632 0 0 1 25.083034-62.963533L102.549181 95.801063a26.106831 26.106831 0 0 1 7.166581-31.225817l79.34429-79.34429a32.249615 32.249615 0 0 1 21.499743-9.726074 16.380757 16.380757 0 0 1 9.214175 2.559493l118.248587 82.415682a364.471835 364.471835 0 0 1 62.451635-26.61873l26.10683-144.867316a26.618729 26.618729 0 0 1 27.130629-16.892655H563.25796a26.618729 26.618729 0 0 1 27.130629 16.892655l25.594932 142.307823a364.983733 364.983733 0 0 1 62.963533 25.083034l121.319979-81.903783a16.380757 16.380757 0 0 1 9.214175-2.559493 32.249615 32.249615 0 0 1 21.499743 9.726074l79.34429 79.34429a26.618729 26.618729 0 0 1 7.166581 31.225817l-82.415682 118.248587a365.495632 365.495632 0 0 1 26.61873 62.451634l144.867316 26.106831a26.106831 26.106831 0 0 1 16.892655 27.130628V435.189864a26.106831 26.106831 0 0 1-16.892655 27.130629L864.766262 486.379729a366.007531 366.007531 0 0 1-25.083034 62.963533l81.903783 122.855675a26.106831 26.106831 0 0 1-7.166581 31.225817l-77.296695 79.34429a32.249615 32.249615 0 0 1-21.499743 10.749871 16.380757 16.380757 0 0 1-9.214176-2.559493l-118.760485-83.439479a364.471835 364.471835 0 0 1-62.451635 26.61873L599.090865 879.005989a26.618729 26.618729 0 0 1-27.130628 16.892655zM512.068096 486.379729a102.379729 102.379729 0 1 0-102.379729-102.379729 102.379729 102.379729 0 0 0 102.379729 102.379729m0 51.189864a153.569593 153.569593 0 1 1 153.569593-153.569593 153.569593 153.569593 0 0 1-153.569593 153.569593z"  horiz-adv-x="1024" />

    
    <glyph glyph-name="iEarth-zhuyemian-" unicode="&#58912;" d="M512 894.464L1.024 434.688 153.6 435.2v-563.2h512v460.8l-307.712-0.512V76.8h51.2v204.288L614.4 281.6v-358.4H204.8V486.4H135.168L512 825.344l376.32-339.456L819.2 486.912V-76.8h-102.4v-51.2h153.6V434.688l153.088-2.048L512 894.464zM819.2 640h51.2V896h-153.6v-51.2h102.4v-204.8z"  horiz-adv-x="1024" />

    
    <glyph glyph-name="iEarth-zhibeizhen-" unicode="&#58913;" d="M512 757.76l261.12-651.264-223.744 238.08L512 384l-37.376-39.936-224.256-238.08L512 757.76M512 896L102.4-128l409.6 437.248L921.6-128 512 896z"  horiz-adv-x="1024" />

    
    <glyph glyph-name="jinyong-" unicode="&#58914;" d="M512 896a512 512 0 1 1 512-512A512 512 0 0 1 512 896z m0-972.8A460.8 460.8 0 0 0 183.808 706.56L802.816 25.6A460.8 460.8 0 0 0 512-76.8z m328.704 138.24L221.184 742.4a460.8 460.8 0 0 0 619.52-680.96z"  horiz-adv-x="1024" />

    
    <glyph glyph-name="qingchu-" unicode="&#58915;" d="M665.6 537.6V896H358.4v-358.4H0v-563.2h1024V537.6z m307.2-512h-102.4v153.6h-51.2v-153.6h-102.4v204.8h-51.2v-204.8h-128v281.6h-51.2V25.6H358.4v204.8H307.2v-204.8H204.8v153.6H153.6v-153.6H51.2v358.4h921.6z m0 409.6H51.2V486.4h358.4V844.8h204.8v-358.4h358.4z"  horiz-adv-x="1024" />

    


  </font>
</defs>
</svg>
